<?xml version="1.0" standalone="no"?>
<!DOCTYPE svg PUBLIC "-//W3C//DTD SVG 20010904//EN"
 "http://www.w3.org/TR/2001/REC-SVG-20010904/DTD/svg10.dtd">
<svg version="1.0" xmlns="http://www.w3.org/2000/svg"
 width="600.000000pt" height="849.000000pt" viewBox="0 0 600.000000 849.000000"
 preserveAspectRatio="xMidYMid meet">
<g transform="translate(0.000000,849.000000) scale(0.066667,-0.066667)"
fill="#002529" stroke="none">
<path d="M4419 9649 c-427 -510 -1330 -775 -2225 -654 l-64 8 0 -418 c1 -2094
705 -3384 2280 -4183 97 -49 80 -53 307 75 1015 573 1565 1234 1905 2287 165
512 216 893 229 1687 l8 553 -73 -10 c-295 -40 -799 -26 -1070 30 -465 96
-1035 418 -1182 669 -33 55 -31 56 -115 -44z m349 -249 c494 -376 1276 -556
1963 -451 l63 10 4 -321 c13 -977 -90 -1509 -425 -2184 -356 -718 -846 -1198
-1622 -1587 l-251 -126 -116 53 c-695 316 -1291 824 -1618 1381 -416 706 -570
1303 -587 2275 l-9 507 111 -12 c171 -19 710 -14 854 8 503 77 1059 351 1301
641 l55 65 96 -97 c53 -54 134 -127 181 -162z"/>
<path d="M4417 9359 c-334 -339 -1061 -606 -1706 -625 l-281 -8 0 -174 c0
-1658 708 -2837 1989 -3314 l77 -29 123 50 c1245 502 1880 1536 1930 3142 l10
324 -283 9 c-649 21 -1330 271 -1709 629 l-76 71 -74 -75z m166 -141 c92 -75
213 -155 310 -205 35 -18 56 -36 46 -39 -26 -9 -216 94 -344 186 -95 68 -111
75 -127 55 -29 -35 -174 -130 -275 -181 -149 -74 -174 -72 -45 5 127 75 189
118 283 197 72 60 54 62 152 -18z m420 -276 c506 -96 983 -299 1406 -599 64
-46 116 -92 116 -103 0 -27 17 -37 -225 123 -1173 774 -2452 773 -3618 -3
-232 -154 -222 -149 -222 -121 0 12 52 59 116 104 429 307 959 527 1452 603
82 13 166 26 187 30 103 19 629 -5 788 -34z m-456 -228 c51 -119 89 -168 112
-145 22 22 49 228 31 239 -29 18 1 30 48 20 38 -9 49 -22 70 -88 36 -109 42
-111 96 -26 47 73 151 115 151 61 0 -8 -6 -15 -14 -15 -18 0 -51 -200 -39
-238 8 -27 4 -28 -45 -17 -54 12 -87 30 -55 30 16 0 43 130 29 144 -4 4 -32
-32 -61 -79 l-53 -87 -22 52 c-12 29 -26 74 -32 101 -6 27 -17 45 -24 41 -21
-13 -17 -133 5 -156 15 -17 12 -18 -19 -11 -21 5 -78 10 -128 10 -89 0 -91 1
-90 41 0 36 -6 42 -46 46 -51 5 -79 -30 -51 -64 12 -14 -8 -21 -86 -28 l-101
-10 -64 63 c-68 67 -88 51 -43 -35 20 -38 19 -40 -25 -49 -75 -15 -92 -12 -72
12 22 27 -7 210 -38 241 -22 22 -20 23 114 46 112 19 177 -56 112 -129 -22
-23 -19 -29 33 -72 86 -71 86 -71 193 184 32 77 51 64 114 -82z m-638 12 c1
-27 7 -86 13 -132 27 -198 -195 -210 -246 -14 -10 42 -29 86 -42 99 -28 28
-25 31 47 44 39 8 55 6 49 -4 -6 -9 4 -61 21 -115 31 -102 86 -136 130 -80 20
24 -18 177 -49 200 -29 22 -28 32 4 41 61 16 71 10 73 -39z m1339 10 c105 -30
110 -35 84 -81 -12 -21 -21 -30 -21 -20 -2 58 -97 86 -114 33 -13 -39 17 -62
65 -50 31 7 34 4 25 -26 -12 -41 -37 -71 -37 -46 0 30 -62 56 -77 32 -40 -65
25 -124 96 -86 29 16 36 -8 13 -45 -11 -17 -28 -16 -101 5 -157 44 -146 39
-121 58 28 22 76 182 65 221 -9 36 11 37 123 5z m-1661 -93 c11 -30 9 -32 -18
-18 -78 42 -56 -141 25 -204 30 -24 27 -31 -26 -50 -64 -22 -78 -20 -68 7 7
16 -47 173 -73 214 -9 13 -52 -20 -61 -45 -7 -25 -12 -27 -22 -10 -32 50 -15
70 95 108 124 43 131 43 148 -2z m1921 10 c146 -54 190 -155 108 -252 -44 -52
-114 -61 -203 -26 -28 11 -63 25 -79 31 -26 9 -26 12 -5 28 38 29 102 214 82
234 -25 25 -3 21 97 -15z m-2287 -122 c-9 -25 74 -190 101 -200 32 -13 83 21
83 55 0 35 23 39 36 5 19 -51 4 -66 -156 -145 -108 -54 -165 -76 -165 -62 0
39 -54 53 -91 24 -34 -29 -31 -93 5 -93 16 0 -23 -34 -55 -47 -7 -3 -15 28
-19 70 -3 41 -15 113 -26 161 -29 126 -8 134 113 43 133 -100 160 -113 187
-91 25 21 -43 162 -102 213 -35 30 -36 28 26 61 55 29 72 31 63 6z m2598 -10
c41 -22 46 -29 28 -40 -26 -15 -117 -188 -117 -223 0 -20 -6 -19 -52 2 l-51
25 29 37 c38 48 89 163 89 200 0 34 9 34 74 -1z m143 -78 c42 -24 50 -36 37
-52 -28 -34 -3 -82 36 -67 18 7 31 21 29 30 -6 23 21 20 65 -9 l39 -25 -80
-24 c-89 -27 -110 -80 -75 -182 18 -52 4 -56 -58 -19 -37 22 -41 31 -34 82 5
35 2 58 -8 58 -32 0 -63 -19 -63 -39 0 -28 -15 -26 -57 6 l-35 27 85 27 86 27
-8 70 c-4 38 -12 81 -18 96 -14 34 -6 33 59 -6z m-1006 -43 c508 -109 1219
-501 1478 -816 63 -77 -20 -41 -127 56 -287 258 -592 452 -922 586 -132 54
-138 49 -30 -24 560 -373 690 -1052 291 -1509 -90 -103 -70 -124 22 -24 363
394 318 978 -108 1390 -57 55 -99 101 -93 101 61 0 496 -278 696 -445 l141
-117 -9 -166 c-41 -709 -538 -1253 -1307 -1429 -1147 -264 -2197 374 -2289
1390 l-17 185 43 45 c112 119 408 333 622 451 188 104 193 98 49 -54 -284
-298 -371 -584 -288 -940 43 -187 261 -521 309 -473 4 4 -25 42 -63 85 -407
453 -290 1108 267 1500 132 93 113 92 -109 -7 -313 -140 -585 -319 -831 -547
-127 -119 -131 -121 -131 -78 0 43 243 249 480 408 390 260 791 415 1215 468
136 17 566 -5 711 -36z m-2179 -315 c31 0 37 -22 12 -38 -9 -6 -14 -22 -10
-37 6 -22 -3 -26 -51 -25 -44 2 -58 8 -58 28 0 14 -7 29 -15 35 -25 15 -17 37
13 37 17 0 33 14 39 34 l10 34 16 -34 c9 -19 29 -34 44 -34z m3555 0 c34 0 37
-27 5 -40 -14 -5 -20 -19 -15 -35 7 -22 -1 -26 -52 -26 -52 0 -60 4 -52 28 6
18 0 31 -14 37 -34 13 -30 36 5 36 17 0 38 15 48 33 l18 34 15 -34 c8 -18 27
-33 42 -33z m-2918 -1935 c27 -1 27 -2 2 -21 -15 -11 -23 -30 -18 -42 6 -16
-5 -21 -45 -21 -41 0 -52 5 -46 21 5 12 1 31 -9 42 -13 16 -11 21 8 21 14 0
29 11 34 25 9 22 11 22 28 0 10 -14 31 -25 46 -25z m2246 23 c5 -13 21 -23 35
-23 20 0 22 -4 8 -18 -10 -10 -18 -28 -18 -41 0 -16 -15 -24 -45 -25 -33 -1
-45 5 -45 23 0 14 -8 33 -18 43 -14 14 -12 18 8 18 14 0 30 10 35 23 4 12 14
22 20 22 6 0 16 -10 20 -22z m-214 -127 c-27 -50 -19 -134 14 -154 39 -25 38
-34 -8 -55 -44 -20 -68 -22 -64 -6 12 47 -79 124 -146 124 -39 0 -24 26 24 43
37 13 51 12 69 -6 39 -39 70 -28 60 22 -9 43 2 57 47 60 14 1 15 -6 4 -28z
m-1759 -145 c-2 -69 -7 -126 -9 -126 -21 0 -96 51 -82 56 32 11 21 49 -20 67
-33 16 -42 14 -59 -9 -18 -25 -23 -25 -54 -4 l-33 24 36 14 c20 8 69 38 110
67 104 75 117 64 111 -89z m1498 47 c-11 -28 48 -173 71 -173 9 -1 3 -11 -13
-23 -30 -23 -85 -30 -80 -11 5 22 -20 109 -32 109 -7 0 -16 -31 -20 -68 -10
-95 -18 -97 -94 -21 l-68 66 17 -52 c10 -29 28 -61 41 -71 28 -22 23 -28 -31
-42 -34 -8 -40 -6 -32 13 11 30 -35 190 -55 190 -9 0 -12 7 -6 15 20 33 89 14
144 -39 l55 -54 10 76 c10 72 26 90 96 106 3 0 1 -9 -3 -21z m-1208 -32 c30
-15 42 -31 37 -46 -5 -12 -9 -25 -9 -29 0 -3 -7 -6 -15 -6 -8 0 -15 10 -15 22
0 64 -112 61 -136 -3 -30 -77 25 -137 99 -109 34 13 39 11 34 -11 -8 -45 -119
-44 -171 1 -127 109 21 262 176 181z m254 -145 c18 -60 39 -117 48 -128 13
-16 5 -19 -43 -15 -51 4 -58 9 -54 38 4 25 -5 35 -33 42 -45 12 -74 -3 -63
-32 6 -15 -4 -21 -36 -21 -25 0 -45 7 -45 15 0 8 6 15 12 15 7 0 44 44 83 98
87 121 92 121 131 -12z m599 69 c0 -32 -4 -37 -18 -23 -35 35 -87 22 -87 -21
0 -29 6 -37 23 -30 12 5 32 13 45 18 16 7 22 -1 22 -27 0 -33 -5 -36 -47 -30
-40 6 -46 3 -38 -19 6 -14 10 -32 10 -40 0 -21 80 3 101 31 16 20 18 18 19
-17 0 -43 -21 -52 -140 -60 l-57 -4 -5 103 c-3 63 -12 107 -24 114 -12 8 9 16
55 22 40 6 84 12 96 15 12 2 28 5 34 6 6 1 11 -16 11 -38z m-287 -14 c121 -85
47 -216 -122 -216 l-78 0 0 120 0 120 82 0 c52 0 96 -9 118 -24z m-611 -224
c399 -101 883 -84 1280 46 141 46 161 40 42 -12 -278 -123 -756 -174 -1106
-118 -137 22 -422 110 -466 144 -26 20 -22 20 38 0 37 -13 133 -40 212 -60z
m257 -155 c68 -24 166 -61 217 -83 86 -36 98 -38 135 -19 72 37 382 147 398
141 9 -3 -88 -51 -216 -106 l-231 -101 -216 97 c-281 128 -304 146 -87 71z"/>
<path d="M4080 8732 c0 -53 22 -72 54 -46 33 27 20 81 -20 86 -29 4 -34 -2
-34 -40z"/>
<path d="M4436 8700 c-6 -22 -1 -30 20 -30 32 0 33 2 20 36 -13 33 -31 30 -40
-6z"/>
<path d="M5456 8516 c-43 -105 -41 -116 16 -116 92 1 147 125 81 185 -44 40
-58 31 -97 -69z"/>
<path d="M2981 8258 c6 -32 12 -35 37 -21 28 15 29 16 2 36 -39 30 -47 27 -39
-15z"/>
<path d="M4178 8379 c-343 -66 -666 -286 -870 -594 -208 -313 -182 -722 67
-1034 74 -93 66 -96 159 70 l52 94 -38 50 c-329 432 -17 1148 585 1339 922
293 1792 -614 1304 -1360 -25 -38 -24 -41 40 -154 79 -138 70 -136 153 -25
391 520 159 1198 -517 1514 -238 111 -649 155 -935 100z"/>
<path d="M4028 7526 c-247 -431 -491 -853 -543 -939 -52 -85 -95 -158 -95
-161 0 -3 87 -6 193 -6 l192 0 19 41 c19 43 248 457 459 829 68 120 141 252
162 295 55 109 54 110 152 -71 49 -89 91 -161 93 -159 2 2 47 76 101 165 l96
161 -95 155 c-52 86 -133 222 -180 304 -47 81 -90 153 -96 159 -6 6 -212 -341
-458 -773z"/>
<path d="M4856 7537 c-54 -104 -308 -550 -323 -565 -6 -6 -50 59 -98 146 -48
86 -92 157 -97 157 -12 -1 -138 -233 -138 -253 0 -8 61 -110 136 -229 122
-194 133 -216 104 -220 -51 -8 -265 40 -353 79 l-81 36 -62 -114 c-70 -127
-72 -120 60 -170 309 -117 735 -110 1031 17 79 34 79 33 10 152 -31 52 -56 96
-57 98 -1 1 -59 -17 -129 -41 -69 -24 -170 -48 -223 -54 l-97 -11 35 59 c19
32 81 140 138 239 56 99 108 189 114 200 8 14 22 1 48 -45 19 -36 87 -153 150
-260 64 -108 134 -228 156 -267 l41 -71 196 0 196 0 -21 34 c-71 110 -305 499
-468 777 -250 427 -222 396 -268 306z"/>
<path d="M3600 5955 c-12 -7 -17 -18 -11 -24 7 -7 19 -4 29 6 23 23 10 35 -18
18z"/>
<path d="M4135 5769 c-4 -12 2 -25 13 -30 15 -5 22 2 22 21 0 35 -23 40 -35 9z"/>
<path d="M4425 5730 c0 -100 20 -115 75 -60 54 54 22 150 -50 150 -21 0 -25
-16 -25 -90z"/>
<path d="M2280 8515 c0 -1700 685 -2868 2041 -3484 l183 -83 257 128 c1111
552 1749 1466 1914 2739 22 165 39 1043 21 1053 -7 4 -98 1 -201 -5 -111 -7
-284 -6 -425 3 -131 9 -241 13 -245 9 -18 -18 335 -47 571 -46 l268 0 -8 -458
c-13 -673 -75 -1013 -283 -1535 -327 -822 -1001 -1479 -1808 -1760 l-78 -27
-185 79 c-1311 564 -1976 1700 -1977 3382 l0 327 184 -10 c112 -6 253 -3 363
8 248 24 340 46 143 33 -182 -12 -578 -9 -671 4 l-64 10 0 -367z"/>
</g>
</svg>
