<?xml version="1.0" standalone="no"?> <!DOCTYPE svg PUBLIC "-//W3C//DTD SVG 20010904//EN" "http://www.w3.org/TR/2001/REC-SVG-20010904/DTD/svg10.dtd"> <svg version="1.0" xmlns="http://www.w3.org/2000/svg" width="600.000000pt" height="600.000000pt" viewBox="0 0 600.000000 600.000000" preserveAspectRatio="xMidYMid meet"> <g transform="translate(0.000000,600.000000) scale(0.100000,-0.100000)" fill="#ffffff" stroke="none"> <path d="M2960 5713 c-205 -288 -687 -569 -1170 -682 -218 -51 -369 -66 -670 -65 -208 0 -318 5 -407 17 -67 9 -129 17 -139 17 -16 0 -17 -32 -11 -517 6 -548 15 -694 62 -1009 68 -455 184 -857 367 -1274 365 -830 948 -1422 1888 -1919 l116 -61 39 21 c542 286 890 532 1225 869 276 277 470 548 651 910 266 535 419 1078 485 1725 23 226 33 1255 13 1255 -8 0 -66 -7 -129 -15 -169 -22 -509 -30 -674 -16 -341 29 -646 111 -941 255 -259 126 -492 301 -612 460 -25 33 -49 64 -53 69 -3 4 -22 -14 -40 -40z m320 -299 c319 -238 711 -398 1125 -459 155 -23 398 -36 545 -30 144 7 364 23 398 31 l22 4 0 -477 c0 -500 -8 -642 -49 -909 -88 -564 -319 -1155 -638 -1636 -203 -304 -540 -642 -873 -874 -92 -65 -267 -176 -340 -216 -224 -123 -443 -228 -478 -228 -25 0 -399 186 -532 265 -567 336 -996 759 -1282 1265 -328 579 -502 1138 -558 1795 -5 66 -10 321 -10 568 l0 447 23 -4 c143 -31 636 -38 860 -12 322 37 592 117 880 261 216 108 382 228 537 385 l85 87 95 -96 c52 -53 138 -128 190 -167z"/> <path d="M2952 5400 c-113 -137 -410 -321 -707 -438 -477 -189 -732 -242 -1174 -242 l-204 0 6 -267 c14 -566 82 -998 224 -1422 224 -673 601 -1189 1124 -1542 191 -128 424 -251 645 -339 l131 -52 104 43 c425 172 771 387 1019 631 437 430 706 928 873 1618 75 307 105 577 114 1006 l6 321 -259 6 c-439 9 -620 47 -1079 228 -177 69 -351 156 -467 231 -108 71 -231 171 -270 219 -17 22 -36 39 -42 39 -6 0 -26 -18 -44 -40z m117 -163 c118 -95 352 -247 380 -247 5 0 15 -7 22 -16 12 -15 11 -16 -11 -10 -88 25 -382 198 -434 255 -24 26 -38 26 -62 0 -52 -57 -274 -192 -393 -239 -78 -30 -83 -20 -9 19 156 84 266 157 367 243 31 26 60 48 65 48 5 0 39 -24 75 -53z m136 -257 c162 -14 403 -54 555 -92 413 -102 888 -327 1244 -590 77 -56 98 -83 80 -100 -3 -3 -87 49 -187 116 -346 232 -607 364 -932 471 -355 118 -743 167 -1143 145 -480 -26 -882 -136 -1307 -359 -123 -64 -304 -168 -315 -181 -3 -3 -45 -32 -95 -65 -49 -32 -113 -76 -142 -97 -29 -21 -55 -38 -58 -38 -3 0 -5 11 -5 24 0 47 288 240 575 386 363 185 655 282 1035 345 266 44 469 54 695 35z m-176 -222 c21 -46 46 -105 56 -131 10 -26 27 -54 38 -62 38 -26 50 -5 69 116 16 106 16 113 0 125 -26 19 -10 25 48 17 l54 -8 31 -87 c17 -48 33 -89 36 -92 3 -3 27 31 54 75 l50 80 48 -5 c63 -7 75 -15 50 -35 -16 -12 -25 -41 -38 -125 -16 -101 -16 -110 -1 -121 9 -7 16 -16 16 -20 0 -7 -67 0 -117 12 -25 6 -32 23 -9 23 9 0 17 23 25 69 19 116 14 115 -60 -11 -22 -38 -46 -68 -53 -68 -8 0 -27 41 -47 103 l-33 102 -7 -75 c-6 -60 -5 -77 7 -86 20 -16 18 -38 -3 -29 -10 3 -69 6 -130 6 -91 -1 -113 2 -113 13 0 8 6 16 12 18 10 4 10 10 0 32 -11 25 -16 27 -60 24 -41 -3 -47 -6 -50 -27 -3 -15 3 -30 14 -38 23 -17 11 -20 -104 -27 -101 -5 -108 -2 -184 76 -38 41 -47 36 -35 -21 7 -37 14 -51 30 -55 38 -10 6 -25 -68 -32 -69 -7 -70 -7 -52 13 16 19 16 25 -2 126 -21 117 -25 127 -47 127 -9 0 -14 6 -12 12 5 14 119 36 191 37 38 1 53 -4 72 -24 33 -32 33 -78 1 -110 l-24 -24 42 -39 c60 -55 85 -68 101 -50 7 7 36 69 65 138 63 151 57 140 81 140 15 0 29 -20 58 -82z m-629 7 c0 -3 -5 -14 -12 -24 -9 -15 -8 -30 6 -73 27 -83 32 -150 12 -181 -21 -31 -82 -57 -136 -57 -59 0 -86 29 -121 135 -18 56 -38 96 -52 107 -25 19 -26 18 57 42 52 16 74 13 56 -9 -15 -18 34 -185 62 -208 38 -32 98 -5 98 43 0 42 -40 160 -62 182 -11 11 -18 21 -16 22 18 16 108 33 108 21z m1358 -34 c63 -16 116 -31 118 -34 7 -6 -25 -77 -35 -77 -5 0 -12 11 -15 24 -4 17 -18 28 -50 39 l-44 15 -7 -26 c-3 -15 -8 -34 -11 -43 -6 -21 49 -34 76 -17 28 18 34 4 18 -43 -16 -48 -33 -60 -41 -30 -6 26 -57 47 -68 30 -10 -17 -22 -80 -15 -86 12 -13 89 -15 112 -3 34 18 40 7 17 -32 -16 -27 -25 -32 -49 -30 -28 3 -194 51 -203 59 -3 2 4 10 16 18 30 21 82 209 65 236 -23 36 -28 36 116 0z m-1702 -87 c16 -38 12 -56 -8 -36 -13 13 -64 16 -71 5 -5 -8 59 -174 77 -201 4 -8 18 -17 30 -22 19 -7 16 -10 -27 -29 -27 -12 -60 -24 -74 -27 -24 -6 -25 -5 -18 24 5 23 -3 52 -30 119 -20 48 -41 92 -45 97 -13 13 -60 -21 -60 -44 0 -11 -4 -20 -9 -20 -11 0 -34 56 -29 71 3 10 210 94 241 98 4 1 15 -15 23 -35z m1974 2 c51 -19 106 -47 121 -62 60 -58 57 -153 -7 -215 -33 -32 -39 -34 -102 -33 -50 1 -85 9 -136 31 -69 29 -95 53 -58 53 26 0 112 214 94 232 -11 11 -16 28 -8 28 2 0 45 -16 96 -34z m313 -132 c67 -34 66 -32 40 -52 -28 -21 -113 -192 -113 -226 0 -14 -2 -26 -5 -26 -14 0 -105 51 -105 59 0 5 7 11 15 15 25 9 116 204 109 232 -8 30 -5 30 59 -2z m-2658 -6 c-4 -16 9 -50 40 -108 25 -46 50 -89 55 -94 12 -12 67 11 84 36 8 11 12 28 9 39 -4 13 0 19 10 19 21 0 43 -76 28 -94 -6 -6 -54 -32 -108 -56 -54 -24 -120 -59 -148 -77 -53 -35 -88 -43 -79 -19 3 9 -5 22 -21 32 -24 16 -28 16 -66 -1 -35 -16 -40 -22 -34 -44 3 -14 15 -33 26 -42 20 -15 20 -16 -16 -43 -20 -15 -39 -25 -42 -22 -4 3 -8 31 -9 61 -3 58 -31 204 -46 245 -7 19 -5 27 8 37 10 7 23 13 29 13 6 0 63 -38 126 -85 109 -81 139 -95 167 -77 10 7 10 15 2 38 -22 58 -104 187 -122 192 -29 7 -21 20 30 46 61 33 84 34 77 4z m2829 -85 c51 -31 57 -38 42 -48 -14 -10 -25 -85 -12 -85 2 0 19 7 39 15 28 11 34 19 30 35 -8 29 11 25 65 -12 l46 -32 -34 -8 c-19 -5 -59 -16 -87 -25 l-53 -17 0 -66 c0 -36 5 -82 11 -103 6 -22 8 -41 5 -45 -3 -3 -31 12 -61 33 -52 35 -68 55 -45 55 6 0 10 20 10 45 0 49 -9 54 -55 33 -14 -6 -25 -19 -25 -30 0 -23 -6 -23 -58 4 -40 22 -51 43 -21 43 8 0 44 11 82 23 l67 24 0 72 c0 47 -5 79 -15 92 -13 20 -11 34 4 34 4 0 33 -16 65 -37z m-1094 -32 c272 -50 487 -124 750 -257 237 -119 444 -258 664 -445 144 -123 177 -159 170 -187 -8 -30 -14 -28 -55 14 -42 44 -264 235 -339 291 -114 86 -305 203 -447 276 -140 71 -372 171 -380 163 -2 -2 21 -17 51 -34 63 -36 207 -155 288 -238 129 -133 239 -319 273 -457 56 -234 33 -471 -68 -676 -42 -88 -131 -215 -186 -265 -33 -32 -39 -46 -17 -46 18 0 103 92 155 168 56 83 104 186 137 297 26 83 28 103 28 265 0 162 -2 182 -28 264 -15 50 -47 128 -71 176 -47 90 -187 275 -246 324 -68 57 -120 108 -116 113 7 6 207 -94 320 -161 174 -102 518 -367 546 -420 15 -27 -1 -300 -25 -414 -94 -456 -391 -826 -849 -1059 -287 -146 -573 -217 -915 -230 -269 -10 -512 25 -754 108 -313 108 -537 241 -731 434 -287 288 -415 589 -440 1032 l-7 122 29 27 c212 200 465 377 718 506 147 75 150 71 34 -43 -121 -118 -214 -239 -269 -349 -120 -238 -131 -525 -31 -791 52 -137 240 -393 268 -365 3 3 -11 25 -31 48 -146 169 -234 342 -265 522 -15 82 -13 266 3 357 19 104 73 232 142 336 77 115 243 286 355 365 50 34 98 68 107 75 17 12 -113 -34 -173 -61 -169 -78 -222 -105 -328 -167 -219 -130 -386 -254 -580 -432 -59 -55 -109 -98 -111 -96 -2 2 -6 13 -10 25 -16 51 356 355 649 531 280 169 590 289 897 348 198 38 272 44 508 40 188 -3 235 -7 380 -34z m-2230 -301 c9 -21 19 -30 36 -30 32 0 42 -21 16 -38 -16 -11 -19 -20 -15 -48 6 -38 2 -41 -32 -18 -22 14 -26 14 -47 0 -33 -24 -41 -20 -34 16 5 26 2 36 -15 49 -25 19 -18 39 14 39 16 0 26 9 34 30 6 17 16 30 21 30 5 0 15 -13 22 -30z m3660 -17 c0 -7 8 -13 18 -13 9 0 24 -4 32 -10 12 -8 12 -11 -3 -28 -9 -10 -17 -33 -17 -50 0 -35 -6 -38 -34 -17 -17 13 -22 13 -43 0 -30 -20 -42 -13 -35 20 3 18 -2 33 -17 49 -24 26 -19 36 18 36 21 0 29 7 39 33 12 31 13 31 27 13 8 -11 15 -26 15 -33z m-3015 -1983 c4 -13 15 -20 30 -20 33 0 40 -17 14 -30 -17 -9 -20 -18 -15 -41 6 -31 -10 -39 -32 -17 -9 9 -18 9 -37 0 -24 -11 -25 -10 -25 22 0 21 -6 36 -16 40 -22 8 -8 26 21 26 15 0 26 7 30 20 3 11 10 20 15 20 5 0 12 -9 15 -20z m2355 0 c6 -12 21 -20 35 -20 30 0 32 -15 5 -32 -14 -9 -18 -19 -13 -36 5 -22 4 -24 -25 -18 -18 4 -33 3 -37 -3 -12 -21 -25 -11 -25 18 0 18 -8 35 -20 44 -23 16 -16 27 18 27 15 0 26 7 29 20 3 11 9 20 14 20 4 0 13 -9 19 -20z m-215 -122 c-4 -13 -9 -46 -12 -74 -6 -56 16 -114 42 -114 28 0 15 -16 -30 -38 -53 -26 -66 -27 -59 -8 11 28 -25 74 -83 105 -31 17 -65 31 -75 31 -32 0 -19 16 30 38 56 26 62 26 62 9 0 -7 15 -21 34 -29 l34 -17 6 31 c3 18 1 37 -5 45 -13 15 -13 15 16 31 33 19 48 15 40 -10z m-1816 -32 c8 -9 9 -43 2 -117 -5 -63 -5 -111 0 -121 13 -23 3 -23 -61 4 -42 17 -49 24 -38 32 8 6 18 21 22 34 6 19 2 25 -28 37 -41 17 -82 5 -72 -21 7 -19 -10 -18 -45 3 -31 19 -33 36 -4 41 10 2 54 30 99 63 84 60 106 68 125 45z m1551 -81 c-11 -13 -8 -28 15 -88 15 -40 36 -80 47 -89 15 -14 17 -19 7 -23 -99 -35 -99 -35 -97 -12 3 30 -22 117 -33 117 -5 0 -9 -6 -9 -12 -1 -41 -21 -143 -30 -152 -7 -7 -28 8 -72 54 -56 59 -61 62 -54 35 12 -53 28 -85 42 -85 28 0 13 -28 -17 -34 -50 -10 -58 -8 -52 14 8 32 -37 190 -54 190 -29 0 -6 25 31 34 37 8 40 7 90 -43 28 -28 57 -51 63 -51 6 0 16 31 23 69 10 62 15 71 38 80 15 5 38 10 51 10 20 1 22 -1 11 -14z m-1259 -26 c51 -22 62 -45 38 -79 -9 -13 -12 -12 -22 4 -24 39 -48 56 -76 56 -45 0 -72 -29 -78 -81 -4 -39 -2 -49 18 -68 25 -23 68 -27 101 -10 26 14 34 5 20 -26 -10 -22 -18 -25 -65 -25 -146 0 -211 169 -92 238 31 18 102 14 156 -9z m248 -67 c5 -10 19 -56 31 -102 12 -47 28 -95 36 -107 22 -34 18 -36 -42 -30 -63 6 -71 11 -57 29 7 8 7 22 2 36 -7 18 -16 22 -48 22 -41 0 -56 -16 -44 -47 6 -14 1 -15 -37 -9 -25 4 -46 9 -49 11 -2 3 7 15 21 28 14 13 51 60 82 105 59 84 86 100 105 64z m645 -14 c8 -39 1 -46 -22 -25 -10 10 -35 17 -55 17 -36 0 -37 -1 -37 -35 0 -40 19 -46 59 -19 28 20 41 7 41 -43 0 -37 -6 -40 -31 -17 -11 10 -25 13 -39 9 -17 -5 -20 -13 -18 -38 3 -30 5 -32 42 -31 31 1 45 8 62 29 25 31 37 21 28 -23 -7 -33 -13 -36 -109 -47 -27 -4 -63 -9 -78 -12 -27 -5 -28 -4 -22 29 9 46 -10 189 -26 199 -20 12 -10 16 66 27 126 17 132 16 139 -20z m-337 0 c110 -24 131 -174 32 -225 -27 -14 -219 -18 -219 -5 0 4 4 12 9 17 5 6 11 52 14 103 4 75 3 94 -9 99 -7 3 -11 9 -8 15 7 11 121 8 181 -4z m-524 -264 c398 -90 863 -65 1261 67 65 22 121 38 123 35 9 -9 -60 -45 -144 -76 -202 -73 -415 -110 -665 -117 -271 -8 -490 20 -718 93 -95 30 -210 81 -210 94 0 4 55 -10 121 -32 67 -21 171 -50 232 -64z m164 -130 c60 -20 160 -59 223 -85 63 -27 120 -49 126 -49 6 0 51 17 100 39 93 40 347 131 367 131 33 0 -27 -30 -356 -175 l-108 -47 -52 20 c-65 26 -395 174 -422 190 -40 23 12 13 122 -24z"/> <path d="M2574 4764 c-6 -3 -8 -21 -5 -47 5 -33 10 -43 28 -45 30 -4 56 34 41 62 -17 33 -36 41 -64 30z"/> <path d="M2941 4702 c-17 -32 -13 -42 14 -42 28 0 30 5 11 39 -13 24 -14 24 -25 3z"/> <path d="M3987 4499 c-22 -55 -37 -103 -34 -106 3 -2 24 -7 46 -10 35 -5 44 -2 70 24 36 36 53 93 40 131 -9 25 -54 62 -76 62 -4 0 -25 -46 -46 -101z"/> <path d="M1434 4254 c3 -9 6 -22 6 -30 0 -18 24 -18 39 0 9 10 6 17 -13 30 -32 20 -40 20 -32 0z"/> <path d="M2790 4374 c-391 -46 -712 -225 -951 -534 -37 -47 -80 -108 -98 -136 -123 -201 -148 -510 -61 -735 49 -125 132 -259 203 -327 l34 -33 67 114 c36 63 66 118 66 123 0 5 -16 34 -36 63 -45 66 -85 155 -109 241 -26 90 -26 276 -1 385 125 550 729 911 1323 790 347 -72 646 -292 781 -575 124 -262 135 -516 32 -737 -21 -45 -52 -102 -69 -126 l-31 -45 66 -114 c37 -62 68 -115 70 -117 11 -13 111 108 164 200 45 75 95 211 110 295 16 92 8 306 -15 394 -60 225 -267 486 -520 654 -95 63 -148 91 -272 140 -162 65 -239 77 -493 81 -124 2 -241 1 -260 -1z"/> <path d="M2815 4004 c-87 -154 -173 -304 -190 -334 -57 -96 -328 -568 -428 -745 -53 -93 -150 -260 -216 -370 -65 -110 -116 -203 -112 -208 4 -4 90 -6 191 -5 l184 3 61 110 c34 61 74 133 89 160 16 28 67 120 114 205 47 85 142 256 212 380 70 124 152 271 184 328 31 56 61 102 66 102 9 0 45 -56 120 -190 29 -52 59 -103 65 -113 11 -15 21 -2 85 105 40 68 86 141 101 163 l27 41 -75 124 c-118 196 -216 360 -251 420 -17 30 -40 66 -50 79 l-19 23 -158 -278z"/> <path d="M3255 3288 c-82 -145 -164 -291 -184 -326 -19 -34 -39 -61 -44 -59 -6 2 -48 68 -93 147 -104 180 -102 176 -106 170 -11 -14 -138 -248 -138 -255 0 -4 29 -53 63 -108 35 -56 99 -158 141 -226 47 -74 74 -127 68 -133 -23 -23 -333 47 -434 98 -15 8 -29 14 -32 14 -5 0 -126 -214 -126 -224 0 -10 101 -52 204 -85 298 -95 709 -75 985 50 46 21 62 33 57 44 -8 23 -117 205 -121 205 -3 0 -39 -14 -81 -30 -42 -17 -104 -37 -138 -45 -75 -17 -217 -35 -228 -29 -4 3 15 42 42 87 27 45 93 160 147 254 54 95 103 173 110 173 9 0 34 -37 88 -135 7 -11 51 -87 100 -170 49 -82 113 -193 143 -245 29 -52 58 -101 64 -107 13 -17 388 -19 388 -3 0 10 -28 58 -217 370 -39 63 -123 205 -188 315 -218 371 -302 509 -312 512 -6 2 -77 -114 -158 -259z"/> <path d="M2072 1864 c-23 -16 -21 -34 3 -34 13 0 31 37 23 46 -2 2 -14 -3 -26 -12z"/> <path d="M2631 1682 c-16 -30 -14 -42 9 -42 21 0 27 24 11 49 -7 11 -11 10 -20 -7z"/> <path d="M2922 1633 l3 -88 29 2 c45 3 69 34 70 88 1 38 -4 50 -23 66 -13 10 -36 19 -52 19 l-30 0 3 -87z"/> <path d="M1485 4864 c-131 -15 -508 -17 -654 -4 -58 5 -107 7 -110 5 -2 -3 -4 -180 -2 -393 3 -461 21 -680 81 -984 75 -376 170 -658 335 -990 165 -332 351 -594 594 -839 285 -285 597 -504 1006 -704 263 -129 249 -126 362 -76 329 144 733 390 931 564 20 18 59 52 87 77 217 192 417 426 564 661 277 444 463 959 545 1505 26 168 36 386 36 790 l1 389 -83 -5 c-132 -8 -573 -6 -683 3 -55 5 -98 6 -95 3 3 -2 71 -13 150 -23 107 -13 213 -18 406 -17 l262 0 7 -195 c9 -237 -1 -620 -21 -791 -75 -653 -309 -1292 -645 -1766 -323 -455 -779 -815 -1339 -1057 -216 -93 -217 -93 -282 -69 -100 38 -331 142 -428 195 -468 251 -824 564 -1111 977 -310 446 -543 1090 -614 1700 -21 180 -37 656 -29 853 l7 158 191 -7 c123 -4 241 -2 331 5 146 13 336 38 344 46 5 6 -6 5 -144 -11z"/> </g> </svg>