<?xml version="1.0" standalone="no"?> <!DOCTYPE svg PUBLIC "-//W3C//DTD SVG 20010904//EN" "http://www.w3.org/TR/2001/REC-SVG-20010904/DTD/svg10.dtd"> <svg version="1.0" xmlns="http://www.w3.org/2000/svg" width="1800.000000pt" height="1800.000000pt" viewBox="0 0 1800.000000 1800.000000" preserveAspectRatio="xMidYMid meet"> <g transform="translate(0.000000,1800.000000) scale(0.040000,-0.040000)" fill="#071c30" stroke="none"> <path d="M0 22500 l0 -22500 22500 0 22500 0 0 22500 0 22500 -22500 0 -22500 0 0 -22500z m22615 13588 c32 -21 71 -38 86 -38 31 0 98 -60 363 -322 102 -101 186 -193 186 -205 0 -12 34 -39 75 -60 41 -22 75 -50 75 -62 0 -33 489 -526 522 -526 14 0 38 -22 53 -50 15 -27 47 -50 71 -50 24 0 92 -51 151 -112 59 -62 127 -113 151 -113 24 0 82 -44 129 -97 50 -56 143 -122 223 -156 194 -82 417 -313 252 -260 -57 18 -94 -30 -55 -69 21 -21 36 -20 58 2 17 17 55 30 86 30 31 0 68 20 82 44 23 39 34 35 111 -46 52 -54 204 -148 382 -235 205 -100 323 -175 382 -242 71 -80 101 -96 182 -96 63 0 102 -13 111 -37 19 -50 81 -49 101 1 12 32 29 24 89 -38 41 -42 88 -77 103 -79 16 -2 54 -6 84 -9 31 -3 72 -19 91 -35 20 -17 71 -34 115 -40 44 -5 94 -22 113 -37 18 -15 67 -32 108 -37 41 -5 98 -22 126 -37 28 -15 79 -27 113 -27 80 0 106 -39 48 -72 -58 -32 -42 -44 87 -65 86 -14 109 -10 122 23 14 38 19 38 59 2 24 -22 77 -44 118 -49 41 -5 141 -43 222 -84 109 -54 162 -68 203 -53 34 13 62 11 71 -5 9 -14 31 -20 48 -13 18 7 55 -4 84 -24 28 -20 120 -40 203 -45 83 -5 167 -22 186 -38 19 -15 66 -28 106 -27 152 2 309 -19 341 -46 19 -15 67 -28 107 -28 167 -1 382 -20 407 -36 34 -21 452 -41 910 -43 306 -1 347 -6 369 -46 20 -39 73 -48 372 -63 343 -18 446 -7 374 41 -18 12 -95 21 -171 19 -186 -5 -206 -2 -187 28 11 17 284 27 795 29 1056 3 1099 4 1141 31 36 23 144 30 618 38 197 4 308 -23 308 -75 0 -14 28 -36 63 -49 34 -13 62 -40 62 -59 0 -20 27 -42 61 -51 41 -10 65 -39 77 -91 9 -42 42 -93 74 -114 41 -26 62 -70 71 -143 7 -57 26 -166 41 -242 19 -91 22 -270 11 -525 -9 -213 -16 -972 -15 -1687 1 -844 -7 -1309 -23 -1329 -16 -20 -17 -47 -2 -76 36 -70 65 -874 32 -894 -15 -9 -25 -53 -23 -97 10 -195 -32 -853 -56 -882 -14 -17 -26 -97 -26 -177 1 -340 -19 -611 -46 -644 -16 -20 -29 -101 -28 -181 2 -260 -16 -457 -46 -493 -16 -19 -28 -84 -27 -144 4 -177 -23 -426 -50 -458 -14 -17 -31 -119 -38 -226 -7 -108 -24 -209 -37 -225 -14 -16 -31 -117 -38 -224 -7 -107 -20 -206 -29 -220 -8 -14 -21 -94 -27 -178 -7 -110 -23 -163 -58 -190 -31 -25 -39 -49 -25 -72 35 -57 1 -237 -54 -281 -39 -30 -48 -61 -40 -131 9 -72 1 -94 -35 -106 -39 -12 -46 -37 -41 -143 3 -82 -10 -157 -36 -204 -23 -42 -42 -111 -42 -154 0 -43 -17 -111 -37 -150 -21 -39 -38 -107 -38 -150 0 -43 -17 -111 -37 -150 -21 -39 -38 -111 -38 -160 0 -49 -12 -101 -26 -115 -14 -14 -30 -63 -36 -108 -6 -46 -22 -95 -37 -110 -14 -14 -26 -62 -26 -107 0 -45 -11 -88 -25 -96 -14 -9 -25 1 -25 22 0 51 -51 79 -75 40 -11 -17 -19 -109 -18 -204 0 -94 -7 -179 -16 -188 -9 -9 -16 -36 -16 -61 0 -24 -29 -98 -64 -164 -36 -66 -69 -153 -74 -193 -5 -40 -21 -84 -36 -99 -14 -14 -26 -52 -26 -84 0 -31 -22 -98 -48 -147 -27 -50 -42 -106 -35 -126 8 -20 -6 -58 -30 -84 -24 -27 -43 -80 -43 -118 0 -38 -11 -84 -26 -102 -14 -18 -33 -74 -41 -125 -12 -69 -28 -93 -63 -93 -33 0 -55 -25 -69 -81 -12 -44 -32 -81 -44 -81 -29 0 -62 -98 -54 -164 3 -29 -51 -164 -121 -300 -69 -137 -126 -273 -126 -302 0 -30 -17 -60 -39 -68 -21 -9 -35 -30 -32 -47 12 -56 -85 -240 -133 -252 -26 -7 -46 -35 -46 -63 0 -28 -12 -59 -27 -68 -15 -9 -23 -44 -16 -77 8 -42 -3 -69 -36 -86 -32 -17 -43 -42 -33 -73 10 -32 -2 -56 -37 -74 -30 -17 -51 -53 -51 -90 0 -34 -17 -69 -37 -77 -21 -8 -38 -42 -38 -75 0 -33 -17 -67 -37 -75 -21 -8 -38 -42 -38 -75 0 -33 -17 -67 -37 -75 -21 -8 -38 -40 -38 -71 0 -32 -17 -64 -37 -72 -22 -8 -31 -30 -21 -55 18 -47 -103 -159 -173 -160 -49 -1 -58 -52 -17 -93 27 -27 -17 -133 -56 -133 -10 0 -52 -73 -94 -162 -42 -90 -88 -163 -102 -163 -13 0 -58 -73 -98 -163 -41 -90 -120 -211 -175 -269 -56 -58 -102 -123 -102 -145 0 -58 -28 -76 -68 -44 -53 44 -129 -38 -91 -98 29 -46 -19 -181 -64 -181 -12 0 -41 -42 -65 -94 -58 -126 -109 -180 -153 -164 -57 22 -133 -66 -150 -174 -12 -70 -46 -128 -125 -205 -60 -59 -109 -128 -109 -154 -1 -84 -160 -214 -238 -194 -64 16 -67 13 -51 -59 14 -65 4 -88 -72 -162 -49 -48 -89 -101 -89 -119 0 -44 -317 -350 -363 -350 -20 0 -37 -18 -37 -39 0 -22 -73 -110 -162 -196 -90 -86 -163 -169 -163 -185 0 -16 -34 -46 -75 -67 -41 -22 -75 -55 -75 -75 0 -58 -51 -71 -87 -22 -29 39 -40 41 -68 14 -27 -28 -24 -40 17 -70 49 -36 49 -38 -22 -92 -40 -31 -171 -155 -292 -276 -125 -126 -225 -209 -235 -193 -20 33 -138 34 -138 1 0 -14 22 -25 49 -25 83 0 77 -39 -23 -136 -59 -58 -108 -87 -127 -76 -20 12 -83 -38 -177 -140 -111 -119 -164 -159 -216 -159 -59 -1 -69 -12 -69 -75 -1 -60 -15 -77 -75 -93 -41 -11 -113 -65 -159 -121 -47 -55 -107 -100 -134 -100 -27 0 -54 -21 -62 -49 -10 -39 -22 -45 -58 -25 -91 48 -129 31 -111 -51 12 -57 7 -75 -21 -75 -21 0 -61 -37 -89 -82 -29 -48 -87 -95 -139 -114 -49 -18 -101 -55 -116 -83 -17 -32 -41 -44 -67 -34 -27 10 -67 -15 -121 -76 -45 -50 -94 -84 -109 -74 -15 9 -63 -24 -106 -73 -44 -49 -98 -89 -122 -89 -23 0 -74 -32 -114 -71 -39 -39 -108 -85 -154 -103 -45 -18 -93 -54 -107 -79 -14 -26 -46 -47 -72 -47 -26 0 -81 -34 -122 -75 -41 -41 -91 -75 -110 -75 -19 0 -49 -14 -67 -31 -27 -25 -36 -25 -45 0 -16 43 -107 39 -107 -5 0 -20 20 -48 44 -62 36 -21 31 -26 -33 -26 -42 -1 -88 11 -102 25 -33 33 -109 4 -109 -41 0 -19 23 -35 50 -35 28 0 50 -10 50 -21 0 -42 -94 -105 -134 -89 -22 8 -41 3 -41 -12 0 -14 -85 -68 -189 -118 -103 -51 -200 -114 -214 -140 -16 -31 -41 -42 -72 -32 -32 10 -56 -2 -74 -37 -15 -28 -49 -51 -75 -51 -26 0 -78 -33 -116 -74 -74 -78 -110 -78 -110 0 0 27 -11 49 -24 49 -34 0 -73 -80 -68 -139 3 -34 -14 -51 -58 -57 -34 -5 -72 -25 -83 -45 -12 -21 -40 -30 -67 -21 -26 8 -55 -1 -67 -20 -39 -65 -788 -420 -823 -391 -18 15 -58 23 -90 19 -65 -10 -96 -96 -34 -96 21 0 39 -9 39 -20 0 -11 -102 -21 -226 -22 -220 -3 -225 -1 -209 51 10 29 34 66 55 81 41 30 21 85 -31 85 -19 0 -40 -17 -48 -37 -8 -21 -30 -38 -50 -38 -20 0 -42 -17 -50 -38 -20 -53 -84 -46 -116 13 -15 28 -49 50 -76 50 -45 0 -87 17 -199 79 -21 11 -74 37 -119 57 -44 20 -81 49 -81 65 0 17 -18 23 -41 14 -22 -9 -55 -4 -73 11 -41 35 -367 199 -394 199 -12 0 -55 34 -96 75 -41 41 -96 75 -122 75 -26 0 -60 23 -75 51 -18 35 -42 47 -74 36 -31 -9 -55 1 -72 32 -21 39 -353 221 -484 265 -24 8 -44 26 -44 40 0 14 -27 26 -61 26 -77 0 -104 39 -48 70 65 37 -68 116 -163 97 -59 -12 -84 1 -149 74 -45 50 -90 80 -106 70 -17 -10 -65 22 -114 75 -46 50 -95 85 -109 76 -14 -8 -60 19 -102 61 -42 43 -99 77 -126 77 -27 0 -55 17 -63 38 -8 20 -41 37 -73 37 -76 0 -99 40 -43 75 33 21 36 31 12 42 -18 7 -85 53 -148 101 -64 49 -145 90 -180 92 -36 2 -97 34 -137 72 -40 37 -89 68 -110 68 -21 0 -81 45 -133 100 -52 55 -107 100 -121 100 -42 0 -30 79 18 117 38 30 29 32 -76 18 -107 -14 -125 -9 -180 50 -33 36 -81 65 -106 65 -25 0 -93 51 -152 113 -70 74 -126 112 -168 112 -34 0 -62 11 -62 25 0 14 17 25 38 25 20 0 37 22 37 50 0 33 -17 50 -50 50 -28 0 -50 -17 -50 -37 0 -21 -11 -38 -25 -38 -14 0 -25 8 -25 19 -1 45 -399 431 -445 431 -30 0 -174 130 -380 344 -216 224 -349 344 -382 344 -37 0 -58 22 -72 77 -14 54 -142 196 -421 466 -220 214 -400 404 -400 423 0 19 -51 80 -112 134 -107 94 -143 162 -88 162 14 0 25 13 25 28 0 16 -23 22 -55 14 -63 -17 -219 117 -220 188 0 24 -23 55 -50 70 -28 15 -50 41 -50 57 0 28 -76 102 -175 171 -21 14 -26 31 -12 37 107 47 106 110 -2 110 -67 0 -77 24 -31 70 23 23 23 37 -2 61 -25 25 -38 23 -63 -12 -30 -40 -36 -39 -86 14 -30 32 -54 77 -54 101 0 24 -52 92 -115 152 -70 66 -104 115 -87 125 40 25 33 66 -27 164 -30 49 -58 74 -64 56 -22 -61 -84 -35 -68 29 12 49 2 67 -56 94 -40 19 -91 77 -117 134 -26 54 -69 114 -96 133 -27 19 -42 50 -34 71 8 23 -16 64 -61 103 -41 36 -75 89 -76 117 -1 28 -34 78 -75 112 -60 50 -74 80 -74 166 0 94 -10 111 -88 157 -48 28 -87 67 -87 86 0 56 -125 275 -178 312 -32 22 -44 51 -34 81 10 31 -3 55 -38 74 -36 19 -48 43 -37 75 10 32 -2 56 -38 75 -36 19 -48 43 -38 75 11 32 -1 56 -38 75 -33 18 -47 43 -38 68 9 24 -5 53 -37 75 -46 33 -48 40 -12 66 32 23 35 50 19 129 -24 115 -65 131 -76 30 -9 -74 -55 -70 -55 5 0 25 -17 60 -38 77 -21 18 -32 52 -24 77 10 30 -3 54 -38 73 -36 19 -48 43 -37 75 10 32 -2 56 -36 74 -31 17 -50 49 -47 84 5 52 -166 430 -205 454 -10 6 -15 84 -12 172 5 148 2 159 -44 147 -44 -12 -46 -8 -16 39 41 67 4 108 -41 46 -32 -43 -37 -40 -78 50 -24 53 -46 128 -49 167 -3 39 -25 92 -48 118 -24 26 -37 62 -30 81 12 33 -71 231 -125 298 -15 18 -26 64 -26 102 0 38 -19 91 -43 118 -24 26 -38 64 -31 83 8 20 -2 66 -21 104 -20 37 -29 95 -21 128 12 46 -9 93 -83 192 -97 128 -110 164 -156 438 -12 73 -35 148 -51 167 -15 19 -33 71 -38 115 -6 44 -28 100 -50 124 -26 28 -34 65 -23 107 10 40 0 96 -26 147 -23 45 -46 115 -52 155 -5 39 -27 92 -49 116 -27 30 -34 65 -22 112 13 53 6 78 -30 104 -33 25 -49 71 -53 153 -3 65 -7 129 -10 143 -2 13 5 67 15 118 15 76 11 94 -20 94 -73 0 -142 135 -142 280 0 73 -15 156 -34 183 -21 31 -34 118 -34 230 0 117 -12 195 -34 222 -20 24 -35 101 -35 186 0 97 -14 159 -41 190 -30 34 -41 95 -40 227 0 119 -12 195 -35 223 -23 28 -35 112 -36 261 -1 145 -13 232 -35 260 -24 28 -35 130 -38 338 -3 180 -16 311 -34 332 -15 19 -34 123 -41 231 -8 124 -27 211 -51 238 -34 37 -34 45 0 73 49 41 48 87 -2 164 -38 57 -38 67 3 128 39 61 39 68 2 89 -22 12 -40 49 -40 82 0 32 -12 63 -26 68 -18 6 -31 878 -42 2789 l-15 2780 68 63 c37 35 77 63 88 63 54 0 227 204 227 266 0 43 31 96 88 152 l87 85 388 9 c363 9 389 6 413 -39 25 -47 48 -48 516 -32 446 16 493 13 522 -26 46 -63 1671 -62 1741 2 40 36 96 39 457 25 396 -16 412 -15 438 34 25 46 49 50 286 43 222 -6 265 0 309 40 45 39 77 43 238 28 177 -16 189 -14 217 38 28 52 42 55 189 40 145 -15 161 -12 187 37 23 44 43 50 114 37 60 -12 108 -3 160 28 71 42 76 42 109 -4 33 -45 36 -45 123 8 48 30 94 72 102 92 9 24 49 37 113 37 64 0 103 13 112 38 8 20 36 37 62 37 26 0 63 18 81 39 23 28 56 35 114 25 66 -13 87 -6 110 37 23 44 43 51 112 38 70 -13 89 -6 113 37 23 44 43 51 112 38 69 -13 89 -6 112 36 19 36 43 48 75 38 32 -11 56 1 75 37 19 36 43 48 75 38 32 -11 56 1 76 39 26 49 33 50 68 15 53 -54 223 29 235 114 7 47 25 57 105 59 64 2 106 17 121 45 15 27 41 37 70 27 32 -10 56 2 75 38 19 36 43 48 75 38 32 -11 56 1 75 37 19 36 43 48 75 38 32 -11 56 1 75 37 19 35 43 48 73 38 32 -10 62 11 105 74 71 104 87 108 107 26 9 -35 27 -63 41 -63 14 0 36 28 49 63 13 34 35 62 48 62 13 0 27 31 32 69 5 50 22 69 62 71 30 2 89 41 131 86 41 46 84 76 93 66 10 -10 42 6 73 34 47 44 57 46 70 13 24 -64 87 -45 96 28 6 52 26 72 88 88 45 12 92 42 106 69 14 26 66 60 114 76 63 21 87 43 82 73 -9 53 150 218 199 207 49 -11 559 508 543 551 -16 40 80 135 149 148 28 5 56 36 64 71 10 43 32 63 70 63 33 0 93 43 153 110 172 193 436 267 592 165z"/> <path d="M22320 35567 c-142 -244 -590 -716 -1089 -1147 -321 -278 -991 -735 -1431 -977 -152 -84 -813 -414 -950 -475 -192 -86 -318 -138 -437 -182 -69 -26 -154 -61 -188 -79 -34 -17 -75 -32 -91 -32 -16 0 -61 -17 -100 -37 -39 -21 -89 -38 -110 -38 -22 0 -50 -10 -63 -22 -13 -12 -108 -47 -211 -77 -103 -30 -210 -64 -237 -77 -55 -24 -107 -39 -538 -153 -323 -86 -529 -130 -875 -185 -631 -102 -789 -121 -1499 -189 -636 -60 -2632 -12 -3151 76 -76 13 -199 31 -275 39 -76 8 -192 27 -258 42 -74 17 -130 18 -144 4 -14 -14 -29 -787 -37 -1859 -16 -2225 43 -3670 199 -4824 81 -600 94 -693 117 -800 13 -62 35 -197 47 -300 23 -187 76 -486 123 -700 14 -62 44 -208 66 -325 47 -243 103 -492 143 -637 15 -55 35 -145 46 -200 22 -116 60 -269 115 -463 21 -76 55 -199 76 -275 21 -76 52 -182 69 -237 17 -55 50 -162 73 -238 60 -202 206 -653 234 -725 14 -34 44 -124 67 -200 24 -76 59 -180 78 -231 20 -52 53 -139 74 -194 72 -195 110 -291 239 -612 72 -179 144 -359 160 -400 16 -42 44 -109 62 -150 19 -42 67 -149 106 -238 175 -392 222 -491 473 -987 319 -633 345 -681 614 -1125 417 -692 647 -1031 1081 -1595 241 -313 299 -384 594 -730 94 -110 199 -234 233 -275 79 -95 1050 -1067 1200 -1200 98 -88 364 -320 550 -480 476 -408 1411 -1119 1787 -1358 32 -21 170 -112 305 -202 310 -208 584 -384 633 -407 21 -9 71 -39 113 -66 41 -27 97 -61 125 -75 27 -14 83 -48 125 -75 41 -27 97 -61 125 -75 27 -14 83 -48 125 -75 41 -27 91 -57 112 -67 21 -10 92 -49 158 -88 158 -93 490 -273 980 -531 82 -44 178 -98 212 -120 143 -93 256 -68 600 135 103 62 440 244 600 326 62 32 191 103 288 159 96 56 191 110 212 120 45 22 55 27 471 279 433 261 396 239 554 337 507 319 1811 1247 1913 1363 13 16 75 67 137 114 513 388 1428 1240 2001 1863 193 209 216 236 447 510 75 89 143 168 151 175 13 12 361 453 475 603 118 155 451 627 451 639 0 7 32 54 71 104 60 78 200 293 292 448 14 24 56 91 94 149 37 58 68 111 68 118 0 7 49 94 110 194 162 271 291 512 511 958 263 530 382 785 542 1156 20 45 51 118 71 163 19 44 54 131 79 193 24 62 58 146 75 188 18 41 47 108 64 150 55 128 98 243 160 425 53 155 94 263 161 425 25 59 146 417 177 525 34 115 123 412 160 537 19 62 54 180 77 263 23 82 59 206 78 275 20 68 54 198 75 287 21 89 55 230 75 313 21 82 46 195 58 250 11 55 32 150 47 212 15 62 45 203 67 313 22 110 57 278 76 375 20 96 53 270 73 387 179 1038 272 1829 342 2913 39 598 44 5131 6 5183 -24 33 -43 34 -128 9 -130 -39 -438 -74 -1393 -157 -439 -38 -2001 -40 -2316 -2 -129 15 -358 39 -509 52 -152 13 -377 43 -500 65 -124 22 -321 56 -438 75 -290 48 -533 99 -712 148 -83 23 -201 52 -262 65 -121 26 -133 30 -538 165 -152 51 -326 108 -388 127 -62 20 -130 45 -151 56 -21 11 -74 28 -118 37 -44 10 -87 28 -95 41 -8 13 -31 23 -51 23 -21 0 -91 23 -155 52 -65 28 -151 66 -192 84 -310 133 -508 228 -1013 490 -714 370 -1511 955 -2075 1523 -340 343 -370 378 -547 638 -65 97 -135 178 -155 182 -21 3 -74 -59 -128 -152z m282 -386 c149 -191 587 -636 808 -820 81 -68 160 -135 175 -150 65 -61 543 -411 715 -523 103 -67 261 -169 351 -228 260 -170 695 -396 1387 -723 313 -148 1066 -423 1537 -561 103 -30 216 -65 250 -78 34 -13 113 -33 175 -46 62 -13 191 -42 288 -65 511 -122 1204 -230 1862 -291 385 -35 2068 -35 2538 0 390 29 976 89 1151 118 176 28 166 166 153 -2119 -12 -2004 -32 -2722 -89 -3183 -15 -123 -40 -348 -55 -499 -50 -493 -41 -430 -160 -1163 -19 -117 -42 -263 -50 -325 -8 -62 -25 -146 -37 -187 -12 -42 -41 -165 -64 -275 -117 -562 -157 -729 -216 -900 -14 -42 -34 -115 -44 -163 -10 -48 -31 -127 -45 -175 -15 -48 -47 -155 -70 -237 -57 -199 -98 -331 -136 -438 -17 -48 -40 -121 -51 -162 -31 -115 -109 -333 -265 -744 -22 -59 -55 -146 -73 -194 -273 -745 -832 -1936 -1166 -2487 -25 -42 -54 -92 -63 -113 -20 -40 -294 -513 -334 -575 -13 -21 -34 -60 -47 -87 -100 -217 -912 -1360 -1207 -1698 -71 -81 -170 -199 -221 -262 -555 -700 -1685 -1754 -2699 -2519 -199 -150 -391 -292 -425 -315 -34 -23 -111 -76 -170 -118 -59 -42 -112 -76 -118 -76 -6 0 -76 -48 -156 -106 -79 -59 -166 -120 -194 -136 -72 -44 -504 -313 -583 -364 -36 -24 -83 -51 -104 -61 -20 -10 -144 -81 -275 -159 -131 -77 -254 -148 -275 -158 -21 -9 -139 -72 -262 -140 -124 -67 -344 -179 -488 -250 -144 -70 -279 -138 -300 -150 -58 -36 -394 -195 -712 -338 -83 -37 -196 -89 -252 -115 -135 -63 -136 -63 -371 49 -111 54 -304 145 -427 203 -402 190 -970 473 -1200 599 -124 67 -277 151 -339 185 -240 129 -494 277 -686 398 -61 38 -236 146 -293 180 -151 90 -413 262 -595 390 -117 82 -286 199 -377 260 -90 61 -191 137 -225 169 -82 79 -264 219 -284 219 -10 0 -70 44 -134 99 -65 54 -268 224 -451 377 -637 530 -1420 1306 -1928 1912 -58 68 -134 158 -169 200 -35 41 -130 159 -210 262 -80 103 -199 255 -264 338 -65 82 -202 273 -305 425 -103 151 -218 321 -257 378 -39 57 -71 110 -71 118 0 7 -34 64 -75 125 -41 61 -75 117 -75 125 0 7 -34 64 -75 125 -41 61 -75 117 -75 125 0 9 -43 86 -96 172 -121 199 -249 431 -436 794 -81 158 -163 316 -182 350 -36 68 -317 663 -375 794 -91 205 -320 763 -373 906 -18 48 -50 133 -71 188 -94 243 -175 474 -193 546 -18 74 -36 127 -112 341 -17 48 -51 155 -76 238 -24 82 -57 195 -74 250 -32 105 -86 293 -152 531 -22 79 -56 194 -75 256 -19 62 -35 139 -35 170 0 32 -11 79 -25 105 -14 26 -36 113 -48 192 -13 80 -34 191 -48 246 -46 183 -100 472 -141 750 -22 151 -51 325 -65 387 -13 62 -35 214 -48 338 -42 401 -76 672 -101 816 -14 78 -37 386 -51 686 -14 299 -30 551 -36 560 -5 9 -11 938 -13 2064 l-4 2049 96 -4 c53 -2 248 -22 434 -44 1652 -202 3894 -106 5225 223 89 22 219 52 288 66 68 14 135 35 148 48 13 13 44 23 68 23 24 0 92 15 151 34 59 18 192 58 295 89 103 31 210 66 238 79 27 12 106 40 175 62 68 23 158 56 200 75 41 19 181 74 312 123 274 103 242 88 863 391 433 211 713 369 1163 655 171 109 684 482 749 544 21 19 128 111 238 203 241 202 708 679 829 848 48 67 97 122 108 122 11 0 80 -76 152 -169z"/> <path d="M22292 34056 c-165 -206 -331 -363 -642 -608 -261 -205 -585 -446 -654 -485 -24 -14 -148 -89 -276 -168 -446 -272 -914 -512 -1407 -720 -138 -58 -261 -115 -274 -127 -13 -13 -49 -23 -80 -23 -31 0 -63 -11 -71 -24 -8 -13 -51 -35 -95 -48 -44 -13 -142 -48 -218 -78 -76 -30 -166 -63 -200 -75 -34 -12 -124 -46 -200 -75 -76 -30 -171 -64 -212 -75 -105 -29 -242 -77 -297 -105 -25 -13 -177 -67 -337 -121 -399 -133 -455 -152 -545 -191 -44 -18 -99 -33 -123 -33 -39 0 -156 -30 -398 -101 -42 -12 -126 -29 -188 -38 -62 -9 -168 -32 -236 -51 -68 -19 -158 -35 -200 -35 -42 0 -155 -16 -251 -36 -483 -100 -1901 -184 -2562 -151 -228 11 -475 21 -551 22 l-137 3 0 -1038 c1 -1055 33 -1792 100 -2288 20 -151 37 -343 38 -425 0 -82 17 -223 36 -312 20 -89 37 -219 38 -287 0 -69 17 -193 37 -275 20 -83 36 -190 37 -238 0 -48 17 -166 37 -262 36 -169 101 -558 124 -738 17 -136 129 -588 181 -732 19 -52 34 -122 34 -155 0 -34 16 -98 35 -143 32 -77 70 -213 116 -420 10 -48 31 -121 45 -162 14 -42 45 -143 68 -225 24 -83 57 -190 74 -238 18 -48 72 -211 121 -362 49 -152 113 -337 142 -413 29 -76 62 -166 74 -200 76 -224 320 -802 352 -836 13 -13 23 -39 23 -58 0 -19 50 -137 110 -264 61 -126 135 -280 164 -342 99 -206 369 -724 415 -793 26 -38 74 -120 107 -182 34 -62 74 -135 89 -163 46 -84 557 -840 671 -992 59 -78 162 -219 230 -313 69 -93 139 -185 158 -204 18 -18 125 -148 237 -287 218 -271 1166 -1234 1457 -1481 325 -276 504 -418 687 -544 48 -33 116 -84 150 -113 73 -61 100 -81 155 -115 23 -14 123 -82 224 -150 101 -69 202 -136 226 -150 23 -14 180 -109 349 -211 169 -103 336 -202 370 -221 35 -19 137 -74 226 -123 540 -295 1297 -657 1875 -895 158 -65 333 -135 388 -155 55 -20 131 -53 170 -72 91 -46 194 -46 284 0 113 58 251 114 279 114 13 0 57 16 96 36 39 20 211 94 383 166 489 202 1190 537 1538 735 82 47 200 111 262 142 114 57 574 332 996 595 128 80 316 209 418 286 102 77 191 140 198 140 7 0 122 92 257 203 134 112 294 245 355 294 385 312 1298 1256 1655 1710 371 473 689 904 784 1063 14 24 73 114 131 201 58 86 106 166 106 176 0 11 33 63 74 117 41 54 75 107 75 116 1 10 51 100 111 200 106 176 335 599 436 808 152 316 263 559 378 837 71 172 144 346 162 388 18 41 50 120 71 175 20 55 56 147 78 206 91 241 163 447 190 544 12 41 48 153 81 250 33 96 81 242 105 325 25 82 61 192 80 244 18 52 34 113 34 137 0 23 33 149 73 280 39 131 91 312 114 401 23 89 57 220 77 290 20 70 36 147 36 171 0 24 16 79 35 123 20 43 54 197 76 341 23 144 57 364 77 488 105 663 162 1091 188 1419 12 149 29 281 38 295 15 24 48 643 72 1336 6 178 15 752 19 1275 l8 950 -138 -8 c-1045 -61 -2598 28 -3475 199 -76 15 -188 35 -250 45 -127 21 -309 66 -473 117 -61 19 -133 34 -159 34 -26 0 -83 15 -127 33 -87 37 -436 158 -553 192 -96 28 -286 95 -350 124 -28 12 -124 46 -213 75 -165 53 -190 63 -357 135 -52 23 -107 41 -121 41 -15 0 -62 15 -106 34 -43 19 -129 54 -191 77 -62 24 -146 58 -187 76 -42 18 -177 75 -300 126 -461 190 -820 367 -1338 655 -34 19 -96 56 -137 82 -42 25 -120 71 -175 101 -55 30 -140 86 -188 123 -48 38 -165 122 -259 186 -341 232 -779 606 -976 834 -111 127 -209 231 -220 231 -10 0 -79 -76 -153 -169z m433 -794 c318 -266 578 -458 925 -683 172 -111 324 -211 339 -222 32 -24 125 -74 436 -238 131 -68 255 -140 277 -159 22 -19 53 -35 69 -35 16 0 29 -12 29 -26 0 -48 -77 -56 -170 -17 -51 22 -131 54 -178 72 -92 36 -443 212 -689 345 -316 171 -974 627 -1188 822 -110 101 -135 99 -260 -15 -148 -134 -310 -261 -400 -314 -43 -26 -89 -60 -102 -77 -81 -97 -1152 -692 -1310 -727 -42 -9 -84 -27 -92 -40 -8 -13 -33 -23 -56 -23 -23 0 -74 -17 -112 -37 -65 -33 -143 -29 -143 9 0 9 22 27 48 41 617 316 1358 767 1615 982 27 24 129 104 225 179 96 75 236 195 311 267 112 108 144 126 175 102 21 -16 134 -109 251 -206z m825 -1336 c320 -23 625 -59 963 -114 123 -20 270 -41 325 -47 135 -14 555 -85 613 -103 26 -8 101 -25 167 -37 222 -42 668 -150 870 -211 204 -61 469 -140 550 -163 41 -12 136 -46 212 -76 76 -30 171 -64 213 -75 94 -27 433 -145 500 -175 50 -23 240 -98 425 -168 143 -55 178 -69 394 -168 107 -49 200 -89 208 -89 28 0 1128 -557 1285 -650 89 -54 177 -98 194 -99 17 0 31 -11 31 -24 0 -12 31 -34 69 -48 38 -14 155 -80 260 -146 106 -66 292 -182 413 -256 198 -122 533 -346 674 -450 29 -22 78 -56 109 -77 343 -231 575 -431 575 -494 -1 -144 -34 -149 -204 -31 -87 60 -164 118 -171 127 -7 9 -139 103 -294 207 -154 105 -402 273 -550 373 -598 406 -1624 987 -2231 1264 -89 41 -264 122 -387 179 -124 58 -282 127 -350 153 -69 27 -148 59 -175 71 -157 71 -242 104 -388 152 -89 29 -185 63 -212 75 -28 12 -124 46 -213 75 -89 29 -185 63 -212 75 -70 31 -319 110 -513 161 -89 24 -190 54 -224 67 -33 13 -106 34 -162 45 -56 12 -180 40 -276 63 -247 59 -451 104 -625 137 -83 15 -205 40 -272 55 -131 29 -280 52 -616 94 -117 15 -291 39 -387 53 -710 106 -2657 106 -3425 -1 -523 -72 -1242 -196 -1525 -261 -97 -23 -227 -51 -291 -63 -119 -23 -243 -53 -459 -114 -69 -19 -193 -53 -275 -76 -402 -110 -1298 -419 -1349 -465 -13 -12 -40 -21 -59 -21 -35 0 -86 -21 -367 -151 -83 -38 -207 -94 -275 -125 -445 -196 -558 -252 -1350 -670 -456 -240 -1431 -863 -2000 -1278 -408 -296 -439 -315 -464 -274 -33 51 -28 128 12 181 50 66 761 588 975 715 56 33 107 68 114 77 7 9 91 64 188 122 96 58 197 119 224 136 27 16 140 87 250 157 110 71 279 170 376 222 96 51 186 102 200 113 13 11 131 75 262 143 131 68 260 136 288 152 27 15 168 83 312 151 597 280 758 351 1050 464 131 51 283 110 338 132 271 106 438 165 612 219 76 24 177 58 225 77 48 18 149 51 225 73 76 21 239 68 363 104 123 36 264 74 312 85 91 20 241 56 475 114 324 81 803 160 1813 300 565 79 1811 96 2637 37z m-1125 -701 c28 -27 50 -68 50 -90 0 -22 16 -70 35 -106 52 -100 152 -325 215 -479 30 -76 73 -182 96 -237 67 -168 206 -390 250 -404 23 -7 58 -22 79 -33 103 -55 224 108 225 304 0 37 15 143 34 237 89 441 104 615 56 644 -181 109 -149 148 106 127 318 -27 303 -13 440 -433 133 -411 208 -594 233 -569 9 9 45 66 80 127 35 61 147 246 248 412 208 336 176 320 491 263 110 -20 202 -37 206 -37 33 -5 -7 -82 -51 -99 -86 -33 -106 -71 -149 -289 -152 -760 -158 -892 -44 -950 117 -61 93 -94 -56 -81 -149 13 -491 65 -537 81 -48 16 -13 74 62 103 71 26 128 199 168 509 8 62 27 161 42 219 31 119 17 154 -42 106 -50 -42 -287 -404 -359 -550 -213 -428 -289 -456 -363 -131 -25 106 -76 300 -115 431 -38 131 -77 267 -85 303 -14 63 -81 114 -110 85 -8 -7 -19 -194 -25 -414 l-12 -401 79 -30 c49 -18 77 -44 72 -68 -9 -41 -480 -41 -532 1 -15 12 -40 13 -56 3 -17 -11 -174 -17 -349 -14 -303 5 -320 8 -327 58 -6 37 10 59 56 76 65 25 88 108 39 139 -14 8 -25 34 -25 57 -1 98 -38 112 -279 113 l-233 1 -44 -86 c-67 -131 -58 -196 32 -227 58 -20 75 -40 69 -80 -7 -48 -24 -54 -170 -55 -89 -1 -310 -11 -489 -21 -261 -16 -335 -13 -364 14 -21 18 -156 149 -302 290 -358 348 -412 322 -272 -131 40 -130 55 -152 113 -159 37 -4 74 -25 82 -47 26 -66 -65 -107 -242 -108 -90 -1 -207 -17 -260 -36 -53 -19 -112 -28 -131 -21 -59 23 -40 107 30 134 60 23 64 34 54 143 -14 152 -62 449 -107 656 -19 89 -42 199 -51 244 -19 102 -71 156 -150 156 -48 0 -61 13 -61 60 0 73 40 90 209 90 72 0 195 17 274 38 186 48 596 49 687 2 146 -76 193 -156 192 -327 0 -172 -35 -235 -168 -304 -96 -49 -87 -88 49 -200 66 -53 136 -113 157 -134 84 -82 241 -194 296 -211 153 -48 189 -3 408 511 116 273 212 483 261 579 19 36 35 81 35 100 0 18 22 70 50 115 57 94 127 104 200 31z m-2875 -337 c0 -36 -22 -76 -50 -94 -63 -39 -63 -101 -2 -300 27 -86 67 -216 89 -289 74 -244 79 -510 13 -621 -107 -178 -279 -278 -516 -301 -420 -40 -543 63 -695 580 -25 82 -59 189 -77 237 -19 48 -40 120 -49 159 -22 102 -86 191 -138 191 -24 0 -58 17 -75 38 -43 51 9 112 97 112 36 0 159 29 273 66 243 77 302 60 211 -63 -61 -83 -53 -135 96 -592 40 -124 73 -243 73 -265 0 -21 40 -79 89 -130 153 -158 456 -109 537 87 39 92 -5 302 -139 672 -18 48 -51 141 -74 206 -34 95 -54 119 -100 119 -31 0 -71 17 -88 38 -52 62 10 102 213 137 104 18 195 42 202 54 31 50 110 21 110 -41z m6131 -24 c73 -38 305 -103 494 -139 186 -35 510 -125 533 -148 41 -41 -69 -364 -127 -372 -43 -7 -58 11 -80 89 -33 126 -79 165 -269 229 -196 66 -222 65 -242 -4 -80 -280 -88 -329 -62 -361 42 -50 343 -44 400 8 25 22 62 33 84 25 41 -15 53 -129 16 -152 -12 -7 -30 -55 -39 -105 -36 -189 -152 -277 -180 -135 -17 82 -80 133 -234 186 l-104 35 -45 -105 c-25 -58 -53 -164 -63 -235 l-18 -131 93 -39 c52 -21 169 -45 261 -53 160 -13 171 -10 232 56 126 136 184 36 89 -154 -107 -216 -95 -215 -712 -20 -155 50 -335 98 -401 107 -147 21 -158 73 -28 134 87 41 95 56 181 338 50 162 106 345 125 407 69 219 76 368 19 398 -66 35 -95 126 -50 155 44 28 47 28 127 -14z m-7821 -451 c22 -34 40 -76 40 -93 0 -18 17 -65 38 -104 61 -119 -45 -172 -119 -60 -32 48 -58 56 -169 53 -246 -8 -245 -14 36 -646 31 -69 77 -175 103 -235 70 -163 129 -228 210 -228 38 0 84 -17 100 -37 36 -42 43 -38 -311 -166 -124 -44 -239 -91 -256 -104 -17 -13 -49 -17 -71 -8 -46 17 -26 115 30 147 61 36 17 179 -221 718 -21 48 -59 138 -84 200 -69 174 -91 190 -191 143 -126 -60 -190 -143 -199 -255 -10 -124 -84 -156 -111 -48 -10 38 -33 98 -51 133 -49 94 -44 225 10 243 24 7 66 23 94 34 27 12 168 61 312 110 144 50 364 129 488 176 271 105 271 105 322 27z m9345 0 c68 -35 140 -63 160 -63 20 0 55 -11 79 -25 24 -13 127 -52 228 -87 244 -82 434 -227 519 -394 231 -457 -153 -1070 -669 -1069 -120 1 -260 43 -472 143 -76 36 -171 73 -212 84 -42 10 -115 33 -163 50 -48 17 -102 34 -119 39 -17 4 -31 37 -31 74 0 57 9 64 62 54 105 -20 131 18 276 406 17 48 58 149 89 225 161 395 175 463 100 487 -51 16 -86 79 -63 115 23 38 84 26 216 -39z m1723 -713 c92 -55 179 -100 193 -100 45 0 179 -87 171 -111 -4 -13 -44 -34 -89 -45 -101 -26 -171 -132 -407 -617 -156 -318 -175 -373 -164 -468 15 -138 -25 -179 -110 -112 -33 26 -125 75 -205 108 -229 97 -308 195 -157 195 84 0 117 48 339 486 246 485 275 571 217 635 -43 48 -33 129 16 129 15 0 103 -45 196 -100z m-12816 51 c8 -14 -10 -59 -41 -101 -44 -60 -51 -87 -30 -120 14 -23 92 -166 172 -317 342 -649 340 -647 580 -527 186 94 217 139 212 315 -4 153 9 170 94 124 31 -16 61 -87 91 -211 55 -233 56 -232 -289 -394 -442 -207 -788 -381 -797 -401 -4 -11 -21 -19 -37 -19 -16 0 -114 -56 -217 -124 -250 -166 -287 -166 -276 1 3 47 -19 82 -79 127 -136 103 -161 103 -323 8 -82 -48 -159 -87 -171 -87 -38 0 -46 -65 -24 -187 28 -149 59 -188 151 -188 91 0 95 -56 9 -118 -35 -24 -114 -82 -176 -127 -76 -57 -128 -78 -161 -67 -52 16 -68 98 -25 125 33 20 32 256 -1 448 -72 416 -135 725 -185 902 l-42 150 70 56 c93 74 155 71 245 -13 41 -38 170 -138 287 -223 118 -85 253 -187 301 -227 245 -202 447 -312 566 -310 167 3 249 101 187 223 -12 24 -46 94 -76 156 -30 62 -64 129 -77 150 -13 21 -97 164 -188 318 -163 280 -173 290 -324 313 -28 4 -54 29 -58 57 -5 40 33 67 213 147 121 53 242 112 269 131 57 40 129 44 150 10z m13691 -509 c230 -155 303 -242 202 -242 -102 0 -115 -61 -82 -406 3 -34 91 -20 198 32 57 28 132 61 165 73 53 21 58 34 46 125 -12 90 -8 101 38 101 28 0 55 -9 59 -20 5 -11 84 -70 177 -130 230 -150 224 -209 -23 -213 -71 -2 -172 -21 -225 -43 -52 -22 -161 -60 -240 -83 -80 -24 -150 -52 -157 -63 -35 -58 38 -745 92 -855 46 -96 50 -122 23 -154 -34 -41 -101 -53 -101 -19 0 25 -283 233 -393 289 -80 41 -92 116 -18 116 57 0 86 88 86 259 0 275 -36 295 -287 156 -130 -72 -150 -93 -150 -155 0 -85 -89 -114 -159 -51 -23 20 -101 67 -174 104 -171 85 -180 173 -17 176 55 1 201 36 325 78 123 42 264 86 312 99 87 23 88 24 95 179 12 258 -32 576 -92 657 -148 199 -4 194 300 -10z m-6603 6 c713 -46 1642 -198 2213 -364 68 -20 186 -54 262 -76 76 -22 183 -53 238 -70 55 -17 167 -51 250 -76 82 -24 189 -58 237 -76 48 -18 189 -68 313 -112 123 -43 260 -94 303 -114 44 -19 86 -35 95 -35 15 0 109 -43 564 -257 570 -268 1147 -572 1370 -721 59 -40 113 -72 119 -72 6 0 58 -34 115 -75 57 -41 112 -75 122 -75 10 0 144 -84 297 -187 154 -104 286 -188 293 -188 84 0 1613 -1243 2040 -1659 185 -180 216 -278 125 -389 -43 -52 -45 -51 -364 266 -176 176 -395 384 -487 462 -92 79 -196 170 -230 202 -95 87 -594 492 -750 607 -247 182 -308 225 -632 445 -176 119 -326 216 -334 216 -8 0 -55 32 -105 72 -51 40 -140 99 -199 131 -59 33 -127 71 -150 85 -120 70 -335 193 -480 273 -166 91 -820 414 -839 414 -6 0 -87 35 -180 77 -268 123 -299 136 -681 294 -199 82 -385 155 -412 161 -28 7 -72 21 -99 32 -45 19 -46 17 -8 -37 34 -49 296 -227 334 -227 44 0 520 -351 760 -560 859 -749 1547 -1663 1799 -2390 31 -89 66 -185 77 -212 34 -79 96 -358 126 -563 14 -103 37 -255 49 -337 30 -199 29 -781 -2 -1000 -71 -499 -117 -707 -223 -1013 -221 -641 -676 -1376 -1111 -1796 -168 -162 -202 -242 -131 -301 64 -54 172 35 469 384 46 55 104 122 127 148 68 75 242 334 380 565 309 516 480 959 592 1538 14 68 36 181 50 250 40 191 56 922 27 1175 -44 372 -77 591 -103 672 -13 43 -49 162 -80 265 -30 103 -65 198 -76 211 -11 13 -20 40 -20 59 0 70 -229 545 -364 755 -57 89 -133 209 -168 265 -35 56 -79 118 -97 137 -19 20 -95 114 -170 210 -75 96 -165 209 -200 250 -127 151 -549 554 -746 713 -212 171 -257 237 -136 201 71 -22 498 -240 719 -366 69 -40 171 -94 225 -121 118 -58 894 -516 912 -539 7 -8 58 -42 113 -76 55 -33 111 -68 125 -79 113 -87 638 -467 690 -500 36 -23 81 -56 100 -75 19 -18 181 -150 360 -293 336 -270 604 -499 767 -655 l95 -91 -2 -397 c0 -218 -12 -492 -24 -609 -13 -117 -30 -302 -37 -412 -14 -205 -61 -484 -128 -750 -92 -365 -116 -456 -146 -538 -73 -205 -93 -267 -111 -337 -34 -133 -330 -752 -495 -1034 -59 -101 -107 -187 -107 -192 0 -19 -285 -424 -445 -633 -273 -358 -836 -932 -1130 -1153 -62 -47 -124 -97 -137 -113 -22 -24 -131 -102 -513 -370 -226 -158 -383 -255 -537 -332 -42 -21 -109 -59 -150 -86 -179 -114 -1065 -528 -1288 -601 -34 -11 -124 -44 -200 -73 -358 -138 -988 -318 -1325 -378 -62 -11 -169 -31 -237 -45 -221 -44 -592 -100 -926 -141 -448 -56 -1933 -55 -2220 0 -108 21 -243 38 -300 38 -58 0 -148 12 -200 27 -53 15 -171 36 -263 48 -230 30 -420 74 -1154 268 -76 20 -169 52 -208 72 -39 19 -90 35 -113 36 -23 0 -63 17 -90 37 -27 20 -69 37 -93 37 -24 0 -87 18 -139 40 -187 80 -246 104 -357 148 -62 24 -180 75 -262 112 -83 37 -201 89 -263 114 -62 26 -152 70 -200 100 -48 29 -177 102 -287 161 -110 60 -234 129 -275 154 -42 25 -92 53 -113 63 -49 23 -449 294 -639 433 -474 346 -1261 1134 -1536 1538 -34 51 -82 110 -106 132 -24 23 -44 51 -44 63 0 12 -31 63 -69 114 -77 102 -119 167 -156 241 -14 27 -47 83 -73 125 -27 41 -138 255 -248 475 -235 468 -356 818 -538 1550 -86 341 -166 1187 -166 1740 0 368 -27 322 413 700 904 777 1519 1225 2375 1729 27 16 100 60 162 97 172 104 407 231 736 397 165 83 311 160 325 171 15 12 52 27 84 35 99 24 54 -37 -170 -233 -682 -594 -1225 -1279 -1537 -1936 -155 -330 -154 -325 -213 -513 -88 -278 -96 -309 -123 -458 -14 -80 -32 -155 -39 -166 -8 -12 -31 -206 -53 -430 -90 -930 84 -1845 502 -2635 166 -315 403 -703 464 -761 7 -7 58 -70 113 -140 214 -272 493 -556 534 -542 43 15 102 79 102 112 0 12 -91 114 -203 227 -240 243 -582 690 -704 918 -213 399 -243 458 -243 477 0 11 -34 92 -75 182 -41 89 -75 174 -75 189 0 15 -11 47 -24 71 -100 184 -251 1072 -251 1476 0 428 134 1226 251 1493 12 27 61 146 108 264 136 336 333 673 560 961 11 13 75 98 143 187 286 377 854 956 1213 1235 117 91 229 179 249 196 37 32 110 78 174 110 19 10 109 66 200 126 90 59 179 108 196 108 17 0 31 17 31 38 0 48 -121 49 -217 2 -80 -40 -108 -52 -420 -178 -238 -96 -274 -111 -544 -235 -93 -42 -175 -77 -181 -77 -24 0 -753 -368 -883 -446 -73 -43 -138 -79 -144 -79 -7 0 -60 -31 -118 -68 -154 -100 -200 -127 -255 -153 -28 -13 -93 -53 -145 -89 -53 -36 -99 -65 -103 -65 -19 0 -811 -538 -952 -646 -222 -170 -660 -524 -777 -627 -56 -49 -135 -116 -175 -149 -79 -65 -294 -266 -707 -660 -143 -137 -268 -238 -278 -227 -11 12 -27 68 -35 125 -14 93 -7 115 65 201 78 92 352 355 504 484 40 34 90 79 112 100 22 22 113 101 202 175 89 75 205 175 257 222 52 47 121 103 154 125 33 22 193 141 356 265 163 123 364 269 447 324 82 55 161 109 175 120 31 25 403 272 459 305 22 13 115 72 207 131 91 59 172 107 180 107 8 0 56 29 109 65 52 36 117 75 145 88 27 12 89 47 137 76 141 86 1098 561 1275 633 197 79 241 97 338 139 122 54 238 97 437 162 103 34 210 72 238 84 27 13 123 42 212 65 89 24 202 58 250 76 48 18 155 50 238 73 82 22 200 55 262 74 153 46 559 135 975 214 820 155 1811 208 2750 149z m-9545 -1600 c23 -47 43 -111 44 -142 1 -52 13 -56 150 -56 85 0 156 -12 166 -29 18 -29 -101 -154 -166 -176 -31 -10 -12 -142 41 -279 29 -77 -61 -73 -169 7 -131 96 -127 96 -260 -13 l-110 -90 -28 62 c-23 49 -20 80 15 152 53 113 41 146 -80 209 -152 79 -131 141 54 157 141 12 150 16 165 88 50 225 104 259 178 110z m17769 -41 c41 -162 64 -184 173 -168 58 9 107 2 137 -20 44 -33 43 -38 -28 -96 -41 -33 -95 -73 -121 -88 -43 -26 -44 -36 -13 -113 93 -231 58 -274 -118 -147 -57 41 -116 75 -132 75 -15 0 -66 -34 -113 -75 -146 -128 -236 -81 -146 75 64 113 47 193 -49 239 -193 91 -178 143 44 161 l155 13 25 100 c52 208 139 228 186 44z m-14624 -9673 c0 -75 91 -130 195 -117 54 8 105 3 113 -10 22 -36 -10 -132 -44 -132 -17 0 -56 -27 -87 -60 -53 -57 -54 -64 -16 -136 93 -181 17 -234 -145 -101 l-95 79 -72 -54 c-100 -74 -174 -70 -174 8 0 34 11 68 25 77 47 29 27 134 -31 165 -148 78 -131 172 32 172 119 0 129 5 161 81 18 45 42 90 52 100 25 24 86 -27 86 -72z m11450 -9 c12 -87 13 -88 156 -95 182 -9 198 -71 44 -167 -115 -73 -111 -62 -63 -154 73 -139 11 -193 -124 -109 l-81 50 -72 -56 c-40 -30 -76 -64 -81 -75 -15 -36 -76 -19 -90 25 -7 25 -3 84 11 131 35 121 35 121 -62 178 -142 84 -125 172 32 172 131 0 180 31 180 113 0 128 131 117 150 -13z m-978 -490 c6 -5 -20 -78 -57 -164 -83 -190 -131 -506 -91 -596 79 -177 138 -245 221 -255 114 -13 96 -83 -37 -147 -66 -31 -175 -90 -241 -131 -142 -87 -194 -67 -144 54 27 65 22 89 -44 221 -74 147 -76 148 -367 292 -191 94 -312 140 -347 131 -144 -36 -144 101 0 144 40 12 143 55 228 97 172 83 232 80 215 -11 -10 -49 7 -69 96 -116 60 -31 127 -69 149 -84 84 -58 122 -7 122 164 0 138 -8 165 -56 198 -50 34 -52 43 -19 77 105 108 313 179 372 126z m-8881 -238 c45 -37 44 -238 -5 -705 -39 -371 -39 -376 12 -445 107 -144 40 -193 -127 -95 -68 40 -134 73 -147 73 -14 0 -44 10 -68 22 -24 13 -76 36 -116 52 -78 31 -69 57 39 111 46 23 60 52 66 143 7 112 5 116 -88 157 -52 24 -126 60 -165 81 -107 59 -247 -39 -237 -166 10 -117 -27 -114 -236 22 -193 124 -210 169 -75 191 153 24 448 205 830 508 140 112 227 125 317 51z m7529 -352 c23 -23 20 -40 -13 -76 -50 -55 -23 -175 123 -544 114 -289 136 -325 206 -325 58 0 106 -62 67 -86 -58 -36 -507 -169 -521 -154 -9 9 -3 53 13 99 20 55 23 107 8 156 -13 40 -48 155 -79 256 -88 287 -141 281 -175 -18 -81 -693 -72 -653 -146 -653 -25 0 -148 118 -280 267 -371 421 -423 453 -347 214 97 -305 175 -450 250 -465 166 -33 41 -139 -208 -176 -129 -20 -180 23 -118 98 37 44 24 152 -51 400 -28 96 -62 222 -75 280 -32 152 -92 257 -147 257 -25 0 -59 16 -75 35 -39 47 -4 69 173 107 249 54 237 60 544 -258 155 -160 289 -284 299 -274 9 9 25 75 36 147 98 691 62 604 276 681 189 69 202 70 240 32z m-6324 -110 c78 -22 217 -76 310 -119 157 -73 169 -84 169 -158 0 -44 -11 -87 -25 -95 -14 -9 -25 -42 -25 -74 0 -67 -60 -126 -101 -101 -15 10 -49 66 -74 124 -76 178 -161 238 -336 238 -245 0 -414 -186 -414 -455 0 -288 337 -465 597 -316 175 101 237 -16 91 -173 -128 -138 -530 -99 -756 74 -584 446 -149 1258 564 1055z m1409 -410 c23 -48 60 -161 82 -250 22 -89 57 -215 77 -278 20 -64 36 -139 36 -167 0 -103 103 -324 165 -352 41 -18 60 -47 60 -92 0 -75 -23 -76 -406 -10 -195 33 -231 62 -155 125 27 22 36 67 31 146 l-7 113 -163 31 c-233 44 -240 43 -301 -55 -46 -75 -51 -100 -27 -152 46 -101 36 -116 -66 -98 -51 9 -138 22 -193 30 -178 26 -204 106 -54 169 46 19 121 93 179 175 55 78 176 246 271 372 94 127 182 258 195 292 53 137 210 137 276 1z m3115 69 c46 -56 46 -274 0 -303 -32 -20 -55 -8 -107 54 -64 75 -77 80 -237 80 -213 0 -238 -24 -215 -210 10 -76 32 -141 50 -148 56 -22 237 31 289 83 107 107 175 28 175 -202 0 -152 -50 -186 -127 -88 -44 56 -71 65 -188 65 -166 0 -179 -21 -130 -219 l35 -143 178 1 c196 2 230 19 323 166 87 138 134 106 134 -92 0 -204 -13 -213 -355 -242 -156 -13 -365 -39 -467 -58 -250 -46 -310 -20 -202 88 101 101 -1 857 -132 979 -94 89 -71 120 89 120 71 0 197 12 280 27 143 26 415 62 528 69 29 2 65 -10 79 -27z m-1660 -122 c565 -99 691 -792 203 -1110 -107 -70 -1003 -92 -1029 -25 -9 25 5 60 38 90 50 47 53 74 53 477 0 419 -1 428 -63 501 -34 41 -57 84 -49 95 16 27 655 6 847 -28z m4225 -793 c7 -12 -19 -45 -58 -74 -79 -58 -539 -280 -581 -280 -14 0 -61 -16 -105 -34 -132 -58 -339 -125 -753 -242 -146 -41 -403 -97 -613 -134 -117 -20 -314 -54 -437 -76 -1243 -219 -3146 -143 -4294 172 -79 21 -203 55 -275 74 -144 37 -539 168 -657 217 -198 81 -263 110 -431 191 -202 98 -249 175 -87 145 51 -10 105 -26 119 -37 13 -11 109 -44 212 -74 103 -31 210 -65 238 -77 48 -21 278 -88 562 -165 76 -20 171 -46 213 -58 68 -20 375 -88 700 -155 211 -43 633 -89 1387 -149 719 -58 1993 30 2775 191 103 21 241 48 307 61 65 12 155 33 200 47 44 14 154 44 243 67 266 68 509 138 563 161 27 12 117 41 200 64 137 40 243 80 412 155 77 34 143 38 160 10z m-6366 -977 c24 -12 176 -65 339 -117 162 -52 300 -104 307 -115 7 -11 29 -20 49 -20 35 0 413 -140 577 -215 44 -19 89 -35 102 -35 13 0 93 -34 178 -75 85 -41 169 -75 187 -75 18 0 43 -10 56 -23 13 -12 94 -52 180 -88 l157 -65 406 172 c223 95 462 193 531 218 68 24 136 53 150 63 13 10 64 29 112 43 85 25 248 82 762 266 245 87 363 109 363 69 0 -22 -137 -130 -164 -130 -16 0 -38 -10 -348 -150 -97 -44 -226 -100 -288 -125 -62 -25 -146 -63 -187 -85 -42 -22 -85 -40 -96 -40 -11 0 -84 -29 -162 -64 -79 -35 -176 -78 -217 -97 -42 -18 -151 -68 -244 -111 -92 -43 -174 -78 -180 -78 -7 0 -95 -38 -195 -84 -100 -46 -198 -89 -218 -96 -19 -6 -183 56 -362 137 -180 81 -450 201 -601 267 -258 111 -459 199 -575 251 -28 12 -107 46 -175 75 -69 29 -159 68 -200 87 -42 19 -120 53 -175 75 -55 22 -117 51 -138 64 -21 13 -63 35 -95 49 -32 14 -51 36 -43 50 20 31 149 33 207 2z"/> <path d="M20353 30891 c-20 -24 -21 -71 -3 -166 14 -72 25 -169 25 -215 0 -110 63 -145 183 -103 195 68 261 198 193 378 -45 118 -326 193 -398 106z"/> <path d="M22151 30577 c-31 -96 -49 -186 -40 -200 27 -43 288 -34 305 9 15 42 -102 315 -148 344 -53 34 -61 24 -117 -153z"/> <path d="M27392 29994 c-39 -116 -72 -202 -143 -381 -11 -28 -61 -139 -111 -248 -108 -234 -106 -259 25 -305 350 -121 628 55 724 460 57 239 -21 401 -265 550 -142 87 -179 75 -230 -76z"/> <path d="M14825 28523 c0 -65 74 -328 100 -356 21 -23 275 101 275 134 0 31 -305 274 -343 274 -18 0 -32 -24 -32 -52z"/> <path d="M21563 29013 c-220 -17 -479 -44 -575 -61 -414 -74 -718 -148 -883 -218 -45 -18 -103 -34 -129 -34 -27 0 -54 -10 -62 -23 -8 -13 -51 -31 -96 -41 -44 -9 -154 -51 -243 -92 -167 -76 -284 -128 -350 -154 -21 -9 -71 -36 -112 -61 -42 -25 -154 -88 -250 -140 -97 -53 -235 -136 -309 -186 -73 -50 -152 -102 -174 -115 -368 -225 -928 -732 -1362 -1234 -173 -200 -618 -808 -618 -844 0 -8 -32 -63 -71 -120 -74 -111 -197 -357 -230 -464 -11 -35 -49 -141 -85 -236 -35 -95 -64 -195 -64 -223 0 -27 -16 -107 -36 -177 -116 -412 -154 -1161 -76 -1527 20 -97 37 -200 37 -229 0 -29 18 -114 40 -187 93 -315 136 -450 157 -491 13 -24 42 -94 66 -156 167 -434 462 -907 853 -1367 238 -280 231 -283 487 217 31 62 87 158 123 213 37 55 88 139 114 186 26 48 78 131 116 185 95 136 89 172 -68 377 -182 238 -538 938 -538 1059 0 20 -17 88 -37 152 -162 511 -162 1439 0 2016 19 68 40 153 47 187 12 66 143 445 184 534 367 798 895 1449 1619 1996 342 258 1063 643 1400 746 96 29 195 64 219 77 25 13 93 34 150 47 274 59 362 80 443 105 48 16 166 36 263 47 96 11 276 33 400 49 251 34 1106 17 1275 -25 55 -14 146 -25 203 -25 57 -1 158 -17 225 -36 67 -20 178 -49 247 -64 244 -56 302 -73 550 -163 137 -50 271 -98 298 -106 213 -67 930 -485 1252 -730 363 -277 1057 -1034 1170 -1277 10 -21 41 -76 69 -123 273 -452 542 -1201 601 -1677 83 -658 32 -1415 -118 -1770 -19 -45 -35 -98 -35 -119 0 -20 -10 -56 -23 -80 -12 -24 -82 -167 -154 -318 -73 -152 -203 -370 -290 -486 -168 -222 -186 -284 -112 -380 79 -103 392 -625 502 -841 59 -113 119 -206 134 -206 54 0 631 699 701 850 10 21 39 71 66 113 80 124 301 581 301 621 0 21 10 44 21 51 21 13 97 231 166 478 144 515 171 1377 61 1937 -44 229 -162 653 -211 763 -263 586 -429 842 -956 1475 -265 317 -815 832 -1106 1033 -62 43 -174 123 -250 177 -379 273 -1072 630 -1484 764 -98 32 -207 69 -241 83 -124 48 -317 101 -512 141 -110 23 -243 53 -295 66 -316 84 -1651 118 -2405 61z"/> <path d="M22331 28569 c-15 -17 -76 -127 -137 -244 -131 -251 -173 -325 -384 -682 -88 -148 -160 -275 -160 -284 0 -13 -185 -335 -251 -434 -13 -21 -32 -54 -41 -75 -10 -21 -67 -122 -128 -225 -61 -103 -151 -261 -200 -350 -49 -89 -109 -196 -134 -237 -25 -42 -53 -92 -63 -113 -9 -21 -67 -122 -128 -225 -61 -103 -151 -261 -200 -350 -49 -89 -109 -196 -134 -237 -25 -42 -54 -92 -63 -113 -10 -21 -134 -232 -275 -470 -142 -238 -258 -436 -258 -442 0 -5 -49 -91 -108 -192 -59 -101 -116 -200 -126 -221 -10 -21 -32 -60 -48 -87 -17 -28 -92 -157 -168 -288 -76 -131 -151 -260 -168 -287 -16 -28 -42 -73 -56 -100 -15 -28 -49 -84 -75 -125 -27 -42 -79 -132 -115 -200 -75 -144 -108 -201 -166 -288 -52 -79 -186 -314 -234 -412 -21 -42 -59 -109 -85 -150 -26 -42 -78 -132 -116 -200 -123 -224 -137 -250 -186 -325 -27 -42 -56 -92 -66 -113 -10 -21 -100 -176 -200 -346 -101 -170 -183 -315 -183 -323 0 -8 -15 -32 -34 -54 -19 -22 -65 -96 -103 -164 -123 -224 -488 -823 -567 -930 -122 -165 -94 -192 173 -168 120 11 533 19 917 18 384 -2 718 4 743 13 24 9 100 125 168 258 115 224 204 387 345 634 31 55 69 122 83 150 14 27 47 83 74 125 26 41 77 131 113 200 36 68 85 158 109 200 25 41 88 153 141 250 52 96 120 214 150 262 30 48 104 178 163 288 60 110 130 239 157 287 27 48 106 194 174 325 184 349 295 551 361 656 32 51 58 99 58 105 0 7 48 94 107 195 60 100 116 198 126 219 10 21 39 71 66 113 26 41 69 114 96 162 26 48 107 194 180 325 73 131 167 299 208 375 42 76 102 179 134 231 32 51 58 98 58 104 0 6 49 93 108 194 105 178 217 402 267 532 41 110 119 83 190 -67 34 -72 73 -148 86 -169 58 -91 249 -428 249 -438 0 -6 43 -82 95 -168 53 -86 156 -277 231 -425 75 -148 148 -269 163 -269 34 0 111 81 111 116 0 13 84 169 188 346 103 176 187 325 187 330 0 5 31 57 68 115 37 58 89 145 115 193 27 48 100 164 164 257 206 301 199 259 72 445 -62 90 -148 228 -191 306 -44 78 -108 184 -144 236 -35 51 -74 118 -85 148 -12 30 -83 149 -159 265 -75 116 -161 255 -190 308 -30 54 -75 131 -101 173 -27 41 -60 97 -74 125 -14 27 -48 83 -75 125 -27 41 -61 97 -75 125 -14 27 -48 83 -75 125 -27 41 -61 97 -75 125 -13 27 -36 66 -50 87 -36 54 -238 406 -258 450 -10 21 -39 71 -66 113 -27 41 -67 111 -90 155 -55 109 -97 141 -130 101z"/> <path d="M23236 28073 c-9 -14 8 -33 36 -40 29 -8 53 -24 53 -36 0 -12 17 -22 39 -22 33 0 32 9 -7 62 -48 66 -94 80 -121 36z"/> <path d="M23450 28020 c0 -97 265 -638 330 -673 25 -13 45 -45 45 -71 0 -26 34 -81 75 -122 83 -83 94 -132 38 -179 -21 -17 -38 -41 -38 -53 0 -38 76 -24 91 17 17 44 134 -45 134 -102 0 -53 127 -273 183 -317 48 -37 50 -49 22 -95 -46 -75 32 -258 100 -236 34 11 45 1 45 -44 1 -38 30 -77 90 -115 59 -39 84 -71 74 -96 -8 -21 31 -131 86 -243 55 -113 100 -225 100 -249 0 -24 46 -88 102 -141 89 -84 100 -108 87 -171 -15 -64 -8 -76 46 -90 65 -16 265 -189 265 -229 0 -52 214 -442 255 -464 25 -13 45 -44 45 -69 0 -25 31 -78 68 -118 37 -40 65 -86 61 -104 -3 -17 31 -67 76 -111 45 -44 79 -97 74 -118 -5 -20 7 -49 27 -63 69 -52 196 -344 165 -381 -21 -26 -19 -44 9 -77 21 -24 44 -63 53 -87 17 -49 56 -58 80 -19 28 46 68 26 54 -28 -19 -73 32 -172 88 -172 26 0 53 -20 61 -44 64 -189 305 -506 385 -506 39 0 97 77 83 111 -23 61 89 102 129 47 43 -59 82 -21 42 43 -16 26 -30 71 -30 99 0 28 -17 50 -37 50 -56 0 -46 44 13 63 36 11 47 30 36 62 -9 29 1 55 26 69 52 29 63 1958 11 2020 -16 19 -33 77 -38 129 -21 233 -39 285 -95 277 -40 -6 -52 5 -49 42 4 42 -69 215 -141 338 -12 21 -48 94 -79 162 -32 69 -100 165 -152 215 -102 97 -117 141 -57 164 81 31 42 109 -55 109 -84 0 -115 23 -331 242 -182 186 -237 256 -231 300 7 56 -23 72 -115 60 -17 -2 -38 13 -47 34 -8 22 -39 39 -69 39 -30 0 -82 33 -116 74 -34 41 -85 74 -113 75 -28 1 -78 34 -112 75 -34 41 -83 74 -109 75 -26 1 -86 41 -133 89 -47 48 -97 81 -111 72 -13 -8 -47 9 -74 38 -28 29 -61 46 -75 37 -14 -8 -48 8 -74 37 -37 39 -67 48 -123 37 -55 -11 -78 -5 -90 25 -8 23 -42 41 -74 41 -34 0 -71 22 -87 52 -22 41 -42 48 -103 35 -58 -13 -86 -5 -123 35 -36 38 -67 48 -121 37 -56 -11 -78 -3 -100 37 -24 45 -43 50 -152 37 -101 -12 -127 -7 -140 26 -9 25 -44 41 -88 41 -64 0 -72 -8 -72 -80z"/> <path d="M21040 27984 c-13 -32 -40 -38 -130 -28 -91 11 -122 4 -160 -36 -35 -38 -64 -46 -121 -33 -61 13 -81 6 -103 -35 -16 -30 -53 -52 -87 -52 -32 0 -65 -17 -73 -37 -8 -21 -42 -38 -75 -38 -33 0 -68 -18 -76 -41 -12 -30 -35 -36 -90 -25 -62 12 -88 0 -161 -75 -47 -49 -97 -82 -109 -74 -13 7 -44 -9 -69 -36 -25 -28 -60 -45 -78 -38 -18 7 -70 -27 -116 -74 -47 -48 -103 -87 -125 -87 -43 0 -217 -161 -217 -201 0 -41 -25 -27 -101 56 -57 63 -80 74 -104 50 -23 -23 -20 -37 15 -63 42 -30 42 -36 5 -73 -22 -22 -40 -54 -40 -70 0 -35 -398 -435 -436 -439 -84 -8 -117 -45 -110 -123 6 -69 -12 -100 -119 -204 -87 -86 -161 -197 -243 -366 -65 -133 -141 -256 -168 -273 -58 -36 -66 -119 -11 -119 20 0 37 -11 37 -24 0 -14 -32 -18 -71 -10 -85 17 -134 -58 -69 -105 41 -30 28 -99 -49 -273 -19 -42 -41 -129 -50 -195 -9 -65 -27 -125 -39 -132 -31 -20 -28 -1379 3 -1398 14 -9 25 -41 25 -71 0 -30 17 -87 38 -126 20 -39 37 -88 37 -109 0 -20 15 -72 34 -116 18 -43 48 -123 66 -178 29 -89 146 -238 188 -238 64 0 337 372 337 461 0 15 35 58 77 96 43 37 80 82 83 99 23 129 49 155 144 146 37 -4 39 7 15 83 -22 71 -19 99 15 150 22 35 41 80 41 101 0 20 20 48 45 61 42 23 179 262 181 316 0 13 34 57 75 97 41 41 74 94 74 119 0 25 17 46 38 46 23 0 44 31 53 76 12 59 25 72 62 60 32 -10 52 0 63 31 9 25 34 66 56 91 36 42 36 48 -4 70 -63 36 -53 91 32 176 41 41 75 92 75 112 0 21 34 72 75 113 41 41 75 96 75 121 0 26 10 53 23 61 28 17 127 219 127 259 0 15 20 39 45 52 45 24 180 265 180 321 0 17 23 42 50 57 29 15 50 52 50 87 0 33 11 67 25 76 14 8 25 36 25 62 0 26 16 57 35 68 19 11 39 48 44 82 7 52 20 61 77 54 73 -8 77 0 70 138 -3 58 10 87 48 108 37 19 49 43 39 75 -10 31 0 55 31 72 42 22 255 410 256 466 1 43 122 142 151 124 19 -12 26 3 20 42 -8 65 79 171 142 171 20 0 37 22 37 50 0 27 -11 50 -25 50 -48 0 -26 123 27 151 34 18 46 42 36 69 -10 25 5 56 39 81 39 30 49 56 37 95 -22 70 -224 80 -249 13z"/> <path d="M15188 25825 c-23 -37 8 -75 60 -75 51 0 110 58 85 84 -25 25 -128 19 -145 -9z"/> <path d="M15076 25624 c-34 -41 -82 -74 -108 -74 -25 0 -75 -34 -110 -76 -36 -42 -80 -71 -98 -64 -19 7 -146 -100 -301 -255 -147 -147 -285 -268 -306 -268 -94 0 -106 -97 -98 -827 6 -534 16 -712 41 -742 18 -22 35 -91 39 -153 3 -63 24 -134 46 -158 29 -33 35 -78 26 -177 -12 -120 -9 -134 39 -147 41 -11 50 -27 39 -72 -19 -76 9 -161 54 -161 22 0 36 -26 37 -69 0 -38 17 -97 37 -131 19 -34 36 -93 36 -130 1 -37 12 -74 26 -82 14 -9 25 -41 25 -71 0 -30 34 -121 75 -202 41 -81 75 -168 75 -194 0 -25 11 -46 24 -46 14 0 66 -85 116 -189 51 -103 113 -199 139 -213 25 -14 46 -45 46 -70 0 -24 33 -77 74 -118 41 -40 75 -92 75 -115 1 -24 87 -128 193 -233 171 -170 186 -191 137 -204 -30 -7 -54 -23 -54 -34 0 -31 127 -124 169 -124 46 0 447 -400 435 -435 -4 -14 12 -40 35 -57 29 -21 37 -49 26 -94 -9 -35 -13 -64 -9 -64 4 0 43 10 88 23 69 20 85 16 107 -25 33 -62 88 -61 142 2 24 28 58 50 76 50 22 0 27 20 16 65 -11 41 -5 73 15 85 24 15 21 34 -15 83 -50 67 -144 105 -190 77 -18 -12 -22 3 -11 47 16 63 -49 116 -119 97 -38 -11 -142 104 -128 142 9 22 -34 79 -112 149 -90 80 -122 125 -112 157 9 29 -3 54 -37 72 -28 15 -51 49 -51 75 0 26 -34 82 -77 124 -42 42 -69 89 -60 103 10 15 -24 64 -74 109 -61 54 -86 94 -76 121 10 26 -3 50 -37 69 -37 19 -49 43 -38 75 10 32 -2 56 -39 75 -32 18 -47 44 -39 66 13 34 -83 274 -128 319 -10 10 -20 51 -22 92 -3 40 -19 91 -37 113 -21 25 -33 113 -34 239 -1 161 -10 206 -45 232 -24 18 -44 52 -44 77 0 24 -17 56 -37 72 -32 23 -37 158 -36 928 1 495 0 949 -2 1009 -2 98 8 119 87 184 60 49 85 88 76 117 -7 23 3 64 24 91 49 65 47 173 -4 252 -41 62 -40 66 16 108 46 35 55 58 41 113 -12 47 -5 82 20 111 21 23 42 80 45 127 10 113 -47 123 -129 24z"/> <path d="M29662 25674 c-23 -37 9 -152 55 -204 21 -23 31 -52 23 -65 -20 -34 57 -280 112 -358 26 -36 41 -71 34 -78 -7 -6 6 -106 27 -222 22 -115 40 -229 40 -253 0 -24 20 -55 45 -68 66 -35 54 -1713 -13 -1714 -49 0 -92 -99 -71 -166 8 -27 -6 -72 -35 -109 -39 -49 -50 -102 -50 -239 0 -118 -13 -195 -39 -236 -22 -33 -40 -83 -40 -111 0 -28 -23 -93 -50 -144 -27 -52 -50 -112 -50 -134 0 -22 -35 -109 -77 -194 -42 -84 -69 -165 -60 -179 29 -48 -94 -149 -182 -150 -55 0 -81 -12 -81 -37 0 -21 22 -38 48 -38 96 0 90 -99 -10 -189 -56 -50 -86 -94 -75 -112 11 -18 -19 -63 -75 -113 -54 -47 -86 -95 -75 -111 10 -17 -30 -74 -96 -137 -62 -59 -117 -135 -121 -167 -6 -38 -24 -57 -53 -55 -26 2 -60 -26 -82 -69 -40 -77 -86 -96 -86 -34 0 20 -11 37 -25 37 -14 0 -25 -25 -25 -55 0 -30 -28 -84 -63 -120 -55 -57 -60 -80 -46 -181 22 -167 102 -185 197 -44 54 81 87 96 87 39 0 -52 47 -73 88 -39 23 19 30 55 20 103 -17 84 69 190 144 177 50 -8 223 178 223 241 0 63 108 161 141 128 17 -17 51 -12 106 16 79 39 80 42 36 90 -43 48 -43 51 1 83 25 19 38 46 29 61 -10 16 50 94 135 178 84 83 152 172 152 198 0 26 16 57 36 68 63 35 189 230 189 292 0 42 18 64 61 75 67 17 94 76 94 206 0 59 15 93 49 111 32 17 43 42 34 73 -11 32 1 56 38 76 44 23 51 43 38 112 -13 69 -6 89 37 113 33 17 47 42 38 67 -8 22 3 59 25 83 23 26 41 95 44 165 4 96 13 122 47 122 69 0 103 49 60 85 -32 26 -26 41 43 102 69 62 75 78 48 117 -59 86 -62 110 -17 159 26 30 47 97 51 164 4 62 21 131 39 152 24 30 30 213 26 812 -5 829 -16 896 -136 896 -30 0 -144 95 -285 236 -137 138 -249 232 -269 224 -18 -7 -62 22 -98 64 -35 42 -85 76 -110 76 -26 0 -74 33 -108 74 -64 77 -110 94 -137 50z"/> <path d="M24431 25044 c-14 -17 -76 -127 -137 -244 -105 -198 -169 -315 -311 -562 -32 -55 -65 -117 -75 -138 -10 -21 -83 -148 -163 -283 -80 -135 -145 -251 -145 -257 0 -6 -31 -59 -68 -117 -37 -58 -111 -188 -163 -288 -52 -100 -121 -224 -152 -275 -32 -51 -66 -109 -75 -130 -10 -21 -73 -127 -140 -237 -67 -110 -164 -285 -214 -388 -164 -333 -193 -342 -310 -93 -47 99 -134 262 -194 363 -60 100 -109 187 -109 193 0 6 -65 121 -144 255 -79 135 -183 326 -231 425 -126 260 -169 242 -337 -143 -27 -62 -159 -299 -294 -527 -134 -228 -244 -429 -244 -448 0 -18 45 -93 100 -165 55 -73 100 -139 100 -146 0 -8 49 -84 108 -171 59 -87 115 -174 125 -194 10 -20 37 -66 61 -102 43 -66 471 -760 519 -842 13 -24 81 -126 150 -227 248 -364 248 -364 227 -418 -11 -28 -33 -36 -72 -25 -30 8 -134 27 -230 41 -605 87 -923 153 -1175 242 -97 33 -209 70 -250 80 -98 25 -421 177 -440 206 -8 13 -45 25 -83 28 -74 6 -88 -13 -289 -394 -81 -155 -138 -255 -244 -426 -204 -332 -209 -309 93 -424 62 -24 134 -55 161 -69 26 -14 77 -34 112 -45 36 -11 126 -45 202 -74 76 -30 171 -64 213 -75 41 -11 108 -32 150 -46 224 -77 669 -179 778 -179 39 0 156 -19 259 -41 437 -96 1699 -53 2338 80 96 20 195 36 221 36 26 0 99 16 163 36 63 20 183 55 266 79 82 23 195 58 250 79 55 20 139 51 187 69 127 46 482 189 523 210 93 46 85 90 -53 304 -75 116 -144 227 -154 248 -9 21 -56 105 -104 188 -48 82 -116 209 -152 281 -76 157 -78 157 -348 31 -117 -55 -225 -100 -240 -100 -15 0 -57 -15 -93 -34 -98 -51 -491 -157 -704 -191 -62 -9 -180 -30 -262 -45 -153 -28 -520 -84 -588 -90 -42 -3 -68 108 -31 132 26 17 187 245 214 303 10 21 40 71 67 113 27 41 57 91 67 112 10 21 50 84 88 141 39 57 70 110 70 117 0 7 68 127 150 267 83 140 150 258 150 262 0 5 65 119 145 254 80 136 154 263 164 284 120 249 290 539 319 545 23 4 68 -57 122 -163 47 -93 151 -279 230 -414 80 -134 145 -250 145 -257 0 -8 50 -90 111 -184 61 -93 135 -214 164 -267 29 -54 63 -114 76 -135 105 -168 850 -1439 899 -1533 34 -67 82 -159 106 -206 58 -112 18 -108 1088 -117 1073 -9 1016 -25 815 235 -64 83 -142 198 -173 255 -32 57 -85 154 -119 216 -34 62 -135 231 -225 375 -211 339 -513 838 -551 908 -16 30 -61 103 -99 162 -38 58 -92 148 -120 200 -28 51 -72 126 -98 168 -27 41 -56 91 -66 112 -10 21 -235 401 -500 846 -266 444 -483 812 -483 817 0 5 -31 58 -69 117 -119 186 -131 206 -157 267 -14 33 -50 94 -81 137 -60 84 -77 112 -161 264 -30 55 -86 149 -124 207 -103 160 -115 180 -182 312 -82 159 -209 358 -229 358 -9 0 -27 -14 -41 -31z"/> <path d="M22344 24056 c-38 -5 -113 -49 -167 -97 -90 -81 -96 -94 -72 -161 13 -40 35 -73 47 -73 13 0 23 -23 23 -52 0 -28 33 -79 74 -113 44 -38 68 -77 59 -99 -14 -37 273 -336 322 -336 12 0 39 38 58 85 28 67 47 83 87 72 40 -10 56 4 78 65 29 85 46 94 92 48 23 -23 30 -23 30 1 0 50 -78 154 -115 154 -19 0 -35 23 -35 51 0 28 -19 58 -41 66 -83 32 -310 275 -295 315 19 49 -53 85 -145 74z"/> <path d="M20655 21154 c-97 -86 -96 -182 2 -288 54 -58 79 -68 140 -54 60 13 80 6 103 -37 45 -85 106 -18 85 94 -12 60 -6 93 17 107 19 12 26 29 17 39 -10 9 -33 4 -52 -11 -39 -33 -67 -14 -67 47 0 44 -107 174 -144 174 -12 0 -58 -32 -101 -71z"/> <path d="M24061 21034 c-135 -168 -132 -209 17 -209 75 0 114 16 161 66 76 82 76 107 1 178 -79 74 -93 72 -179 -35z"/> <path d="M19267 18783 c-34 -34 -15 -58 46 -58 38 0 62 -14 62 -37 0 -59 -78 -45 -153 28 -85 81 -136 66 -187 -56 -35 -83 -41 -87 -70 -46 -45 60 -121 29 -110 -45 7 -49 -5 -58 -92 -65 -57 -4 -110 -24 -122 -46 -16 -29 -58 -36 -187 -29 -139 7 -167 2 -174 -33 -6 -30 12 -45 62 -50 56 -7 73 -24 84 -83 12 -69 20 -75 105 -68 71 5 97 -5 119 -45 19 -36 43 -48 75 -38 30 10 55 -1 71 -29 17 -30 55 -44 121 -45 87 0 98 -8 120 -84 l25 -84 156 14 c140 11 160 7 184 -38 22 -41 43 -48 104 -36 55 11 91 3 126 -28 32 -30 84 -43 158 -40 88 3 116 -6 138 -47 25 -46 42 -50 186 -35 143 15 161 11 186 -35 25 -46 43 -50 186 -35 145 15 161 12 187 -37 28 -51 40 -53 297 -37 231 14 273 10 302 -25 28 -33 85 -41 303 -41 209 0 276 -8 300 -37 17 -21 56 -38 88 -38 31 0 70 -17 87 -37 36 -44 104 -49 141 -12 15 15 154 29 316 32 237 5 298 14 339 51 43 39 95 43 429 39 302 -4 385 2 402 30 16 25 81 35 244 35 184 0 233 8 276 47 44 39 75 44 201 30 136 -16 152 -13 178 37 27 50 42 53 188 38 145 -15 161 -11 187 36 25 47 42 51 149 37 107 -15 124 -11 149 36 24 43 43 50 113 37 70 -13 89 -7 113 39 24 46 43 52 113 39 69 -13 89 -6 112 36 32 59 75 44 75 -26 0 -63 41 -62 149 4 74 45 80 55 43 76 -65 36 -50 71 30 71 43 0 79 16 87 39 12 29 36 34 101 22 72 -13 90 -7 115 39 18 34 43 48 68 39 25 -10 67 17 119 75 50 56 98 87 128 82 34 -6 48 6 48 42 0 46 -14 49 -206 40 -172 -7 -209 -2 -222 32 -10 27 -46 40 -109 40 -81 0 -107 16 -199 125 -108 128 -152 154 -152 88 0 -25 -25 -38 -72 -38 -42 0 -79 16 -87 38 -20 52 -109 46 -139 -10 -14 -25 -18 -53 -10 -61 26 -27 -102 -141 -158 -142 -30 0 -61 -18 -69 -41 -12 -30 -35 -36 -90 -25 -56 11 -86 2 -123 -38 -36 -38 -66 -48 -113 -36 -47 12 -75 2 -107 -35 -29 -33 -74 -50 -135 -50 -62 0 -97 -13 -107 -41 -13 -33 -39 -38 -140 -26 -107 12 -128 8 -151 -34 -21 -39 -52 -49 -160 -49 -96 0 -138 -11 -148 -37 -11 -30 -61 -38 -225 -38 -169 0 -214 -8 -226 -40 -13 -34 -69 -38 -405 -32 -344 5 -393 1 -414 -36 -35 -63 -557 -63 -592 0 -21 38 -66 42 -377 36 -302 -6 -354 -2 -367 32 -12 32 -57 40 -226 40 -164 0 -214 8 -225 38 -10 26 -52 37 -150 37 -97 0 -140 11 -150 38 -10 26 -52 37 -150 37 -97 0 -140 11 -150 38 -9 24 -48 37 -112 37 -65 0 -104 13 -113 38 -9 24 -48 37 -112 37 -65 0 -104 13 -113 38 -8 20 -41 37 -73 37 -32 0 -68 16 -79 35 -11 19 -48 39 -82 44 -51 7 -64 24 -70 97 -7 78 -21 95 -125 144 -128 61 -139 63 -163 38z"/> <path d="M26991 18583 c-31 -31 -16 -108 22 -108 20 0 37 22 37 49 0 52 -33 85 -59 59z"/> <path d="M17875 18463 c0 -65 36 -79 97 -40 49 30 16 102 -46 102 -38 0 -51 -16 -51 -62z"/> <path d="M17957 16842 c-126 -95 -131 -128 -30 -180 140 -73 184 -45 193 119 9 170 -10 177 -163 61z"/> <path d="M20721 16017 c-62 -62 -129 -210 -113 -251 11 -30 47 -41 132 -41 l116 0 -16 125 c-27 203 -51 236 -119 167z"/> <path d="M22090 16110 c-8 -21 -15 -211 -15 -421 0 -446 2 -450 201 -424 437 58 487 723 64 846 -171 49 -231 49 -250 -1z"/> <path d="M15525 31471 c-62 -12 -242 -33 -400 -46 -158 -14 -341 -36 -407 -50 -327 -68 -2215 -55 -3043 22 -117 11 -232 15 -256 9 -41 -11 -44 -115 -44 -1735 0 -1705 25 -2436 101 -2896 14 -89 37 -298 49 -462 25 -322 63 -631 99 -813 13 -62 47 -242 76 -400 28 -158 68 -362 89 -454 20 -91 36 -190 36 -220 0 -30 11 -75 24 -99 13 -25 35 -106 49 -180 33 -179 88 -425 135 -609 36 -141 58 -216 156 -544 22 -72 51 -176 65 -231 14 -55 35 -123 46 -150 11 -28 46 -135 78 -238 31 -103 64 -199 74 -212 9 -14 25 -65 36 -113 10 -48 26 -99 37 -112 11 -14 27 -65 38 -113 10 -48 26 -99 36 -112 9 -14 38 -82 63 -150 189 -525 815 -1878 1076 -2325 48 -83 95 -167 104 -188 52 -113 636 -1060 701 -1137 12 -14 49 -70 82 -125 34 -55 81 -123 104 -150 23 -28 179 -230 346 -450 167 -220 340 -440 384 -488 44 -48 158 -177 253 -287 380 -440 1032 -1082 1424 -1400 68 -56 175 -145 239 -200 169 -147 325 -272 372 -298 22 -13 46 -31 53 -39 87 -113 1463 -1054 1852 -1266 54 -30 112 -65 129 -79 17 -14 93 -58 169 -99 76 -40 244 -134 375 -207 314 -177 1061 -546 1475 -728 62 -28 146 -65 188 -84 458 -210 479 -215 604 -153 39 20 110 53 158 74 206 89 323 141 488 217 266 121 1054 512 1237 614 89 50 230 127 313 172 82 46 237 134 344 198 107 63 199 115 205 115 7 0 60 33 119 73 58 40 208 137 332 216 304 194 493 318 529 349 16 13 104 75 195 137 176 119 592 424 613 449 7 8 91 76 188 152 96 75 203 161 237 191 34 30 91 79 125 108 311 267 458 406 938 887 302 304 628 647 725 763 96 116 191 228 212 251 127 136 808 1058 950 1286 153 246 588 978 648 1089 101 190 586 1162 647 1299 123 272 155 348 155 362 0 17 138 326 176 394 13 24 24 56 24 71 0 15 15 63 34 107 64 148 112 279 163 441 56 181 118 361 151 438 11 27 46 134 76 237 31 103 62 204 70 225 12 33 87 302 196 700 65 237 112 433 136 562 13 69 34 153 47 188 13 34 37 136 53 225 16 89 45 241 64 338 19 96 46 248 60 337 14 89 36 213 49 275 160 747 258 2669 243 4775 l-8 1213 -198 -3 c-109 -1 -519 -17 -911 -35 -1024 -49 -2303 4 -3063 126 -211 34 -337 21 -337 -36 0 -41 54 -65 147 -65 37 0 79 -11 93 -25 14 -14 134 -36 267 -48 133 -13 253 -30 267 -39 14 -9 175 -26 357 -39 182 -13 483 -35 669 -51 394 -32 2144 -12 2335 27 68 14 128 21 133 15 14 -13 8 -3733 -6 -3771 -6 -17 -22 -240 -36 -494 -13 -254 -36 -530 -49 -612 -14 -83 -38 -246 -54 -363 -89 -663 -140 -990 -163 -1050 -7 -21 -29 -127 -48 -237 -20 -110 -53 -274 -74 -363 -22 -89 -55 -230 -74 -312 -85 -360 -107 -444 -229 -850 -20 -69 -48 -170 -61 -225 -14 -55 -35 -123 -47 -150 -13 -28 -34 -95 -48 -150 -31 -126 -222 -688 -251 -739 -12 -21 -30 -74 -39 -118 -10 -44 -28 -87 -41 -95 -13 -8 -23 -33 -23 -56 0 -23 -15 -71 -32 -105 -18 -34 -53 -119 -78 -187 -26 -69 -60 -159 -77 -200 -17 -42 -52 -126 -77 -188 -96 -240 -364 -826 -451 -987 -22 -42 -98 -188 -168 -325 -70 -138 -202 -376 -293 -529 -92 -152 -174 -297 -182 -320 -49 -126 -994 -1483 -1090 -1564 -8 -7 -80 -94 -159 -194 -80 -99 -198 -240 -263 -312 -65 -71 -179 -198 -254 -281 -340 -377 -1088 -1081 -1454 -1369 -74 -58 -151 -122 -171 -141 -48 -46 -577 -442 -738 -552 -442 -302 -704 -472 -863 -559 -48 -26 -136 -80 -195 -120 -59 -40 -113 -72 -119 -72 -7 0 -54 -26 -105 -58 -215 -134 -889 -484 -1207 -627 -89 -39 -229 -104 -312 -143 -83 -40 -159 -72 -169 -72 -10 0 -125 -51 -257 -112 -131 -62 -249 -113 -262 -113 -12 0 -65 -19 -117 -41 -52 -23 -134 -58 -182 -78 -48 -20 -119 -53 -158 -72 -91 -44 -120 -43 -235 7 -164 72 -235 101 -644 273 -583 243 -1296 583 -1725 823 -110 61 -217 119 -238 129 -29 14 -490 289 -747 447 -208 127 -696 465 -840 581 -14 11 -81 59 -149 105 -111 77 -508 390 -539 425 -7 8 -74 63 -150 123 -362 283 -1167 1077 -1565 1542 -95 111 -212 251 -260 311 -48 60 -107 132 -131 161 -37 44 -180 225 -239 302 -10 13 -46 64 -79 112 -34 48 -67 93 -75 100 -54 50 -551 805 -740 1125 -198 335 -220 373 -379 663 -187 341 -516 1031 -656 1375 -45 110 -96 233 -114 275 -18 41 -50 122 -72 181 -73 193 -121 317 -156 397 -19 44 -34 92 -34 107 0 15 -11 47 -25 71 -25 44 -197 561 -300 906 -31 103 -65 210 -76 238 -11 27 -31 95 -45 150 -14 55 -43 161 -66 237 -22 76 -56 211 -75 300 -74 338 -106 468 -120 492 -9 13 -28 96 -44 185 -16 88 -44 239 -62 336 -132 694 -169 926 -212 1312 -14 131 -37 305 -51 388 -14 82 -36 341 -50 575 -13 233 -35 576 -48 762 -13 186 -24 1021 -25 1857 -1 1692 -14 1580 170 1520 134 -43 1973 -65 2392 -28 178 16 454 39 612 51 158 12 327 34 375 49 48 14 149 26 225 26 129 1 487 74 549 112 21 13 21 27 -1 53 -33 39 -216 43 -398 6z"/> <path d="M32026 32376 c-53 -33 -13 -61 87 -61 47 0 94 8 104 19 25 24 -41 65 -104 65 -28 0 -67 -10 -87 -23z"/> <path d="M10175 26600 c0 -41 11 -75 25 -75 14 0 25 34 25 75 0 41 -11 75 -25 75 -14 0 -25 -34 -25 -75z"/> <path d="M34050 22689 c0 -63 37 -106 60 -69 18 30 -11 130 -38 130 -12 0 -22 -27 -22 -61z"/> </g> </svg>