<?xml version="1.0" standalone="no"?>
<!DOCTYPE svg PUBLIC "-//W3C//DTD SVG 20010904//EN"
 "http://www.w3.org/TR/2001/REC-SVG-20010904/DTD/svg10.dtd">
<svg version="1.0" xmlns="http://www.w3.org/2000/svg"
 width="1800.000000pt" height="1800.000000pt" viewBox="0 0 1800.000000 1800.000000"
 preserveAspectRatio="xMidYMid meet">
<g transform="translate(0.000000,1800.000000) scale(0.100000,-0.100000)"
fill="#042534" stroke="none">
<path d="M8944 14228 c-88 -132 -308 -360 -469 -486 -60 -47 -112 -89 -115
-93 -6 -9 -319 -219 -326 -219 -2 0 -23 -12 -47 -27 -72 -46 -386 -202 -512
-255 -66 -27 -138 -58 -160 -68 -22 -10 -82 -32 -132 -49 -51 -17 -103 -35
-115 -40 -13 -5 -70 -23 -128 -40 -58 -18 -126 -38 -151 -46 -26 -8 -53 -15
-62 -15 -8 0 -37 -6 -63 -14 -58 -17 -173 -40 -304 -60 -52 -8 -126 -20 -165
-26 -237 -37 -453 -49 -855 -50 -408 0 -633 12 -845 45 -163 25 -213 27 -219
7 -10 -32 -8 -1616 3 -1885 6 -147 12 -271 15 -275 2 -4 9 -76 15 -159 6 -83
15 -182 21 -220 5 -37 16 -122 25 -188 27 -207 72 -499 91 -585 20 -91 66
-317 74 -365 4 -22 12 -58 18 -80 6 -22 18 -71 27 -110 22 -95 44 -182 60
-230 7 -22 20 -69 30 -105 9 -36 23 -81 30 -100 7 -19 20 -62 30 -95 21 -72
50 -162 63 -195 5 -14 17 -50 27 -80 9 -30 23 -72 31 -92 8 -21 21 -56 29 -78
29 -78 44 -116 96 -245 28 -71 58 -147 65 -168 8 -20 18 -45 24 -55 12 -22 70
-152 70 -158 0 -4 72 -160 94 -204 169 -334 199 -390 297 -553 33 -54 59 -100
59 -103 0 -3 8 -17 19 -32 10 -15 65 -97 121 -182 273 -411 625 -826 995
-1171 87 -80 294 -264 345 -304 59 -47 134 -109 140 -116 5 -5 53 -42 179
-136 147 -109 469 -333 577 -400 201 -125 505 -304 629 -370 22 -11 58 -31 80
-44 22 -12 101 -53 175 -91 111 -57 140 -68 166 -63 35 6 57 17 309 155 28 15
82 44 120 65 39 21 87 49 107 62 21 13 40 23 42 23 7 0 318 185 401 238 464
298 796 548 1135 852 52 47 100 90 106 95 46 40 312 307 382 383 48 52 94 102
103 111 129 134 409 500 581 761 105 160 188 295 188 305 0 3 13 26 29 52 16
27 45 77 65 113 41 73 266 524 266 533 0 3 20 49 45 101 25 53 45 101 45 107
0 6 6 23 14 37 8 15 28 63 46 107 18 44 36 89 41 100 27 65 43 108 64 170 13
39 34 95 45 125 29 76 98 280 117 349 8 31 21 76 29 101 36 119 71 246 100
365 14 55 31 125 38 155 17 68 40 179 61 290 9 47 23 113 31 147 8 34 14 74
14 88 0 14 6 54 14 88 15 67 37 211 60 402 8 66 20 161 26 210 6 50 15 146 20
215 5 69 14 181 19 250 15 195 22 1033 14 1590 l-8 505 -45 -2 c-25 -2 -94 -9
-155 -18 -486 -65 -1289 -66 -1675 -1 -47 8 -130 22 -185 31 -239 38 -503 106
-765 197 -47 16 -105 37 -130 45 -25 8 -54 19 -65 24 -11 4 -45 18 -75 30 -87
34 -104 42 -302 138 -103 50 -226 114 -275 142 -100 59 -384 247 -425 281 -15
13 -55 45 -90 73 -138 108 -356 335 -445 464 -24 34 -47 61 -52 61 -4 0 -21
-19 -37 -42z m151 -205 c44 -52 129 -138 189 -191 60 -53 116 -104 125 -113
53 -53 421 -312 491 -345 8 -4 32 -18 52 -31 73 -45 398 -213 413 -213 3 0 33
-13 68 -29 34 -16 80 -35 102 -44 22 -8 74 -29 115 -46 41 -17 140 -51 220
-77 80 -25 160 -52 178 -60 18 -8 40 -14 48 -14 9 0 37 -6 63 -14 25 -8 80
-22 121 -31 41 -9 102 -23 135 -30 33 -8 98 -21 145 -29 77 -13 127 -20 385
-56 132 -18 545 -31 795 -25 250 6 557 30 795 61 76 9 70 76 70 -818 0 -774
-8 -1083 -35 -1318 -6 -47 -15 -132 -20 -190 -5 -58 -14 -136 -20 -175 -6 -38
-18 -115 -26 -170 -21 -137 -42 -257 -59 -335 -8 -36 -22 -99 -30 -140 -36
-166 -66 -289 -90 -365 -7 -22 -19 -65 -28 -95 -41 -147 -136 -440 -172 -535
-12 -33 -37 -98 -54 -145 -18 -47 -45 -116 -61 -155 -15 -38 -38 -95 -50 -125
-71 -176 -221 -482 -340 -695 -29 -52 -82 -145 -97 -170 -7 -11 -15 -27 -19
-35 -37 -76 -228 -380 -291 -462 -24 -31 -43 -60 -43 -63 0 -7 -205 -271 -252
-326 -13 -15 -41 -48 -63 -75 -128 -155 -378 -415 -553 -576 -91 -84 -344
-296 -437 -367 -38 -29 -83 -64 -100 -77 -131 -102 -387 -280 -502 -350 -18
-10 -97 -58 -175 -105 -79 -48 -168 -101 -198 -117 -30 -17 -84 -46 -120 -66
-61 -34 -539 -271 -605 -301 -16 -7 -55 -23 -85 -35 -30 -12 -59 -26 -65 -31
-16 -15 -43 -10 -108 21 -35 17 -66 30 -70 30 -7 0 -331 155 -447 214 -119 61
-378 203 -482 265 -52 31 -264 162 -328 204 -213 137 -588 422 -784 597 -214
189 -459 432 -607 600 -164 185 -418 511 -507 650 -44 69 -292 480 -292 484 0
1 -26 49 -58 107 -56 102 -225 440 -274 549 -31 68 -145 342 -163 390 -7 19
-20 53 -28 75 -37 97 -70 190 -78 219 -4 17 -19 63 -32 101 -30 84 -75 230
-118 380 -58 206 -77 279 -104 410 -9 44 -23 105 -30 135 -8 30 -21 105 -30
165 -9 61 -22 148 -30 195 -13 80 -30 199 -56 400 -6 47 -13 112 -16 145 -31
439 -33 502 -33 1275 0 724 2 801 16 807 9 3 46 1 82 -6 37 -6 114 -16 172
-21 58 -5 152 -14 210 -21 139 -15 850 -15 1010 0 69 6 172 16 230 21 263 24
612 92 845 164 22 7 67 21 100 31 83 24 132 41 265 92 181 70 193 74 235 93
22 10 65 28 95 41 56 24 185 89 345 174 341 180 757 514 977 782 61 74 52 77
173 -64z"/>
<path d="M8914 13613 c-60 -70 -150 -156 -224 -214 -30 -23 -57 -46 -60 -49
-9 -12 -295 -211 -320 -223 -8 -4 -28 -16 -45 -26 -16 -11 -50 -31 -75 -44
-25 -14 -61 -34 -80 -45 -73 -44 -288 -146 -445 -211 -55 -23 -109 -46 -120
-51 -11 -4 -47 -19 -80 -31 -33 -13 -64 -27 -69 -31 -6 -4 -19 -8 -31 -8 -12
0 -30 -7 -41 -15 -10 -8 -25 -15 -32 -15 -8 0 -28 -6 -45 -14 -18 -8 -61 -24
-97 -35 -36 -12 -74 -25 -85 -30 -46 -20 -158 -59 -200 -71 -16 -5 -61 -20
-100 -33 -102 -36 -386 -101 -555 -128 -294 -46 -723 -72 -1073 -66 -258 5
-268 5 -278 -14 -7 -14 -7 -161 1 -487 14 -598 22 -728 61 -1052 6 -47 14
-119 19 -160 11 -107 33 -241 70 -435 6 -33 15 -87 20 -120 4 -33 13 -82 20
-110 7 -27 18 -79 26 -115 17 -73 38 -161 59 -235 7 -27 21 -79 30 -115 31
-117 91 -314 131 -430 14 -41 29 -88 34 -105 5 -16 18 -55 30 -85 31 -81 50
-132 59 -160 10 -29 127 -301 174 -405 48 -104 192 -387 221 -434 14 -22 26
-43 26 -46 0 -4 27 -49 60 -102 33 -52 60 -97 60 -98 0 -4 55 -85 149 -219 67
-95 201 -274 223 -297 7 -8 49 -59 93 -114 98 -122 430 -458 579 -585 263
-223 636 -477 956 -649 162 -88 489 -246 600 -291 30 -12 69 -28 85 -35 67
-29 111 -48 128 -57 35 -17 195 -68 215 -68 12 0 49 12 84 26 35 14 79 32 98
39 336 125 934 426 1185 595 22 15 92 62 155 104 134 89 203 137 245 171 102
80 151 120 155 125 3 3 52 46 110 97 113 98 339 325 435 438 33 39 65 75 71
80 15 13 166 203 220 275 97 132 125 171 196 280 71 108 186 297 201 330 4 8
16 29 27 47 60 99 198 387 280 583 28 69 56 133 61 142 4 9 20 50 35 90 15 40
42 116 61 168 19 52 38 109 42 125 5 17 13 41 19 55 10 25 55 171 88 285 9 33
29 103 45 155 32 109 51 184 74 290 10 41 23 98 30 125 7 28 20 95 30 150 9
55 23 132 30 170 23 121 66 453 89 685 29 290 49 1363 25 1387 -7 7 -81 8
-226 5 -417 -10 -931 29 -1238 94 -38 8 -79 14 -89 14 -11 0 -42 6 -70 14 -28
8 -80 22 -116 31 -146 37 -565 180 -707 241 -17 8 -36 14 -42 14 -6 0 -27 7
-48 16 -68 30 -97 42 -188 79 -137 57 -445 204 -540 258 -286 164 -534 345
-711 519 -66 65 -125 118 -130 118 -6 0 -32 -26 -60 -57z m103 -251 c23 -24
170 -144 253 -208 72 -56 322 -221 348 -232 9 -3 49 -25 87 -47 39 -23 91 -51
118 -64 26 -13 47 -27 47 -31 0 -5 9 -12 21 -15 11 -4 18 -9 15 -13 -14 -13
-213 69 -321 131 -76 45 -134 78 -155 89 -90 48 -397 269 -415 298 -15 24 -56
7 -127 -53 -94 -79 -317 -232 -393 -268 -11 -5 -36 -19 -55 -31 -60 -36 -227
-118 -242 -118 -8 0 -23 -7 -34 -15 -22 -17 -74 -20 -74 -5 0 6 8 13 18 16 9
3 24 9 32 14 8 5 35 19 60 31 62 31 281 163 355 213 87 60 129 90 135 96 3 3
34 28 70 55 36 27 96 77 135 112 73 67 93 74 122 45z m543 -607 c142 -15 274
-34 395 -57 33 -6 85 -15 115 -19 65 -8 168 -29 300 -59 52 -12 114 -26 138
-31 24 -5 48 -12 54 -15 6 -4 28 -11 47 -15 20 -4 59 -15 86 -23 28 -9 73 -22
100 -30 28 -8 75 -24 105 -36 30 -12 69 -25 85 -30 41 -12 174 -58 210 -74 17
-7 46 -20 65 -28 19 -8 52 -23 73 -32 21 -9 42 -16 47 -16 19 0 487 -223 600
-286 36 -20 85 -47 110 -61 25 -13 63 -34 85 -47 22 -12 67 -37 100 -55 33
-19 66 -39 74 -44 7 -6 21 -16 31 -22 98 -56 260 -162 406 -264 27 -20 76 -54
108 -76 140 -97 147 -104 144 -138 -2 -19 -9 -33 -18 -35 -9 -1 -72 39 -141
90 -69 51 -132 98 -141 103 -9 6 -88 58 -175 116 -87 58 -191 125 -231 150
-40 24 -85 52 -100 61 -15 10 -34 21 -42 25 -8 4 -37 20 -65 36 -48 29 -94 53
-275 149 -47 24 -132 66 -190 92 -58 27 -132 61 -165 76 -33 15 -85 38 -115
50 -68 28 -117 49 -152 67 -14 7 -33 13 -41 13 -8 0 -48 13 -88 28 -100 38
-138 52 -174 62 -16 5 -55 18 -85 30 -30 12 -80 28 -110 37 -133 36 -160 43
-240 63 -141 35 -191 47 -270 63 -454 96 -875 134 -1355 124 -371 -9 -511 -20
-775 -62 -47 -7 -132 -21 -190 -30 -100 -16 -168 -30 -290 -59 -30 -8 -89 -22
-130 -31 -104 -23 -278 -71 -320 -87 -14 -6 -45 -16 -70 -23 -76 -21 -341
-117 -372 -135 -10 -6 -24 -10 -32 -10 -8 0 -27 -7 -43 -15 -15 -8 -59 -28
-98 -45 -38 -18 -92 -42 -120 -55 -27 -12 -79 -35 -115 -51 -36 -15 -101 -47
-145 -70 -224 -116 -324 -170 -379 -203 -34 -21 -68 -40 -76 -44 -8 -4 -27
-15 -42 -25 -14 -9 -48 -30 -75 -46 -26 -16 -99 -64 -161 -105 -63 -42 -121
-81 -130 -86 -43 -26 -157 -106 -252 -177 -57 -43 -111 -77 -120 -76 -24 5
-23 50 2 76 23 22 135 106 253 187 33 23 89 61 125 86 36 25 72 48 80 52 8 4
27 15 42 25 37 24 215 135 236 147 58 34 215 124 257 148 59 32 364 183 450
221 33 15 83 38 110 51 28 12 75 33 105 45 30 12 69 27 85 34 33 15 101 41
155 61 19 7 53 19 75 27 68 25 109 39 140 48 17 5 64 20 105 33 186 60 460
127 660 162 52 9 129 23 170 30 138 26 214 37 304 46 48 4 102 11 120 15 118
27 911 26 1156 -1z m-583 -285 c22 -43 90 -192 113 -250 12 -30 44 -101 70
-156 39 -82 53 -103 74 -108 29 -7 35 -31 10 -40 -20 -8 -105 -8 -183 0 -65 7
-77 21 -39 46 l22 15 -20 49 -20 49 -87 5 c-48 3 -92 3 -97 2 -16 -6 -40 -58
-40 -85 0 -14 9 -31 22 -39 14 -9 19 -20 15 -31 -5 -14 -21 -17 -94 -17 -48 0
-128 -5 -177 -10 -87 -10 -90 -10 -127 15 -21 14 -77 63 -125 110 -47 47 -92
85 -100 85 -19 0 -18 -39 4 -130 16 -63 22 -75 42 -80 13 -3 25 -11 27 -17 7
-20 -31 -32 -128 -43 -101 -12 -125 -5 -96 28 19 21 21 58 7 117 -6 22 -15 74
-20 115 -6 41 -18 111 -28 155 -16 74 -19 81 -50 94 -18 8 -31 20 -29 25 7 23
177 56 321 64 143 7 205 -35 208 -142 2 -59 -15 -94 -57 -122 -14 -9 -25 -22
-25 -29 0 -17 159 -162 208 -190 l39 -22 27 20 c26 18 106 170 106 200 0 7 4
17 9 23 5 5 35 70 66 144 31 74 63 145 72 158 19 31 62 26 80 -8z m556 -16
c17 -6 37 -44 57 -104 38 -114 91 -255 98 -262 8 -8 81 97 155 222 15 25 37
58 50 74 l23 29 85 -18 c85 -18 117 -33 90 -42 -32 -12 -47 -43 -64 -133 -39
-210 -47 -264 -47 -309 0 -51 6 -64 33 -74 29 -11 8 -29 -27 -24 -17 3 -67 11
-111 17 -116 18 -115 17 -79 48 27 23 33 39 47 117 28 154 31 205 12 205 -8 0
-19 -8 -23 -17 -4 -10 -23 -43 -43 -73 -20 -30 -47 -75 -61 -100 -91 -168
-116 -179 -151 -65 -91 302 -92 305 -110 305 -16 0 -27 -87 -27 -223 0 -84 1
-88 25 -97 14 -5 25 -15 25 -21 0 -15 -178 -5 -193 10 -8 8 -3 19 16 38 17 18
28 44 32 73 3 25 12 83 20 130 7 47 18 115 24 151 16 96 14 117 -9 124 -11 3
-20 13 -20 22 0 14 11 15 78 10 43 -3 86 -9 95 -13z m-1723 -106 c0 -6 -10
-22 -22 -35 l-22 -23 27 -83 c98 -310 84 -393 -78 -471 -58 -27 -198 -28 -242
-2 -56 34 -76 73 -133 256 -44 145 -65 189 -96 200 -32 13 -27 32 12 41 16 4
65 16 109 28 43 11 81 18 84 15 3 -2 -1 -19 -7 -37 -10 -27 -9 -42 2 -78 7
-24 21 -71 30 -104 9 -33 23 -76 31 -95 7 -19 16 -47 19 -61 3 -15 20 -40 38
-58 28 -28 38 -31 91 -31 55 0 62 3 93 36 40 42 42 68 13 169 -11 39 -24 84
-29 100 -32 113 -57 164 -85 175 -36 14 -31 24 23 43 78 27 142 34 142 15z
m2555 -34 c151 -38 215 -55 268 -71 49 -15 49 -15 42 -51 -8 -43 -36 -104 -49
-106 -5 0 -13 12 -17 28 -9 34 -56 86 -78 86 -8 0 -34 7 -58 16 -23 9 -48 14
-55 11 -16 -6 -51 -119 -46 -150 3 -19 12 -23 63 -30 47 -7 65 -5 86 7 35 20
49 20 49 -1 0 -21 -18 -79 -38 -120 -16 -36 -42 -44 -42 -15 0 10 -10 28 -22
39 -24 22 -102 48 -117 38 -14 -8 -40 -94 -43 -140 -3 -40 -3 -40 47 -57 72
-25 157 -24 180 2 23 26 45 26 45 0 0 -24 -37 -101 -54 -113 -17 -11 -78 1
-206 40 -115 36 -161 48 -212 58 -37 7 -35 19 5 43 35 20 49 53 92 212 10 36
23 83 31 105 25 79 26 123 3 154 -23 31 -18 56 10 46 9 -4 61 -18 116 -31z
m-3212 -193 c10 -29 15 -56 13 -59 -3 -2 -22 3 -42 13 -42 20 -121 13 -131
-11 -8 -21 10 -72 83 -242 64 -150 91 -192 124 -192 11 0 20 -7 20 -15 0 -8
-5 -15 -11 -15 -6 0 -25 -7 -42 -15 -18 -8 -63 -26 -102 -40 -86 -31 -104 -20
-63 37 9 13 8 24 -4 55 -9 21 -37 90 -63 153 -84 206 -87 210 -116 210 -46 0
-93 -40 -103 -88 -5 -23 -13 -42 -18 -42 -13 0 -48 87 -48 120 0 26 6 30 123
74 68 25 126 46 129 46 4 0 19 5 35 12 72 30 160 57 178 55 15 -1 25 -16 38
-56z m3742 32 c11 -7 26 -13 34 -13 14 0 137 -45 209 -76 48 -21 122 -92 143
-139 27 -58 25 -168 -2 -231 -29 -64 -112 -145 -166 -161 -80 -24 -172 -16
-258 22 -16 7 -50 21 -75 30 -25 9 -60 23 -78 31 -18 8 -39 14 -47 14 -15 0
-45 27 -45 41 0 5 10 9 23 9 39 0 55 21 96 130 22 58 56 145 75 195 41 103 42
111 19 137 -32 36 23 44 72 11z m-4463 -259 c4 -3 -1 -19 -10 -35 -13 -22 -14
-33 -6 -46 6 -10 37 -67 69 -128 85 -162 135 -235 161 -235 22 0 81 24 122 50
27 17 54 74 46 95 -11 27 3 47 25 36 26 -14 49 -134 30 -157 -12 -14 -352
-184 -400 -199 -12 -4 -27 -11 -33 -16 -41 -34 -169 -109 -185 -109 -16 0 -21
6 -21 28 0 33 -6 40 -47 70 -42 29 -51 28 -134 -14 l-71 -35 7 -52 c9 -66 20
-85 50 -93 41 -10 37 -17 -48 -80 -26 -19 -52 -32 -58 -29 -6 4 -8 26 -4 59 8
63 -28 294 -70 451 -7 28 -16 68 -20 91 -6 36 -3 43 19 57 14 10 33 17 43 17
16 0 152 -95 298 -208 123 -94 165 -117 212 -115 47 2 83 24 83 51 0 23 -74
172 -145 292 -58 98 -77 118 -127 134 -35 11 -17 27 80 75 95 48 123 57 134
45z m5179 -40 c49 -26 89 -51 89 -56 0 -5 -12 -13 -27 -19 -32 -11 -68 -69
-163 -265 -44 -90 -61 -137 -62 -167 0 -23 -2 -45 -4 -49 -5 -8 -160 67 -186
90 -20 17 -15 32 11 32 27 0 45 25 114 165 124 249 123 247 102 298 -12 30 30
20 126 -29z m309 -162 c87 -58 107 -85 70 -95 -18 -5 -20 -13 -20 -75 0 -95 9
-100 96 -63 65 28 69 31 72 65 2 20 5 36 8 36 16 0 144 -94 141 -104 -2 -6
-24 -14 -49 -17 -25 -4 -67 -16 -93 -28 -26 -12 -54 -21 -61 -21 -11 0 -77
-26 -93 -37 -2 -2 -3 -55 -2 -118 2 -106 8 -163 27 -237 15 -62 0 -61 -103 8
-54 36 -99 67 -101 69 -2 2 9 15 24 30 23 24 26 32 20 72 -3 25 -6 58 -6 72 0
49 -13 57 -62 37 -24 -10 -50 -22 -58 -27 -8 -5 -25 -13 -38 -19 -18 -8 -21
-15 -16 -35 5 -21 3 -25 -15 -25 -12 0 -40 11 -62 25 -22 14 -51 30 -65 35
-36 14 -28 44 11 47 17 0 50 9 75 18 25 9 61 21 80 27 19 5 40 14 45 18 6 4
24 11 42 14 53 12 56 22 48 169 -5 103 -11 139 -26 165 -10 18 -19 37 -19 43
0 23 52 4 130 -49z m-2630 3 c118 -8 244 -19 280 -24 246 -38 477 -84 600
-118 30 -9 75 -21 100 -28 76 -21 253 -76 293 -91 20 -8 55 -21 77 -29 22 -8
57 -21 78 -29 364 -137 808 -370 1207 -634 141 -94 351 -245 365 -262 3 -4 31
-25 63 -49 31 -23 95 -74 141 -114 46 -40 105 -91 132 -113 27 -23 61 -52 75
-65 14 -13 62 -57 107 -98 71 -63 82 -78 82 -106 0 -18 -8 -43 -18 -55 l-19
-23 -50 49 c-101 100 -220 208 -378 344 -22 19 -42 37 -45 40 -63 63 -362 288
-505 380 -13 8 -47 31 -77 51 -95 64 -194 127 -234 149 -21 12 -55 31 -74 42
-204 121 -507 265 -820 390 -41 16 -90 36 -109 44 -24 11 -37 12 -45 4 -8 -8
-4 -12 12 -16 12 -4 22 -10 22 -15 0 -5 10 -13 23 -18 59 -23 263 -172 398
-291 261 -230 509 -544 627 -793 18 -37 32 -72 32 -78 0 -6 6 -23 14 -37 31
-62 65 -192 92 -352 26 -157 24 -467 -4 -620 -23 -129 -40 -197 -72 -285 -11
-33 -25 -74 -31 -92 -15 -49 -123 -256 -175 -336 -66 -101 -185 -248 -250
-309 -55 -53 -60 -63 -45 -87 13 -20 42 0 117 80 33 34 64 67 70 73 6 6 37 48
70 93 217 299 332 587 379 948 20 158 19 298 -5 475 -55 409 -199 707 -525
1085 -63 73 -206 214 -290 285 -49 42 -82 80 -70 80 9 0 204 -90 260 -120 28
-15 97 -52 155 -82 172 -90 358 -205 575 -356 179 -126 540 -418 648 -526 l50
-49 -6 -226 c-9 -405 -39 -588 -155 -941 -61 -188 -181 -429 -311 -625 -185
-280 -504 -601 -799 -803 -91 -63 -226 -148 -257 -163 -11 -5 -36 -19 -55 -31
-93 -56 -418 -208 -510 -238 -14 -5 -50 -18 -80 -30 -146 -57 -343 -113 -525
-150 -273 -56 -434 -77 -680 -91 -192 -11 -610 -4 -685 12 -25 5 -83 13 -130
19 -117 13 -347 54 -440 79 -143 38 -227 65 -445 141 -142 50 -423 175 -505
225 -19 12 -62 36 -95 54 -51 28 -114 65 -210 124 -10 7 -73 52 -140 101 -626
464 -1033 1105 -1151 1816 -19 117 -42 374 -49 561 l-6 155 43 45 c40 40 103
97 264 235 74 65 200 164 237 187 16 10 38 28 49 39 58 58 531 358 718 456
196 102 342 172 360 172 23 0 8 -28 -32 -58 -65 -50 -264 -248 -327 -327 -31
-38 -61 -74 -67 -80 -70 -65 -275 -404 -320 -530 -79 -218 -112 -387 -120
-600 -11 -282 17 -489 96 -710 11 -33 25 -73 30 -90 18 -56 119 -243 197 -363
98 -151 277 -354 307 -350 36 5 23 33 -49 110 -120 127 -225 269 -296 403 -59
112 -139 297 -167 390 -127 419 -92 948 84 1287 8 14 14 31 14 37 0 19 123
215 199 316 209 280 441 497 749 702 112 74 142 109 67 77 -16 -6 -48 -19 -70
-27 -22 -9 -67 -26 -100 -38 -33 -13 -64 -27 -69 -31 -6 -4 -16 -8 -23 -8 -7
0 -56 -20 -109 -45 -52 -25 -97 -45 -99 -45 -23 0 -410 -206 -513 -272 -15
-10 -34 -21 -42 -25 -8 -3 -33 -18 -55 -32 -22 -14 -45 -28 -51 -31 -5 -3 -63
-41 -128 -85 -65 -44 -125 -84 -134 -90 -142 -86 -586 -457 -830 -693 -41 -39
-69 -59 -75 -53 -5 5 -12 30 -14 55 -6 52 -15 41 166 206 52 47 99 90 105 96
26 25 207 173 266 219 36 28 70 55 75 61 6 6 26 20 45 32 19 11 46 31 59 43
23 22 37 31 236 167 186 126 506 315 655 388 250 121 389 182 545 241 22 8 55
21 73 29 18 8 37 14 43 14 6 0 25 6 42 13 18 8 59 22 92 32 33 9 78 23 100 30
39 12 98 30 200 59 46 13 88 23 280 61 235 47 356 64 575 79 251 18 396 18
650 1z m-3822 -662 c27 -57 28 -58 70 -59 63 -1 71 -16 28 -50 -36 -29 -36
-29 -30 -88 l7 -59 -29 7 c-16 4 -36 14 -45 22 -21 19 -33 18 -79 -8 -31 -18
-42 -20 -51 -11 -10 10 -10 18 -1 38 19 42 14 60 -28 94 -46 37 -44 51 8 51
49 0 59 8 87 69 13 28 27 51 30 51 3 0 18 -26 33 -57z m7099 2 c19 -54 31 -65
74 -65 55 0 59 -18 13 -56 -38 -33 -38 -33 -27 -76 16 -58 3 -69 -47 -40 -47
27 -58 27 -90 2 -14 -11 -33 -20 -43 -20 -16 0 -17 6 -11 58 l6 58 -36 24
c-49 34 -47 50 9 50 46 0 85 24 85 53 0 19 31 58 43 54 6 -2 16 -20 24 -42z
m-5847 -3868 c0 -24 34 -47 72 -47 48 0 52 -26 8 -59 -29 -21 -30 -25 -24 -72
8 -57 2 -60 -56 -27 -36 21 -39 22 -57 5 -11 -9 -30 -17 -42 -17 -20 0 -21 3
-15 48 5 42 3 49 -20 69 -28 24 -34 52 -13 54 6 1 19 3 27 4 8 1 23 3 33 4 10
0 27 17 38 36 17 28 24 33 35 24 8 -6 14 -16 14 -22z m4568 21 c5 -7 11 -22
14 -33 2 -16 13 -21 52 -25 27 -3 51 -10 53 -16 2 -6 -13 -28 -34 -48 -33 -32
-36 -39 -25 -56 16 -27 15 -60 -2 -60 -8 0 -28 8 -44 17 -29 16 -32 16 -49 0
-11 -9 -30 -18 -44 -19 -22 -3 -24 0 -22 32 4 54 -5 80 -32 90 -34 13 -34 50
-1 50 37 0 76 18 83 37 8 23 23 43 33 43 4 0 12 -6 18 -12z m-402 -223 c3 -8
-3 -38 -14 -67 -10 -29 -22 -87 -26 -128 -5 -66 -3 -81 18 -125 25 -53 50 -81
79 -86 10 -2 18 -8 19 -14 0 -9 -167 -104 -185 -105 -4 0 -5 15 -1 34 5 27 0
46 -21 85 -36 65 -41 69 -157 130 -64 34 -109 51 -133 51 -48 0 -47 25 3 46
20 9 63 29 94 45 71 36 78 36 78 2 0 -19 7 -31 23 -39 12 -5 41 -21 65 -35 37
-21 44 -22 52 -9 17 26 12 121 -7 142 -20 22 -13 31 49 64 52 27 57 28 64 9z
m-3533 -93 c22 -19 22 -77 1 -285 -15 -150 -15 -159 2 -178 12 -13 14 -23 7
-30 -7 -7 -30 -2 -74 17 -35 15 -79 33 -98 41 l-34 14 32 30 c27 24 32 35 29
66 -3 36 -7 40 -67 70 -63 31 -65 32 -94 15 -33 -19 -51 -47 -43 -67 8 -21 -9
-27 -35 -12 -62 33 -110 69 -106 80 2 7 19 15 38 18 35 6 209 117 302 193 29
24 60 46 68 49 19 7 50 -2 72 -21z m3017 -147 c0 -8 -4 -15 -10 -15 -13 0 -13
-39 1 -81 38 -115 100 -269 109 -269 3 0 15 -6 25 -14 17 -12 15 -15 -29 -35
-27 -11 -55 -21 -63 -21 -8 0 -28 -7 -45 -16 -38 -19 -51 -8 -37 31 8 25 4 46
-23 125 -41 118 -63 131 -73 43 -4 -32 -14 -103 -23 -158 -23 -136 -27 -136
-166 5 -60 60 -115 110 -121 110 -9 0 -5 -23 12 -77 33 -103 56 -147 82 -153
12 -3 23 -9 23 -15 2 -14 -90 -47 -121 -43 -25 3 -26 6 -23 53 2 28 -4 72 -13
100 -8 28 -23 75 -31 105 -30 103 -49 145 -72 156 -34 17 -28 26 25 41 117 32
102 38 222 -81 59 -58 113 -106 119 -106 11 0 16 14 26 75 19 122 35 198 44
207 15 15 101 45 135 47 18 1 27 -4 27 -14z m-2524 -40 c64 -16 165 -65 171
-83 8 -20 -22 -107 -37 -107 -7 0 -21 16 -32 36 -10 19 -32 48 -48 64 -27 26
-37 29 -95 29 -60 0 -68 -3 -98 -32 -35 -34 -67 -108 -67 -155 0 -37 33 -100
66 -126 34 -26 139 -29 186 -5 44 23 57 5 28 -40 -27 -44 -49 -50 -154 -44
-86 6 -127 23 -186 79 -60 57 -84 141 -66 233 13 67 82 136 157 159 55 16 85
14 175 -8z m557 -162 c9 -21 23 -65 32 -98 9 -33 23 -81 31 -106 8 -26 14 -53
14 -60 0 -38 37 -133 58 -147 12 -8 22 -23 22 -33 0 -23 -37 -24 -145 -5 -61
11 -69 15 -66 32 2 10 4 41 5 68 l1 50 -79 14 -78 14 -24 -28 c-15 -19 -23
-42 -24 -68 0 -38 0 -38 -32 -31 -18 3 -50 9 -70 12 -47 7 -48 20 -5 54 29 23
227 291 256 347 9 17 20 22 50 22 34 0 39 -4 54 -37z m1241 25 c3 -7 7 -32 10
-56 8 -56 -11 -64 -53 -23 -30 29 -34 30 -94 25 -34 -4 -66 -10 -71 -15 -10
-9 -10 -81 0 -112 5 -17 13 -19 55 -15 27 3 58 13 68 22 35 32 55 17 62 -44 9
-82 -7 -103 -44 -60 -17 20 -76 27 -111 14 -19 -7 -21 -51 -5 -106 l10 -38 59
0 c76 0 104 11 132 54 34 53 48 46 48 -24 0 -56 -2 -61 -27 -71 -14 -5 -74
-14 -132 -20 -58 -5 -132 -14 -165 -20 -76 -14 -92 -8 -70 25 13 20 15 40 9
103 -12 140 -36 266 -56 292 -12 15 -16 28 -11 33 5 5 63 16 128 24 65 8 120
17 123 19 11 11 132 4 135 -7z m-679 -43 c107 -9 174 -63 211 -170 32 -95 -12
-200 -110 -263 -41 -27 -42 -27 -219 -26 -102 0 -182 5 -188 11 -6 6 -2 16 11
28 19 17 20 30 20 201 0 111 -4 185 -10 189 -5 3 -10 15 -10 26 0 18 6 19 118
14 64 -3 144 -8 177 -10z m1705 -316 c0 -7 -8 -18 -17 -26 -25 -19 -202 -104
-238 -114 -16 -4 -61 -18 -100 -32 -248 -85 -584 -156 -900 -189 -160 -17
-721 -17 -885 0 -227 24 -428 61 -670 123 -216 56 -540 183 -540 212 0 13 55
3 135 -26 217 -77 443 -138 705 -190 181 -37 539 -67 786 -67 442 0 844 51
1214 155 25 7 74 20 110 30 36 9 81 23 100 30 73 26 106 37 140 47 19 5 40 14
45 18 6 4 25 11 42 15 18 3 35 11 38 16 9 13 35 11 35 -2z m-2541 -400 c20 -6
52 -15 71 -21 33 -9 192 -64 273 -94 65 -25 121 -46 142 -55 11 -4 61 -24 110
-45 50 -20 118 -49 152 -65 90 -41 107 -44 155 -21 50 23 255 107 313 129 22
8 54 21 70 28 17 7 39 16 50 19 19 5 115 38 260 90 39 14 82 26 97 26 15 0 30
5 33 10 3 6 10 10 16 10 5 0 -1 -11 -13 -25 -12 -14 -26 -25 -32 -25 -5 0 -51
-20 -103 -45 -51 -25 -95 -45 -98 -45 -3 0 -33 -13 -67 -29 -96 -44 -164 -74
-272 -121 -54 -23 -106 -45 -115 -49 -9 -5 -32 -15 -51 -24 -19 -8 -56 -25
-81 -36 -25 -12 -51 -21 -59 -21 -8 0 -34 9 -59 21 -25 11 -59 27 -76 34 -16
7 -61 27 -100 45 -38 18 -83 39 -100 46 -16 7 -60 27 -98 43 -37 17 -69 31
-71 31 -5 0 -90 38 -201 89 -33 16 -80 37 -105 47 -62 26 -118 64 -95 64 10 0
35 -5 54 -11z"/>
<path d="M8151 12357 c-16 -20 0 -175 21 -188 32 -21 121 24 132 66 9 36 -4
81 -29 105 -31 29 -105 39 -124 17z"/>
<path d="M8860 12224 c-14 -42 -18 -70 -12 -76 5 -5 31 -8 58 -6 38 2 50 7 52
22 6 27 -48 126 -68 126 -4 0 -17 -30 -30 -66z"/>
<path d="M10969 12023 c-38 -100 -65 -170 -100 -251 -21 -51 -39 -102 -39
-113 0 -41 139 -66 198 -35 33 17 81 69 106 116 15 25 20 55 20 116 1 81 0 84
-33 118 -36 37 -101 76 -127 76 -8 0 -19 -12 -25 -27z"/>
<path d="M5936 11412 c-6 -10 23 -133 34 -146 11 -11 102 43 97 58 -5 14 -104
96 -117 96 -5 0 -11 -4 -14 -8z"/>
<path d="M8700 11609 c-259 -14 -517 -60 -648 -115 -18 -8 -39 -14 -47 -14 -8
0 -29 -6 -47 -14 -18 -8 -89 -38 -158 -66 -69 -29 -129 -56 -135 -60 -5 -5
-50 -29 -100 -55 -49 -26 -97 -53 -106 -61 -8 -8 -19 -14 -23 -14 -5 0 -25
-13 -46 -30 -21 -16 -41 -30 -44 -30 -15 0 -216 -158 -285 -224 -193 -184
-379 -406 -493 -589 -121 -194 -184 -368 -229 -637 -23 -140 -26 -367 -5 -473
8 -40 17 -90 21 -112 3 -22 10 -53 15 -70 31 -104 51 -167 59 -183 5 -9 24
-53 42 -97 18 -44 46 -102 61 -128 15 -26 28 -50 28 -53 0 -10 90 -144 141
-212 66 -88 166 -192 183 -192 15 0 34 29 94 140 19 36 47 84 63 108 28 42 79
131 106 184 15 30 22 17 -81 162 -63 89 -147 274 -189 416 -44 151 -50 201
-50 410 0 198 11 299 43 406 6 16 14 50 19 75 35 170 172 437 331 645 96 127
327 339 475 436 57 37 175 108 180 108 2 0 26 13 52 28 161 94 444 183 723
227 133 21 586 16 715 -8 168 -32 273 -59 405 -107 47 -17 93 -34 102 -37 41
-13 269 -133 338 -177 194 -126 421 -327 534 -475 136 -177 235 -369 318 -621
56 -168 94 -429 84 -575 -12 -157 -41 -327 -71 -405 -71 -189 -126 -296 -212
-414 -42 -57 -56 -107 -32 -121 5 -4 15 -17 20 -28 5 -12 18 -35 29 -52 11
-16 24 -39 30 -50 6 -11 20 -36 31 -55 12 -19 46 -77 75 -127 37 -63 61 -93
73 -93 37 0 202 202 299 366 54 92 122 225 122 241 0 3 13 40 29 82 72 188 95
326 95 576 1 234 -12 316 -83 555 -46 153 -146 346 -233 448 -16 19 -40 52
-55 75 -14 23 -36 53 -49 67 -12 14 -55 63 -95 109 -116 133 -272 282 -383
363 -28 21 -55 41 -61 45 -32 26 -199 135 -250 163 -149 83 -315 157 -505 225
-70 25 -137 43 -220 60 -47 9 -102 21 -123 26 -100 26 -617 43 -877 28z"/>
<path d="M8921 11391 c-12 -16 -21 -32 -21 -35 0 -4 -12 -25 -27 -49 -15 -23
-38 -62 -51 -86 -13 -24 -33 -58 -43 -75 -10 -17 -22 -38 -26 -46 -4 -8 -26
-47 -50 -86 -24 -39 -43 -74 -43 -77 0 -5 -26 -51 -100 -177 -20 -33 -97 -167
-121 -210 -60 -107 -105 -186 -116 -205 -7 -11 -16 -27 -20 -35 -4 -8 -32 -58
-63 -110 -31 -52 -60 -102 -64 -110 -8 -16 -20 -38 -84 -150 -24 -41 -47 -82
-52 -90 -6 -8 -44 -73 -85 -145 -41 -71 -80 -137 -85 -145 -6 -8 -13 -22 -17
-30 -4 -8 -26 -48 -50 -88 -24 -40 -43 -74 -43 -76 0 -4 -169 -293 -190 -326
-6 -8 -13 -22 -17 -30 -4 -8 -26 -47 -50 -86 -24 -39 -43 -74 -43 -77 0 -3
-34 -62 -75 -132 -41 -69 -75 -128 -75 -130 0 -2 -47 -83 -105 -180 -58 -97
-105 -179 -105 -182 0 -3 -13 -25 -30 -50 -16 -24 -30 -46 -30 -48 0 -2 -34
-60 -75 -130 -41 -69 -75 -128 -75 -130 0 -2 -25 -45 -55 -95 -31 -50 -53 -96
-50 -101 4 -5 153 -9 364 -9 410 0 376 -7 431 95 64 118 93 171 117 208 13 21
28 48 34 60 5 12 19 38 30 57 20 32 68 118 152 270 16 30 56 101 89 157 32 56
58 104 58 107 0 4 11 23 23 44 13 20 45 78 72 127 88 164 115 213 145 265 16
28 30 53 30 55 0 2 20 38 45 79 25 42 45 79 45 81 0 2 25 46 56 96 31 51 77
133 104 183 26 50 61 114 77 141 16 28 32 57 36 65 4 8 15 29 25 45 10 17 35
59 54 95 155 281 162 288 202 215 12 -22 33 -58 47 -80 14 -22 43 -71 64 -110
21 -38 56 -98 77 -133 21 -34 38 -64 38 -67 0 -11 102 -175 109 -175 11 0 32
27 55 70 16 30 61 102 114 185 6 11 15 27 19 35 4 8 49 85 101 170 51 85 94
162 95 170 0 9 -132 238 -295 510 -364 609 -336 561 -348 585 -6 11 -18 32
-28 46 -9 15 -28 45 -41 68 -14 22 -28 41 -32 41 -4 0 -17 -13 -28 -29z"/>
<path d="M9738 9948 c-19 -35 -48 -85 -63 -112 -15 -28 -41 -72 -56 -98 -16
-27 -29 -51 -29 -53 0 -3 -27 -50 -60 -105 -33 -55 -60 -103 -60 -105 0 -3
-19 -38 -43 -78 -23 -39 -52 -90 -64 -112 -11 -22 -30 -56 -42 -75 -11 -19
-24 -42 -28 -50 -4 -8 -39 -69 -77 -135 -39 -66 -79 -136 -90 -156 -28 -53
-70 -112 -82 -116 -9 -3 -84 106 -84 122 0 2 -27 49 -60 104 -33 56 -60 104
-60 106 0 3 -12 24 -27 48 -37 56 -43 67 -76 129 -43 82 -63 105 -82 93 -9 -5
-35 -46 -59 -90 -35 -67 -89 -161 -153 -270 -28 -48 -63 -123 -63 -136 0 -8
23 -47 50 -87 28 -41 50 -75 50 -77 0 -2 20 -33 45 -69 25 -37 45 -69 45 -72
0 -3 15 -29 34 -57 19 -29 73 -117 121 -197 49 -80 108 -175 132 -212 24 -37
46 -82 50 -99 l6 -32 -99 7 c-168 12 -355 48 -489 93 -142 48 -184 65 -241 93
-32 17 -62 30 -68 30 -14 -1 -33 -28 -76 -105 -19 -33 -44 -78 -57 -100 -12
-22 -26 -47 -30 -55 -4 -8 -26 -48 -50 -88 -24 -40 -43 -78 -43 -86 0 -7 10
-18 23 -24 55 -27 158 -73 198 -87 81 -29 244 -82 299 -98 130 -36 396 -74
570 -81 134 -5 429 8 515 23 33 5 103 17 155 26 179 30 425 105 579 176 80 38
102 55 93 77 -5 15 -75 139 -102 182 -5 8 -35 61 -67 118 -32 56 -63 102 -71
102 -7 0 -41 -12 -75 -26 -230 -99 -404 -143 -646 -165 -122 -11 -147 -8 -137
17 5 14 209 362 236 404 6 8 13 22 17 30 4 8 40 71 80 139 40 67 73 125 73
127 0 2 18 34 41 70 22 37 45 77 50 88 13 27 29 55 52 86 l18 25 22 -27 c12
-15 31 -44 42 -65 10 -21 32 -58 48 -82 15 -24 44 -73 64 -110 20 -36 54 -92
75 -124 21 -32 38 -60 38 -63 0 -4 112 -196 130 -224 6 -8 13 -22 17 -30 4 -8
53 -92 109 -186 56 -94 114 -193 129 -220 57 -103 90 -154 102 -158 19 -8 731
-8 743 -1 16 10 13 18 -31 86 -23 35 -55 89 -72 119 -47 85 -51 92 -78 135
-14 22 -38 63 -54 90 -15 28 -35 61 -45 75 -20 28 -519 861 -557 930 -21 38
-75 128 -113 190 -5 8 -100 166 -210 350 -208 349 -221 370 -236 370 -6 0 -26
-28 -46 -62z"/>
<path d="M7183 6729 c-24 -17 -43 -32 -43 -34 0 -2 13 -13 30 -25 47 -33 70
-20 70 41 0 27 -3 49 -7 49 -5 -1 -27 -14 -50 -31z"/>
<path d="M8295 6402 c-18 -12 -55 -71 -55 -86 0 -17 21 -26 60 -26 37 0 40 6
30 58 -8 48 -20 65 -35 54z"/>
<path d="M8836 6444 c-3 -9 -6 -84 -6 -169 0 -179 1 -181 82 -170 86 12 138
83 138 185 0 41 -29 108 -56 131 -42 35 -147 50 -158 23z"/>
<path d="M4573 12553 c-30 -11 -9 -1753 21 -1802 4 -5 11 -67 16 -138 19 -254
83 -635 165 -988 8 -33 21 -94 31 -135 9 -41 23 -100 31 -130 14 -50 21 -76
58 -195 6 -22 20 -67 30 -100 9 -33 23 -76 30 -95 20 -57 35 -101 56 -170 19
-60 40 -117 60 -165 4 -11 18 -45 29 -75 12 -30 28 -68 35 -85 7 -16 21 -48
30 -70 44 -107 57 -135 116 -265 58 -126 204 -412 234 -461 14 -21 25 -41 25
-45 0 -4 19 -39 43 -78 24 -39 46 -78 50 -86 13 -25 38 -66 165 -260 282 -431
714 -913 1121 -1250 57 -47 117 -97 134 -112 18 -15 35 -28 40 -28 4 0 15 -8
25 -18 23 -23 198 -155 267 -202 215 -146 270 -182 345 -228 47 -29 94 -59
105 -65 11 -7 39 -24 63 -39 24 -16 45 -28 47 -28 2 0 30 -15 62 -34 139 -81
180 -103 398 -210 212 -104 281 -137 390 -186 161 -71 196 -80 233 -61 9 5 37
17 62 26 25 10 68 28 96 41 241 111 506 239 554 269 19 12 69 40 110 62 102
55 140 76 249 142 115 69 119 72 156 96 378 245 554 374 835 614 162 138 505
479 615 611 43 52 82 97 85 100 38 29 345 445 415 562 5 9 50 83 99 164 49 80
95 158 103 173 8 14 36 67 63 116 128 233 324 656 405 875 7 19 20 53 28 75 8
22 24 69 36 105 11 36 39 119 61 185 41 123 47 142 98 325 66 239 86 319 136
570 8 41 22 109 30 150 27 133 53 323 86 630 19 175 29 611 30 1273 0 548 -2
628 -15 633 -8 4 -70 0 -137 -7 -87 -9 -290 -13 -685 -13 -525 1 -672 -6 -485
-20 42 -4 154 -14 247 -23 136 -12 237 -14 505 -10 184 4 369 11 410 16 41 5
78 7 82 5 12 -8 9 -1470 -3 -1614 -5 -69 -14 -174 -18 -235 -5 -60 -14 -141
-19 -180 -6 -38 -18 -124 -27 -190 -9 -66 -22 -154 -30 -195 -56 -299 -74
-385 -91 -433 -8 -20 -14 -47 -14 -59 0 -19 -9 -54 -45 -178 -7 -25 -21 -74
-30 -110 -10 -36 -23 -83 -30 -105 -7 -22 -20 -65 -29 -95 -48 -163 -157 -470
-206 -585 -36 -82 -50 -119 -50 -126 0 -5 -13 -37 -29 -72 -16 -34 -46 -98
-66 -142 -91 -196 -206 -418 -262 -508 -13 -21 -28 -48 -34 -60 -5 -12 -18
-35 -29 -52 -11 -16 -23 -37 -27 -45 -3 -8 -27 -46 -51 -85 -300 -470 -643
-877 -1022 -1215 -52 -47 -103 -93 -115 -104 -11 -10 -51 -44 -90 -75 -38 -31
-72 -59 -75 -62 -16 -18 -371 -276 -418 -304 -9 -5 -37 -24 -62 -41 -241 -166
-638 -376 -1035 -549 -16 -7 -55 -24 -86 -38 -30 -14 -86 -37 -125 -51 -69
-26 -78 -30 -147 -60 -50 -21 -51 -21 -153 18 -363 140 -786 342 -1062 505
-29 17 -55 31 -58 31 -2 0 -23 12 -47 27 -23 15 -49 32 -59 38 -104 64 -149
93 -179 117 -20 15 -40 28 -43 28 -17 0 -347 247 -498 372 -196 164 -433 392
-574 552 -38 44 -76 86 -85 95 -8 9 -44 52 -80 96 -35 44 -69 85 -75 90 -6 6
-45 55 -85 109 -202 272 -393 575 -547 866 -30 58 -59 112 -63 120 -25 46
-129 274 -129 282 0 5 -7 22 -15 36 -8 15 -30 68 -50 117 -20 50 -40 99 -44
110 -8 19 -18 44 -54 140 -8 22 -22 58 -30 80 -23 58 -72 201 -91 265 -9 30
-29 96 -45 145 -15 50 -36 119 -46 155 -9 36 -23 85 -30 110 -7 25 -21 81 -30
125 -10 44 -23 100 -30 125 -16 57 -39 169 -60 285 -9 50 -22 122 -30 160 -32
162 -66 457 -91 770 -12 153 -18 397 -21 895 -5 604 -4 687 9 698 12 10 34 10
99 2 46 -6 237 -13 424 -17 273 -5 373 -3 500 10 88 9 195 19 237 22 43 4 80
11 84 16 3 5 31 9 62 10 31 0 75 4 97 8 l40 9 -40 2 c-69 4 -139 -2 -153 -13
-20 -16 -1117 -15 -1242 1 -147 19 -164 20 -177 15z"/>
<path d="M11780 12551 c-20 -6 -15 -9 30 -14 75 -9 120 -9 120 2 0 4 -21 11
-46 15 -54 7 -70 7 -104 -3z"/>
</g>
</svg>
