<?xml version="1.0" standalone="no"?>

<svg version="1.0" xmlns="http://www.w3.org/2000/svg"
 width="600.000000pt" height="600.000000pt" viewBox="0 0 600.000000 600.000000"
 preserveAspectRatio="xMidYMid meet">
<g transform="translate(0.000000,600.000000) scale(0.100000,-0.100000)"
fill="#ffffff" stroke="none">
<path d="M2850 5339 c-247 -29 -490 -117 -694 -253 -339 -226 -585 -600 -666
-1012 -27 -136 -29 -381 -5 -519 35 -201 115 -413 214 -570 l30 -47 24 39 c13
21 36 61 51 89 l28 51 -35 69 c-113 227 -162 482 -139 716 48 469 317 878 727
1103 81 44 207 92 322 122 99 25 124 27 293 27 203 1 295 -15 448 -75 321
-127 586 -367 736 -667 189 -377 199 -834 26 -1189 -28 -56 -50 -107 -50 -113
0 -7 19 -49 43 -94 29 -55 48 -81 58 -78 9 2 10 1 3 -5 -7 -4 -14 -19 -15 -33
-3 -20 -11 -11 -43 53 -22 42 -43 77 -48 77 -16 0 86 -185 104 -188 23 -4 88
94 143 216 50 109 109 326 131 472 14 100 17 336 5 430 -5 33 -7 -15 -5 -120
l2 -175 -8 155 c-22 435 -186 809 -482 1097 -193 188 -485 344 -741 397 -164
34 -308 42 -457 25z m1661 -1840 c-12 -56 -35 -142 -52 -193 -35 -100 -128
-287 -165 -332 -13 -16 -3 7 22 51 106 181 174 375 200 570 6 39 10 50 12 32
2 -15 -6 -73 -17 -128z"/>
<path d="M2770 5120 c-264 -49 -489 -169 -686 -365 -207 -204 -346 -467 -399
-754 -19 -107 -20 -330 0 -436 29 -161 82 -307 144 -395 28 -40 26 -36 -28 85
-110 248 -132 560 -57 812 61 202 197 428 346 572 221 215 444 331 730 379
246 41 547 -6 759 -119 94 -50 225 -137 271 -178 165 -150 231 -233 302 -374
35 -70 48 -70 20 0 -11 26 -27 69 -36 94 -42 118 -217 326 -375 444 -97 74
-267 162 -386 200 -176 56 -417 71 -605 35z"/>
<path d="M2980 4970 c0 -7 3 -10 7 -7 3 4 3 10 0 14 -4 3 -7 0 -7 -7z"/>
<path d="M3011 4975 c0 -5 6 -21 14 -35 8 -14 14 -20 14 -15 0 6 -6 21 -14 35
-8 14 -14 21 -14 15z"/>
<path d="M2964 4938 c-4 -7 -3 -8 4 -4 12 7 16 16 8 16 -3 0 -8 -5 -12 -12z"/>
<path d="M2966 4887 c-16 -28 -70 -126 -121 -217 -51 -91 -224 -401 -385 -690
-161 -289 -323 -579 -360 -645 -37 -66 -138 -246 -225 -400 -87 -154 -175
-310 -197 -347 l-39 -68 -114 0 c-63 0 -115 -4 -115 -8 0 -5 10 -18 23 -30
l23 -22 552 0 552 0 34 67 33 67 15 -29 c8 -17 39 -94 68 -172 29 -79 56 -143
59 -143 4 0 12 12 18 28 l12 27 -6 -30 c-3 -16 -10 -34 -14 -39 -12 -13 -12
-76 0 -76 5 0 13 12 19 28 21 56 61 179 82 252 12 41 25 80 30 85 4 6 10 22
13 36 4 14 22 60 42 103 31 69 37 76 54 66 11 -5 22 -24 26 -41 4 -17 9 -28
12 -25 4 3 -7 67 -22 141 -16 75 -32 130 -35 123 -4 -7 -20 -57 -35 -111 -16
-53 -30 -95 -32 -93 -3 2 12 63 33 135 21 72 39 129 41 127 1 -1 41 -184 89
-407 47 -222 89 -408 94 -412 4 -5 11 4 14 18 4 15 9 25 12 22 3 -2 -2 -23
-11 -45 -9 -22 -15 -53 -13 -69 l4 -28 13 30 c20 45 36 84 57 140 10 28 26 64
35 80 9 17 22 47 28 67 22 68 69 85 94 33 32 -67 24 -66 575 -68 461 -2 500
-1 525 16 33 22 53 51 76 115 22 59 13 60 -44 6 -20 -19 -44 -34 -53 -33 -14
0 -15 2 -2 7 29 13 70 44 70 53 0 5 -54 9 -120 9 -80 0 -120 4 -120 11 0 6 -9
22 -20 36 -11 14 -17 29 -14 34 3 5 0 9 -7 9 -7 0 -10 3 -6 6 3 3 -3 15 -13
27 -11 11 -17 24 -14 28 2 4 0 10 -5 14 -5 3 -16 18 -24 33 -8 15 -35 65 -61
112 -187 336 -199 359 -175 344 8 -4 8 0 0 15 -13 24 -23 28 -15 6 12 -31 -5
-13 -30 31 -31 56 -34 79 -5 44 l21 -25 -18 32 c-10 19 -21 28 -25 22 -6 -11
-34 37 -242 416 -182 333 -202 367 -211 369 -4 0 -53 -80 -107 -180 l-99 -180
86 -155 c104 -187 400 -722 464 -839 26 -47 61 -111 79 -142 l33 -58 -217 0
c-211 0 -216 0 -210 20 3 11 1 28 -5 37 -9 15 -10 14 -5 -7 5 -22 4 -23 -5 -7
-7 10 -9 25 -6 33 3 8 2 13 -3 10 -5 -3 -32 53 -61 124 -30 72 -55 128 -58
126 -2 -3 -37 -105 -77 -228 l-72 -223 -7 48 c-4 27 -5 51 -2 55 3 3 6 -5 6
-18 0 -13 3 -21 6 -18 3 3 2 23 -2 44 -6 31 -9 35 -14 19 -5 -15 -8 -11 -14
20 -13 71 -147 690 -153 705 -7 18 7 59 -138 -414 -63 -209 -117 -382 -119
-384 -3 -2 -37 79 -118 288 -9 23 -15 15 -74 -102 l-64 -128 -226 0 c-205 0
-226 2 -220 16 4 9 64 118 135 243 194 342 623 1098 715 1259 44 78 83 142 86
142 6 0 195 -340 195 -352 0 -4 -4 -9 -10 -9 -5 -1 -26 29 -45 67 -75 148
-134 254 -141 254 -5 0 -299 -511 -820 -1427 l-98 -173 62 1 c34 1 52 4 40 6
-13 2 -23 6 -23 8 0 3 17 34 38 70 52 93 53 95 88 150 18 28 63 106 101 175
96 173 103 185 166 286 30 49 83 139 117 199 191 335 274 464 315 491 45 30
100 -4 152 -94 42 -72 95 -144 101 -137 4 3 2 9 -3 13 -11 8 -35 71 -35 92 0
9 6 8 20 -5 19 -18 20 -17 20 2 0 11 7 26 14 33 8 6 20 28 27 48 10 31 41 98
80 174 5 10 9 26 9 35 1 10 12 43 25 73 20 48 21 56 8 61 -9 3 -66 97 -127
210 -226 417 -271 499 -276 499 -3 0 -18 -24 -34 -53z m-39 -2194 c-4 -3 -7 0
-7 7 0 7 3 10 7 7 3 -4 3 -10 0 -14z m-10 -30 c-4 -3 -7 0 -7 7 0 7 3 10 7 7
3 -4 3 -10 0 -14z m-29 -91 c-11 -40 -23 -70 -25 -68 -2 2 6 36 18 75 11 40
23 70 25 68 2 -2 -6 -36 -18 -75z m539 -74 l16 -38 346 -3 346 -2 -353 0 -353
0 -30 75 c-17 41 -35 77 -40 81 -5 3 -7 14 -3 23 5 14 13 4 31 -40 13 -33 31
-76 40 -96z m-80 85 c-4 -3 -7 0 -7 7 0 7 3 10 7 7 3 -4 3 -10 0 -14z m-17
-50 c-11 -17 -11 -17 -6 0 3 10 6 24 7 30 0 9 2 9 5 0 3 -7 0 -20 -6 -30z
m-13 -40 c-4 -3 -7 0 -7 7 0 7 3 10 7 7 3 -4 3 -10 0 -14z m-460 -20 c-4 -3
-7 0 -7 7 0 7 3 10 7 7 3 -4 3 -10 0 -14z m450 -10 c-4 -3 -7 0 -7 7 0 7 3 10
7 7 3 -4 3 -10 0 -14z m-460 -20 c-4 -3 -7 0 -7 7 0 7 3 10 7 7 3 -4 3 -10 0
-14z m1366 10 c-7 -2 -21 -2 -30 0 -10 3 -4 5 12 5 17 0 24 -2 18 -5z m205 0
c-10 -2 -26 -2 -35 0 -10 3 -2 5 17 5 19 0 27 -2 18 -5z m-1121 -20 c-4 -3 -7
0 -7 7 0 7 3 10 7 7 3 -4 3 -10 0 -14z m-468 -52 c-7 -23 -14 -39 -16 -37 -3
2 1 23 8 45 7 23 14 39 16 37 3 -2 -1 -23 -8 -45z m458 22 c-4 -3 -7 0 -7 7 0
7 3 10 7 7 3 -4 3 -10 0 -14z m-10 -30 c-4 -3 -7 0 -7 7 0 7 3 10 7 7 3 -4 3
-10 0 -14z m-10 -30 c-4 -3 -7 0 -7 7 0 7 3 10 7 7 3 -4 3 -10 0 -14z m-460
-30 c-4 -3 -7 0 -7 7 0 7 3 10 7 7 3 -4 3 -10 0 -14z m450 0 c-4 -3 -7 0 -7 7
0 7 3 10 7 7 3 -4 3 -10 0 -14z m-10 -30 c-4 -3 -7 0 -7 7 0 7 3 10 7 7 3 -4
3 -10 0 -14z m-10 -30 c-4 -3 -7 0 -7 7 0 7 3 10 7 7 3 -4 3 -10 0 -14z m-10
-30 c-4 -3 -7 0 -7 7 0 7 3 10 7 7 3 -4 3 -10 0 -14z"/>
<path d="M4370 4504 c0 -6 7 -19 16 -30 14 -18 14 -18 3 6 -14 31 -19 36 -19
24z"/>
<path d="M4446 4328 c19 -61 43 -122 43 -112 1 14 -40 134 -46 134 -2 0 -1
-10 3 -22z"/>
<path d="M4190 4275 c0 -5 5 -17 10 -25 5 -8 10 -10 10 -5 0 6 -5 17 -10 25
-5 8 -10 11 -10 5z"/>
<path d="M4491 4184 c0 -11 3 -14 6 -6 3 7 2 16 -1 19 -3 4 -6 -2 -5 -13z"/>
<path d="M4501 4144 c0 -11 3 -14 6 -6 3 7 2 16 -1 19 -3 4 -6 -2 -5 -13z"/>
<path d="M3430 4090 c-11 -22 -18 -40 -15 -40 2 0 14 18 25 40 11 22 18 40 15
40 -2 0 -14 -18 -25 -40z"/>
<path d="M4517 4075 c3 -27 7 -52 9 -54 7 -8 2 54 -6 79 -6 17 -7 9 -3 -25z"/>
<path d="M3370 3979 c-7 -11 -10 -23 -7 -25 2 -2 9 7 15 21 14 30 7 33 -8 4z"/>
<path d="M3720 3670 c6 -11 13 -20 16 -20 2 0 0 9 -6 20 -6 11 -13 20 -16 20
-2 0 0 -9 6 -20z"/>
<path d="M3740 3634 c0 -6 7 -19 16 -30 14 -18 14 -18 3 6 -14 31 -19 36 -19
24z"/>
<path d="M1452 3605 c0 -16 2 -22 5 -12 2 9 2 23 0 30 -3 6 -5 -1 -5 -18z"/>
<path d="M3270 3615 c0 -6 292 -535 398 -720 47 -82 107 -190 133 -240 47 -88
47 -90 26 -97 -15 -4 -9 -6 21 -7 41 -1 42 0 31 22 -16 29 -70 109 -85 124 -7
7 -18 27 -26 45 -24 60 -124 252 -198 378 -39 69 -85 150 -102 180 -16 30 -38
64 -47 75 -10 11 -32 46 -50 78 -87 159 -101 182 -101 162z"/>
<path d="M3785 3551 c9 -28 74 -141 81 -141 5 0 -73 148 -84 160 -2 3 -1 -6 3
-19z"/>
<path d="M1462 3535 c0 -16 2 -22 5 -12 2 9 2 23 0 30 -3 6 -5 -1 -5 -18z"/>
<path d="M1476 3462 c5 -44 63 -237 69 -230 2 2 -11 55 -30 118 -18 63 -35
124 -39 135 -3 11 -3 1 0 -23z"/>
<path d="M3870 3391 c0 -6 4 -13 10 -16 6 -3 7 1 4 9 -7 18 -14 21 -14 7z"/>
<path d="M3905 3330 c3 -5 8 -10 11 -10 3 0 2 5 -1 10 -3 6 -8 10 -11 10 -3 0
-2 -4 1 -10z"/>
<path d="M3031 3304 c0 -11 3 -14 6 -6 3 7 2 16 -1 19 -3 4 -6 -2 -5 -13z"/>
<path d="M3041 3254 c0 -11 3 -14 6 -6 3 7 2 16 -1 19 -3 4 -6 -2 -5 -13z"/>
<path d="M3061 3154 c0 -11 3 -14 6 -6 3 7 2 16 -1 19 -3 4 -6 -2 -5 -13z"/>
<path d="M1785 3006 c-50 -96 -62 -112 -75 -103 -12 10 -12 7 1 -13 27 -42 44
-36 83 30 20 34 36 65 36 71 0 5 9 35 20 66 24 68 23 63 7 63 -7 0 -39 -51
-72 -114z"/>
<path d="M3070 3110 c0 -7 3 -10 7 -7 3 4 3 10 0 14 -4 3 -7 0 -7 -7z"/>
<path d="M1856 2954 c-67 -118 -84 -156 -43 -94 33 48 120 210 113 210 -2 0
-34 -52 -70 -116z"/>
<path d="M3090 3020 c0 -7 3 -10 7 -7 3 4 3 10 0 14 -4 3 -7 0 -7 -7z"/>
<path d="M1685 2930 c3 -5 8 -10 11 -10 3 0 2 5 -1 10 -3 6 -8 10 -11 10 -3 0
-2 -4 1 -10z"/>
<path d="M2650 2790 c0 -7 3 -10 7 -7 3 4 3 10 0 14 -4 3 -7 0 -7 -7z"/>
<path d="M3420 2745 c0 -5 5 -17 10 -25 5 -8 10 -10 10 -5 0 6 -5 17 -10 25
-5 8 -10 11 -10 5z"/>
<path d="M3440 2690 c0 -7 3 -10 7 -7 3 4 3 10 0 14 -4 3 -7 0 -7 -7z"/>
<path d="M2594 2506 l-27 -56 -376 -1 c-207 -1 -461 -2 -564 -3 -170 -1 -190
1 -198 16 -5 10 -19 22 -30 28 -20 11 -20 11 -5 -19 9 -16 21 -33 27 -36 5 -4
14 -17 19 -29 4 -13 26 -31 47 -41 35 -17 73 -18 551 -17 l514 2 41 35 c22 19
46 35 53 35 7 0 22 -15 34 -32 19 -29 20 -30 15 -8 -11 41 -57 164 -65 174 -5
4 -21 -17 -36 -48z"/>
<path d="M677 1922 c5 -21 -109 -306 -133 -333 -15 -16 -13 -18 23 -22 l38 -4
-38 -1 c-34 -2 -37 -4 -27 -22 15 -27 75 -28 90 -1 14 27 13 34 -4 28 -8 -3
-17 1 -20 9 -3 7 -2 13 2 12 4 -2 19 10 35 25 24 25 33 28 86 26 54 -2 60 -5
66 -27 3 -13 1 -30 -6 -38 -9 -11 -8 -19 6 -34 21 -23 59 -26 94 -7 29 15 24
32 -9 30 -14 -1 -17 1 -8 3 15 5 15 7 -1 37 -10 18 -45 101 -77 184 -59 152
-59 153 -91 153 -25 0 -30 -3 -26 -18z m30 -79 c-4 -3 -10 -3 -14 0 -3 4 0 7
7 7 7 0 10 -3 7 -7z m-20 -30 c-4 -3 -7 0 -7 7 0 7 3 10 7 7 3 -4 3 -10 0 -14z
m63 -85 c0 -15 -9 -18 -56 -18 -50 0 -55 2 -49 18 4 9 12 30 17 45 6 15 12 26
15 24 2 -3 -3 -21 -11 -41 -8 -20 -11 -36 -6 -36 12 0 54 72 52 90 -1 8 7 -3
18 -25 11 -22 20 -48 20 -57z m-47 -55 c-13 -2 -33 -2 -45 0 -13 2 -3 4 22 4
25 0 35 -2 23 -4z m64 0 c-4 -3 -10 -3 -14 0 -3 4 0 7 7 7 7 0 10 -3 7 -7z
m-150 -40 c-4 -3 -7 0 -7 7 0 7 3 10 7 7 3 -4 3 -10 0 -14z m216 -70 c-7 -2
-19 -2 -25 0 -7 3 -2 5 12 5 14 0 19 -2 13 -5z"/>
<path d="M1085 1755 c0 -117 4 -185 10 -185 6 0 3 -5 -5 -10 -13 -9 -12 -12 4
-25 14 -11 43 -15 95 -14 104 2 132 9 143 38 7 20 6 22 -6 12 -9 -8 -45 -11
-103 -8 l-88 3 92 2 92 2 10 38 c16 55 14 57 -18 23 -27 -29 -34 -31 -95 -31
l-66 0 0 151 c0 84 5 159 10 170 10 17 7 19 -32 19 l-43 0 0 -185z"/>
<path d="M1455 1894 c-8 -56 5 -76 34 -50 10 9 29 18 42 19 13 0 27 6 31 12 4
5 8 -58 8 -142 0 -91 -4 -154 -10 -158 -13 -8 4 -41 26 -49 21 -8 84 12 84 26
0 6 -8 16 -17 23 -14 10 -18 35 -21 140 -3 88 -1 126 6 121 6 -3 14 -1 17 5
11 17 48 27 66 19 25 -14 36 2 31 43 l-4 37 -143 0 -143 0 -7 -46z m103 9
c-10 -2 -26 -2 -35 0 -10 3 -2 5 17 5 19 0 27 -2 18 -5z m130 0 c-10 -2 -26
-2 -35 0 -10 3 -2 5 17 5 19 0 27 -2 18 -5z m-65 -340 c-13 -2 -33 -2 -45 0
-13 2 -3 4 22 4 25 0 35 -2 23 -4z"/>
<path d="M1930 1921 c5 -11 10 -79 10 -152 l0 -133 33 -35 c17 -19 24 -29 15
-22 -12 9 -18 10 -18 2 0 -6 18 -22 40 -36 30 -19 53 -25 94 -25 50 0 56 3 90
40 20 22 36 47 36 56 0 10 -9 5 -26 -15 -14 -17 -31 -31 -37 -31 -7 1 0 11 14
23 43 36 49 58 50 194 1 82 4 119 9 103 7 -22 8 -20 7 13 -1 36 -2 37 -40 37
-33 0 -38 -2 -27 -14 8 -11 11 -56 8 -151 -3 -130 -4 -138 -27 -156 -36 -29
-105 -26 -137 6 -25 25 -25 27 -22 170 l3 145 -43 0 c-39 0 -42 -2 -32 -19z
m113 -358 c-7 -2 -19 -2 -25 0 -7 3 -2 5 12 5 14 0 19 -2 13 -5z m104 0 c-4
-3 -10 -3 -14 0 -3 4 0 7 7 7 7 0 10 -3 7 -7z m-70 -10 c-4 -3 -10 -3 -14 0
-3 4 0 7 7 7 7 0 10 -3 7 -7z"/>
<path d="M2450 1921 c5 -11 10 -84 10 -166 0 -82 -5 -155 -10 -166 -10 -17 -7
-19 32 -19 l43 0 -4 46 c-2 32 0 44 8 40 6 -4 11 0 11 8 0 19 21 21 40 4 7 -7
3 4 -9 25 -13 20 -20 37 -18 37 12 0 48 -71 41 -81 -4 -7 -3 -9 3 -6 13 8 46
-50 37 -65 -4 -6 -3 -8 4 -5 5 4 21 2 34 -3 23 -10 23 -10 1 -6 -29 5 -29 -8
-1 -28 29 -21 30 -20 61 8 26 24 26 25 6 31 -11 4 -38 34 -58 67 l-38 59 28
29 c32 31 41 64 12 38 -10 -9 -29 -21 -43 -27 -21 -10 -22 -9 -6 1 52 36 66
52 72 83 14 77 -47 115 -181 115 -82 0 -85 -1 -75 -19z m164 -32 c19 -15 26
-30 26 -55 0 -47 -29 -74 -80 -74 l-40 0 0 54 0 53 55 -1 c48 -1 53 0 40 13
-8 8 -34 18 -57 22 l-43 6 36 2 c23 1 46 -7 63 -20z"/>
<path d="M3037 1921 c4 -17 -75 -229 -118 -312 -14 -28 -16 -39 -6 -43 6 -4 1
-4 -12 -2 l-25 5 26 -26 c20 -20 32 -24 52 -19 33 8 45 35 23 48 -15 8 -13 13
15 40 29 28 35 30 89 26 36 -3 60 0 62 6 2 6 7 -4 12 -23 6 -26 4 -37 -9 -46
-24 -18 1 -43 50 -51 36 -5 44 -3 58 17 13 19 14 25 2 31 -7 4 -46 89 -86 188
l-73 180 -33 0 c-27 0 -31 -3 -27 -19z m0 -138 c-4 -3 -7 0 -7 7 0 7 3 10 7 7
3 -4 3 -10 0 -14z m77 -50 c7 -22 5 -23 -51 -23 -32 0 -53 4 -48 8 6 4 19 20
28 35 11 17 24 26 32 23 10 -3 12 1 9 12 -3 9 1 6 9 -8 8 -14 18 -35 21 -47z
m23 -70 c-4 -3 -7 0 -7 7 0 7 3 10 7 7 3 -4 3 -10 0 -14z m90 -100 c-4 -3 -10
-3 -14 0 -3 4 0 7 7 7 7 0 10 -3 7 -7z"/>
<path d="M3468 1923 c12 -24 -12 -319 -27 -337 -9 -11 -9 -15 1 -19 8 -3 5 -6
-7 -7 -19 -1 -19 -2 4 -20 30 -26 43 -25 70 4 17 18 19 25 8 29 -24 9 -29 66
-11 120 15 45 17 47 33 33 10 -9 20 -14 23 -11 7 8 71 -136 70 -157 -2 -48 42
7 91 112 14 30 34 62 45 71 19 16 19 15 25 -65 5 -67 3 -84 -11 -99 -16 -18
-15 -20 7 -38 28 -23 64 -24 85 -3 20 19 20 28 2 43 -13 11 -17 51 -31 270 -3
40 0 70 7 78 10 12 4 14 -31 11 l-42 -3 -34 -75 c-18 -41 -45 -102 -59 -134
l-27 -60 -45 100 c-25 54 -53 116 -62 136 -15 34 -21 38 -55 38 -33 0 -37 -2
-29 -17z m47 -93 c3 -5 4 -10 1 -10 -3 0 -8 5 -11 10 -3 6 -4 10 -1 10 3 0 8
-4 11 -10z m262 -7 c-4 -3 -7 0 -7 7 0 7 3 10 7 7 3 -4 3 -10 0 -14z m-230
-70 c-4 -3 -7 0 -7 7 0 7 3 10 7 7 3 -4 3 -10 0 -14z m270 -189 c-3 -3 -12 -4
-19 -1 -8 3 -5 6 6 6 11 1 17 -2 13 -5z"/>
<path d="M4059 1921 c14 -26 14 -306 1 -332 -9 -15 -7 -19 7 -20 14 -1 13 -3
-4 -7 -17 -5 -20 -11 -13 -22 7 -11 35 -15 112 -18 57 -1 109 1 116 6 7 5 15
22 17 38 3 16 8 45 11 64 l5 35 -30 -32 c-27 -30 -35 -33 -90 -33 l-61 0 0 34
c0 47 24 69 71 64 20 -2 35 0 33 4 -3 5 0 8 5 8 6 0 11 20 11 47 0 44 -1 45
-18 30 -11 -10 -36 -17 -60 -17 l-42 0 0 40 c0 34 4 42 26 50 38 15 90 12 104
-5 22 -27 31 -16 28 33 l-3 47 -118 3 c-115 3 -118 2 -108 -17z m149 -18 c-16
-2 -40 -2 -55 0 -16 2 -3 4 27 4 30 0 43 -2 28 -4z m70 -48 c-3 -3 -9 2 -12
12 -6 14 -5 15 5 6 7 -7 10 -15 7 -18z m-75 -122 c-7 -2 -21 -2 -30 0 -10 3
-4 5 12 5 17 0 24 -2 18 -5z m0 -170 c-18 -2 -48 -2 -65 0 -18 2 -4 4 32 4 36
0 50 -2 33 -4z"/>
<path d="M4478 1769 c3 -148 1 -173 -13 -189 -13 -15 -14 -23 -5 -39 9 -18 20
-21 85 -21 148 0 212 38 234 140 41 189 -33 280 -228 280 l-76 0 3 -171z m125
134 c-13 -2 -33 -2 -45 0 -13 2 -3 4 22 4 25 0 35 -2 23 -4z m68 -24 c19 -16
20 -18 4 -10 -34 17 -51 31 -39 31 7 0 22 -9 35 -21z m7 -38 c20 -21 22 -23
17 -6 -5 16 -4 17 6 8 17 -17 24 -123 10 -164 -16 -47 -66 -79 -124 -79 l-47
0 0 125 c0 69 1 125 3 125 1 0 20 6 42 14 46 16 62 12 93 -23z m47 -236 c-16
-14 -34 -25 -40 -25 -9 0 55 49 65 49 3 0 -8 -11 -25 -24z m-137 -42 c-21 -2
-55 -2 -75 0 -21 2 -4 4 37 4 41 0 58 -2 38 -4z"/>
<path d="M4938 1928 c8 -8 12 -63 12 -180 0 -148 -2 -168 -17 -178 -17 -9 -16
-11 6 -30 33 -28 69 -26 83 5 9 19 9 28 0 37 -14 14 -16 248 -3 316 l8 42 -50
0 c-40 0 -48 -3 -39 -12z"/>
<path d="M5197 1918 c12 -13 42 -54 66 -92 44 -67 45 -70 29 -95 -49 -78 -104
-149 -122 -157 l-21 -9 21 -23 c11 -12 32 -22 45 -22 26 0 60 39 46 53 -11 11
48 77 70 77 10 0 23 -8 29 -17 10 -16 11 -16 5 2 -24 70 -20 71 19 4 25 -44
26 -48 10 -64 -15 -14 -15 -18 -2 -31 8 -8 32 -17 53 -21 32 -5 40 -3 56 18
17 23 17 25 -5 49 -12 14 -46 62 -75 108 l-54 82 28 41 c16 22 33 43 38 46 6
3 -5 -15 -22 -41 -37 -53 -36 -74 0 -26 13 17 34 42 47 54 12 13 22 31 22 41
0 16 -2 16 -18 4 -10 -8 -5 -2 10 14 l28 27 -45 0 c-30 0 -44 -4 -40 -11 7
-10 -53 -119 -65 -119 -11 0 -71 110 -65 120 4 6 -16 10 -51 10 l-57 0 20 -22z
m84 -271 c-10 -9 -11 -8 -5 6 3 10 9 15 12 12 3 -3 0 -11 -7 -18z"/>
<path d="M1165 1911 c-3 -5 -1 -12 5 -16 5 -3 10 1 10 9 0 18 -6 21 -15 7z"/>
<path d="M2011 1894 c0 -11 3 -14 6 -6 3 7 2 16 -1 19 -3 4 -6 -2 -5 -13z"/>
<path d="M1750 1839 c0 -5 5 -7 10 -4 6 3 10 8 10 11 0 2 -4 4 -10 4 -5 0 -10
-5 -10 -11z"/>
<path d="M2490 1560 l-55 -5 25 -17 c29 -21 50 -23 74 -5 31 22 14 32 -44 27z"/>
<path d="M1642 1250 c-24 -60 -41 -114 -37 -120 11 -18 32 -11 50 16 15 24 22
26 63 21 27 -3 49 -11 54 -21 5 -9 18 -16 28 -16 21 0 25 10 12 26 -5 5 -26
53 -48 106 -54 134 -65 133 -122 -12z m98 -26 c0 -8 -39 -4 -45 5 -3 5 0 21 7
36 l12 26 13 -32 c7 -17 13 -33 13 -35z"/>
<path d="M2078 1340 c-62 -48 -61 -129 3 -192 35 -35 43 -38 77 -32 37 6 72
35 72 60 0 22 -20 27 -39 10 -23 -21 -74 -20 -93 2 -24 27 -26 45 -12 74 18
34 86 58 114 40 15 -9 19 -8 25 6 17 46 -98 71 -147 32z"/>
<path d="M2500 1253 c-25 -59 -46 -111 -48 -114 -8 -17 31 -16 48 1 11 11 40
22 70 26 46 6 52 5 57 -14 6 -25 32 -37 39 -19 2 7 -15 60 -39 118 -59 142
-68 142 -127 2z m90 -15 c0 -12 -8 -18 -23 -18 -35 0 -38 9 -14 36 22 25 37
18 37 -18z"/>
<path d="M2909 1328 c0 -18 -1 -71 -1 -118 l-1 -85 62 -3 c33 -2 70 2 82 8 41
23 63 119 38 173 -17 37 -60 57 -123 57 l-56 0 -1 -32z m125 -29 c-2 -4 3 -9
11 -13 9 -3 15 -18 15 -40 0 -43 -37 -76 -87 -76 l-34 0 3 62 c3 57 5 63 28
68 31 8 69 7 64 -1z"/>
<path d="M3340 1246 l0 -114 28 -9 c15 -6 50 -7 77 -4 42 5 51 10 53 29 3 21
0 22 -58 22 -53 0 -61 2 -58 18 2 11 14 18 38 20 41 4 60 18 60 43 0 16 -8 19
-50 19 -74 0 -61 36 15 42 33 2 41 7 43 26 3 21 0 22 -72 22 l-76 0 0 -114z"/>
<path d="M3732 1243 c2 -97 6 -118 18 -118 11 0 16 15 20 55 5 58 25 78 36 35
3 -14 10 -25 14 -25 5 0 12 -9 15 -21 6 -18 27 -24 26 -6 0 3 11 19 24 33 14
15 26 32 27 38 1 6 4 -16 7 -49 4 -44 10 -60 21 -60 12 0 16 21 18 118 3 117
3 117 -21 117 -19 0 -29 -12 -52 -60 -16 -33 -32 -60 -37 -60 -4 0 -21 27 -38
60 -25 49 -35 60 -55 60 l-26 0 3 -117z"/>
<path d="M4170 1354 c0 -3 8 -18 18 -32 41 -59 64 -120 60 -156 -2 -21 1 -37
8 -40 19 -7 34 16 34 55 0 21 8 47 20 62 16 21 50 97 50 113 0 2 -8 4 -18 4
-11 0 -27 -16 -41 -40 -12 -22 -26 -42 -31 -45 -4 -3 -20 15 -34 40 -17 29
-34 45 -46 45 -11 0 -20 -3 -20 -6z"/>
<path d="M1070 1251 c0 -26 33 -31 176 -29 132 3 149 5 152 21 3 16 -10 17
-162 17 -91 0 -166 -4 -166 -9z"/>
<path d="M4572 1243 c3 -16 20 -18 153 -21 143 -2 205 6 205 29 0 5 -81 9
-181 9 -166 0 -180 -1 -177 -17z"/>
<path d="M2973 964 c-8 -22 9 -49 33 -49 30 0 27 59 -4 63 -14 2 -25 -3 -29
-14z"/>
<path d="M2275 949 c305 -11 605 -10 605 1 0 7 -138 9 -397 8 -345 -1 -372 -3
-208 -9z"/>
<path d="M3120 950 c0 -11 392 -12 615 -1 107 6 52 8 -237 9 -247 1 -378 -1
-378 -8z"/>
<path d="M1000 795 l0 -55 35 0 c19 0 35 5 35 10 0 6 -11 10 -25 10 -30 0 -33
16 -4 23 23 6 17 27 -7 27 -8 0 -14 5 -14 10 0 6 9 10 20 10 11 0 20 5 20 10
0 6 -13 10 -30 10 -30 0 -30 -1 -30 -55z"/>
<path d="M1120 795 c0 -30 5 -55 10 -55 6 0 10 12 10 28 1 23 2 24 11 10 14
-24 28 -22 39 5 8 20 9 19 9 -10 1 -57 21 -36 21 22 0 59 -13 71 -32 30 -6
-14 -14 -25 -18 -25 -4 0 -12 11 -18 25 -19 41 -32 29 -32 -30z"/>
<path d="M1280 795 l0 -55 35 0 c19 0 35 5 35 10 0 6 -11 10 -25 10 -31 0 -32
14 -2 27 l22 10 -22 7 c-31 10 -29 26 3 26 14 0 23 4 19 10 -3 6 -19 10 -36
10 -29 0 -29 -1 -29 -55z"/>
<path d="M1407 843 c-11 -10 -8 -103 3 -103 6 0 10 9 10 20 0 11 3 20 8 20 4
0 13 -9 20 -20 19 -31 27 -24 27 25 0 30 -5 49 -15 55 -18 11 -44 13 -53 3z
m51 -30 c2 -8 -5 -13 -17 -13 -12 0 -21 6 -21 16 0 18 31 15 38 -3z"/>
<path d="M1547 832 c-21 -23 -22 -56 -1 -76 30 -31 84 -14 84 26 0 13 -8 18
-25 18 -14 0 -25 -4 -25 -10 0 -5 5 -10 10 -10 6 0 10 -5 10 -11 0 -18 -45 -5
-48 14 -6 28 18 49 47 42 21 -5 23 -4 12 9 -18 21 -44 20 -64 -2z"/>
<path d="M1687 843 c-4 -3 -7 -28 -7 -55 l0 -48 35 0 c19 0 35 5 35 10 0 6
-12 10 -26 10 -32 0 -27 22 7 31 23 7 21 10 -10 13 -27 2 -24 26 4 26 15 0 24
4 20 10 -7 11 -48 14 -58 3z"/>
<path d="M1807 844 c-9 -10 -8 -64 3 -89 7 -17 9 -15 9 13 1 40 11 41 33 2 25
-44 38 -37 38 20 0 28 -4 50 -10 50 -5 0 -10 -12 -10 -27 l0 -27 -28 33 c-15
18 -30 29 -35 25z"/>
<path d="M1957 832 c-36 -40 -3 -101 48 -88 14 4 25 11 25 16 0 6 -10 8 -23 5
-15 -4 -28 0 -37 10 -19 23 0 51 34 48 29 -2 35 11 10 21 -26 10 -40 7 -57
-12z"/>
<path d="M2081 845 c0 -5 6 -21 14 -35 8 -14 14 -35 15 -47 0 -13 5 -23 10
-23 6 0 10 10 10 23 1 12 7 33 15 47 21 36 18 49 -5 21 l-20 -23 -20 23 c-10
13 -19 20 -19 14z"/>
<path d="M2301 837 c-6 -8 -8 -16 -5 -20 3 -3 0 -15 -6 -27 -16 -29 3 -50 44
-48 29 1 33 4 33 30 0 15 -4 28 -9 28 -4 0 -8 -5 -8 -11 0 -5 -4 -7 -10 -4 -6
4 -5 13 3 26 10 16 9 21 -3 29 -20 13 -26 12 -39 -3z m29 -17 c0 -5 -2 -10 -4
-10 -3 0 -8 5 -11 10 -3 6 -1 10 4 10 6 0 11 -4 11 -10z m0 -50 c0 -5 -4 -10
-9 -10 -6 0 -13 5 -16 10 -3 6 1 10 9 10 9 0 16 -4 16 -10z"/>
<path d="M2504 825 c-31 -47 4 -97 56 -80 28 9 25 27 -3 20 -15 -4 -28 0 -37
10 -19 23 0 51 34 48 29 -2 35 11 10 21 -29 11 -43 6 -60 -19z"/>
<path d="M2640 794 c0 -34 4 -53 10 -49 6 3 10 14 10 23 1 14 4 13 19 -5 11
-13 21 -23 23 -23 1 0 4 21 5 47 2 50 -7 63 -44 63 -21 0 -23 -5 -23 -56z m48
18 c2 -7 -3 -12 -12 -12 -9 0 -16 7 -16 16 0 17 22 14 28 -4z"/>
<path d="M2770 796 c0 -31 5 -56 10 -56 6 0 10 22 10 49 0 28 -4 53 -10 56 -6
4 -10 -15 -10 -49z"/>
<path d="M2840 840 c0 -5 7 -10 15 -10 11 0 15 -12 15 -45 0 -25 5 -45 10 -45
6 0 10 20 10 45 0 34 4 45 16 45 8 0 12 5 9 10 -3 6 -22 10 -41 10 -19 0 -34
-4 -34 -10z"/>
<path d="M2970 795 c0 -35 4 -54 10 -50 6 3 10 26 10 50 0 24 -4 47 -10 50 -6
4 -10 -15 -10 -50z"/>
<path d="M3057 832 c-10 -10 -17 -28 -17 -40 0 -42 54 -68 79 -38 10 12 6 14
-21 13 -30 -2 -33 0 -33 28 0 28 3 30 33 28 27 -1 31 1 21 13 -16 19 -43 18
-62 -4z"/>
<path d="M3191 798 c-12 -28 -19 -53 -17 -55 2 -3 13 2 25 9 17 10 25 10 41 0
17 -10 20 -10 20 3 0 21 -31 95 -40 95 -4 0 -17 -23 -29 -52z m39 -3 c0 -8 -4
-15 -10 -15 -5 0 -10 7 -10 15 0 8 5 15 10 15 6 0 10 -7 10 -15z"/>
<path d="M3320 796 c0 -56 0 -56 30 -56 17 0 30 5 30 10 0 6 -9 10 -20 10 -17
0 -20 7 -20 39 0 22 -4 43 -10 46 -6 4 -10 -15 -10 -49z"/>
<path d="M3516 834 c-9 -8 -16 -26 -16 -39 0 -46 53 -72 80 -40 11 13 8 14
-19 9 -24 -5 -32 -2 -37 11 -11 27 10 50 42 47 24 -3 26 -1 15 12 -17 20 -45
20 -65 0z"/>
<path d="M3651 798 c-12 -28 -19 -53 -17 -55 2 -3 13 2 25 9 17 10 25 10 41 0
17 -10 20 -10 20 3 0 21 -31 95 -40 95 -4 0 -17 -23 -29 -52z m39 -8 c0 -5 -4
-10 -10 -10 -5 0 -10 5 -10 10 0 6 5 10 10 10 6 0 10 -4 10 -10z"/>
<path d="M3780 794 c0 -34 4 -53 10 -49 6 3 10 14 11 23 0 14 3 13 16 -5 22
-33 28 -29 30 24 2 50 -7 63 -44 63 -21 0 -23 -5 -23 -56z m48 18 c2 -7 -3
-12 -12 -12 -9 0 -16 7 -16 16 0 17 22 14 28 -4z"/>
<path d="M3910 795 c0 -54 0 -55 29 -55 17 0 33 5 36 10 4 6 -5 10 -19 10 -32
0 -34 17 -3 30 19 8 10 15 -15 11 -5 0 -8 6 -8 14 0 9 10 15 26 15 14 0 23 4
19 10 -3 6 -19 10 -36 10 -29 0 -29 -1 -29 -55z"/>
<path d="M4100 795 c0 -58 20 -79 21 -22 0 30 1 31 11 10 13 -28 24 -29 37 -5
9 15 10 15 11 -5 0 -12 5 -25 10 -28 6 -4 10 15 10 49 0 63 -10 71 -33 25
l-15 -32 -16 32 c-24 46 -36 38 -36 -24z"/>
<path d="M4260 795 l0 -55 35 0 c19 0 35 5 35 10 0 6 -11 10 -25 10 -31 0 -33
15 -2 24 l22 7 -22 9 c-31 13 -29 30 3 30 14 0 23 4 19 10 -3 6 -19 10 -36 10
-29 0 -29 -1 -29 -55z"/>
<path d="M4387 843 c-4 -3 -7 -28 -7 -55 0 -46 1 -48 28 -48 33 0 62 27 62 58
0 33 -62 67 -83 45z m56 -35 c8 -12 7 -21 -2 -32 -23 -28 -41 -19 -41 20 0 28
4 35 16 32 9 -2 22 -10 27 -20z"/>
<path d="M4604 825 c-31 -47 4 -97 56 -80 28 9 25 27 -3 20 -15 -4 -28 0 -37
10 -20 24 0 51 34 47 28 -3 36 12 10 22 -29 11 -43 6 -60 -19z"/>
<path d="M4736 803 c-3 -27 -2 -51 4 -57 7 -7 10 9 10 47 0 31 -2 57 -4 57 -2
0 -6 -21 -10 -47z"/>
<path d="M4810 795 c0 -30 5 -55 10 -55 6 0 10 15 10 33 l0 32 21 -32 c12 -18
25 -33 30 -33 5 0 8 26 7 58 -1 35 -3 44 -5 25 -5 -41 -14 -41 -36 -3 -26 44
-37 37 -37 -25z"/>
<path d="M4950 795 l0 -55 35 0 c19 0 35 5 35 10 0 6 -11 10 -25 10 -14 0 -25
5 -25 10 0 6 9 10 20 10 11 0 20 7 20 15 0 8 -9 15 -20 15 -11 0 -20 5 -20 10
0 6 12 10 26 10 14 0 23 4 19 10 -3 6 -19 10 -36 10 -29 0 -29 -1 -29 -55z"/>
<path d="M4520 790 c0 -27 5 -50 10 -50 6 0 10 23 10 50 0 28 -4 50 -10 50 -5
0 -10 -22 -10 -50z"/>
</g>
</svg>
