<?xml version="1.0" standalone="no"?>
<!DOCTYPE svg PUBLIC "-//W3C//DTD SVG 20010904//EN"
 "http://www.w3.org/TR/2001/REC-SVG-20010904/DTD/svg10.dtd">
<svg version="1.0" xmlns="http://www.w3.org/2000/svg"
 width="600.000000pt" height="600.000000pt" viewBox="0 0 600.000000 600.000000"
 preserveAspectRatio="xMidYMid meet">
<g transform="translate(0.000000,600.000000) scale(0.100000,-0.100000)"
fill="#042534" stroke="none">
<path d="M2911 4669 c-177 -189 -457 -331 -776 -391 -103 -19 -152 -22 -350
-22 -126 0 -257 5 -290 11 -33 6 -63 9 -67 6 -11 -6 -10 -457 2 -653 22 -376
90 -700 215 -1021 241 -617 608 -1016 1266 -1372 l85 -46 130 70 c604 329 976
733 1208 1310 172 430 227 757 228 1362 0 191 -1 350 -3 351 -2 2 -26 0 -54
-5 -92 -16 -395 -22 -503 -10 -279 30 -542 123 -750 263 -83 56 -204 167 -229
210 -10 15 -20 28 -23 27 -3 0 -43 -41 -89 -90z m162 -33 c182 -177 452 -311
757 -378 94 -20 132 -23 370 -23 146 0 279 3 296 7 29 7 32 5 38 -24 10 -49 7
-473 -4 -614 -25 -324 -86 -580 -208 -872 -70 -167 -196 -391 -290 -517 -223
-297 -558 -558 -944 -736 l-91 -42 -111 52 c-324 151 -626 374 -834 616 -296
346 -496 804 -573 1315 -18 120 -22 205 -26 487 l-5 343 33 -8 c19 -4 156 -7
304 -7 242 1 281 3 375 23 309 67 567 195 753 372 45 44 82 79 83 80 0 0 35
-33 77 -74z"/>
<path d="M2935 4503 c-74 -70 -199 -153 -308 -202 -142 -66 -379 -149 -486
-171 -129 -26 -353 -44 -450 -35 l-74 6 7 -205 c20 -626 164 -1105 445 -1484
110 -149 338 -369 369 -357 8 3 51 -6 95 -20 133 -40 205 -54 338 -64 223 -18
488 19 674 95 17 7 18 6 7 -8 -20 -25 -216 -85 -333 -102 -135 -20 -327 -20
-449 -1 -99 16 -245 57 -293 82 -16 8 -31 12 -34 9 -17 -17 324 -205 489 -270
l66 -26 98 41 c477 198 789 481 1004 909 100 200 193 496 230 735 19 122 45
553 38 624 l-3 32 -170 4 c-266 7 -418 39 -688 146 -201 80 -368 179 -464 275
-24 24 -45 44 -46 44 -1 -1 -29 -26 -62 -57z m109 -76 c55 -45 149 -107 214
-142 28 -16 50 -30 47 -33 -9 -9 -152 68 -230 124 -67 48 -80 53 -95 42 -73
-54 -143 -99 -188 -122 -57 -29 -102 -48 -102 -42 0 1 41 27 90 56 50 29 116
75 148 101 31 26 61 48 66 48 5 1 27 -14 50 -32z m91 -167 c281 -23 537 -95
801 -225 171 -84 414 -240 414 -266 0 -12 -40 9 -142 78 -247 163 -515 282
-758 337 -166 37 -263 46 -461 46 -435 0 -811 -119 -1206 -384 -87 -58 -143
-90 -143 -81 0 32 226 178 425 275 264 128 505 196 780 220 132 11 158 11 290
0z m-101 -180 c29 -68 43 -90 57 -90 23 0 32 33 33 112 l1 58 31 0 c30 0 33
-4 55 -66 l23 -65 35 55 c24 39 40 56 55 56 26 0 51 -15 39 -23 -6 -4 -16 -41
-23 -83 -11 -64 -11 -77 1 -85 12 -7 11 -9 -2 -9 -9 0 -31 3 -48 6 -23 5 -29
10 -21 19 5 7 13 34 16 61 l6 49 -23 -35 c-12 -19 -28 -45 -36 -57 -21 -35
-31 -28 -51 38 -13 43 -21 56 -25 44 -11 -28 -8 -83 6 -88 6 -3 -27 -6 -75 -6
l-87 -1 2 28 c2 23 -2 27 -29 30 -34 3 -56 -24 -32 -39 20 -13 7 -17 -61 -20
-62 -3 -66 -1 -109 36 l-44 38 7 -34 c4 -19 11 -35 16 -37 21 -8 6 -20 -29
-24 -36 -3 -38 -2 -38 27 -1 58 -15 125 -31 140 -8 9 -13 18 -11 20 2 3 36 8
76 11 51 5 76 3 87 -6 18 -15 20 -61 3 -78 -9 -9 -5 -19 17 -42 39 -40 62 -39
81 5 45 109 64 145 76 145 8 0 31 -40 52 -90z m-428 34 c-3 -9 -1 -42 5 -73
20 -95 -2 -133 -77 -133 -47 0 -59 13 -84 88 -12 35 -26 64 -31 64 -19 0 -8
18 15 24 13 3 32 9 42 13 13 5 16 3 11 -10 -6 -17 26 -124 42 -140 5 -5 21 -7
35 -3 20 5 26 13 26 34 0 39 -29 122 -43 122 -17 0 4 17 28 23 35 8 37 7 31
-9z m876 -10 c83 -21 87 -24 77 -53 -9 -23 -9 -23 -27 -3 -18 21 -62 39 -62
25 0 -4 -3 -19 -7 -32 -6 -23 -4 -24 30 -18 21 3 37 4 37 2 0 -2 -5 -16 -10
-30 -9 -24 -11 -25 -26 -11 -28 28 -54 14 -54 -29 0 -19 57 -30 75 -15 12 10
15 10 15 -2 0 -8 -6 -21 -12 -30 -12 -15 -20 -14 -86 6 -61 18 -71 24 -59 34
19 16 50 127 42 152 -8 24 -11 24 67 4z m-1089 -63 c4 -17 1 -19 -24 -14 -37
7 -37 -6 -3 -86 16 -38 33 -61 43 -62 9 0 -2 -9 -24 -19 -49 -23 -59 -24 -52
-6 8 20 -43 146 -59 146 -7 0 -20 -10 -28 -22 -13 -19 -16 -19 -22 -5 -3 9 -4
22 -2 29 4 12 148 69 159 62 4 -2 9 -13 12 -23z m1300 -6 c57 -24 77 -49 77
-96 0 -31 -6 -47 -29 -70 -36 -35 -68 -37 -142 -7 -67 27 -66 26 -46 41 26 20
67 133 53 147 -14 16 33 8 87 -15z m-1548 -75 c-6 -9 60 -140 70 -140 23 0 54
27 57 49 l3 26 13 -23 c8 -13 11 -30 8 -37 -3 -8 -51 -36 -107 -64 -101 -50
-102 -50 -118 -30 -15 18 -20 19 -44 8 -30 -14 -36 -43 -11 -57 14 -8 14 -11
-7 -26 -13 -9 -26 -16 -29 -16 -3 0 -6 22 -7 50 -1 27 -9 75 -17 107 -12 44
-12 59 -3 65 18 11 16 12 97 -47 76 -56 110 -68 110 -39 0 25 -63 134 -77 134
-22 0 -14 19 15 34 32 18 56 20 47 6z m1737 -6 c28 -14 29 -17 14 -26 -19 -11
-76 -123 -76 -150 0 -16 -4 -15 -37 4 -20 12 -31 24 -24 26 15 5 71 116 71
142 0 24 11 25 52 4z m98 -51 c25 -14 28 -21 23 -51 -5 -31 -4 -34 11 -29 10
4 22 7 28 7 6 0 8 7 4 15 -7 20 3 19 39 -5 20 -13 25 -20 15 -23 -8 -3 -35
-11 -59 -18 l-43 -13 6 -69 6 -69 -32 21 c-30 18 -33 24 -30 61 3 35 2 39 -15
34 -10 -4 -24 -14 -30 -22 -10 -12 -17 -13 -38 -4 -36 16 -31 26 18 40 70 19
72 23 61 86 -12 61 -8 65 36 39z m-705 -23 c336 -60 666 -233 979 -512 38 -34
48 -49 42 -63 -6 -16 -12 -13 -54 26 -153 147 -340 279 -514 363 -108 53 -218
99 -218 93 0 -2 24 -19 53 -38 135 -87 283 -264 327 -390 31 -90 39 -260 16
-349 -24 -94 -75 -196 -135 -267 -28 -35 -47 -63 -42 -63 21 0 104 108 141
184 53 107 74 205 67 321 -11 171 -76 304 -224 453 -45 45 -80 82 -77 82 2 0
40 -18 84 -40 149 -75 238 -135 409 -275 l73 -60 -6 -115 c-20 -412 -257 -723
-681 -895 -153 -62 -276 -86 -472 -92 -202 -6 -319 9 -483 63 -445 148 -717
457 -760 864 -18 172 -22 159 77 246 49 42 131 105 183 140 92 61 276 163 294
164 5 0 -25 -33 -67 -74 -88 -86 -166 -199 -197 -288 -31 -87 -39 -267 -16
-358 30 -120 144 -307 194 -319 10 -2 2 12 -19 36 -204 226 -235 537 -77 774
71 106 160 193 288 281 22 15 18 14 -26 -2 -140 -52 -329 -155 -464 -254 -30
-22 -103 -82 -162 -134 -83 -71 -108 -88 -108 -73 0 34 155 170 323 283 256
173 551 282 842 312 82 8 304 -4 410 -24z m-1417 -220 c12 0 13 -3 4 -12 -7
-7 -12 -23 -12 -35 0 -20 -3 -22 -18 -14 -11 6 -24 6 -35 0 -14 -8 -17 -6 -17
14 0 12 -5 28 -12 35 -9 9 -8 12 5 12 9 0 22 10 28 22 l12 22 15 -22 c8 -12
22 -22 30 -22z m2337 20 c4 -12 15 -20 27 -20 20 0 20 -1 4 -19 -10 -11 -14
-25 -10 -36 6 -15 4 -16 -16 -5 -16 9 -25 9 -33 1 -18 -18 -29 -13 -22 10 5
14 1 25 -12 34 -17 14 -17 14 5 15 15 0 26 7 29 20 3 11 9 20 13 20 5 0 12 -9
15 -20z m-1916 -1307 c2 -2 -2 -9 -8 -17 -7 -8 -10 -19 -7 -25 3 -5 -9 -9 -29
-8 -24 1 -34 5 -31 14 3 7 1 15 -4 18 -16 10 -12 20 13 31 20 9 32 7 66 -13z
m1491 17 c0 -5 10 -10 22 -10 19 0 20 -2 6 -17 -9 -10 -13 -24 -10 -32 3 -10
0 -12 -13 -7 -10 3 -24 1 -31 -5 -11 -9 -14 -6 -14 15 0 14 -4 26 -10 26 -5 0
-10 5 -10 10 0 6 9 10 20 10 11 0 20 5 20 10 0 6 5 10 10 10 6 0 10 -4 10 -10z
m-140 -86 c-16 -40 -12 -82 10 -104 20 -20 20 -20 -10 -35 -32 -17 -41 -18
-38 -7 7 25 -19 56 -64 77 l-50 23 31 16 c30 16 32 16 53 -4 31 -29 41 -25 35
14 -4 27 -2 36 11 39 30 8 32 7 22 -19z m-1172 -89 c-2 -48 -7 -85 -13 -85
-22 1 -58 27 -46 34 18 12 12 36 -11 46 -18 6 -27 4 -39 -10 -15 -17 -16 -17
-40 1 -18 14 -20 19 -8 19 9 0 40 18 70 40 84 61 91 57 87 -45z m997 26 c-6
-11 32 -113 47 -122 5 -4 -5 -11 -23 -18 -41 -14 -39 -15 -39 13 0 30 -9 56
-20 56 -4 0 -10 -20 -13 -45 -2 -26 -8 -49 -11 -52 -4 -4 -24 11 -46 32 -22
22 -40 37 -40 34 0 -18 23 -69 32 -69 5 0 6 -4 3 -10 -10 -16 -55 -12 -49 4 7
18 -23 118 -38 127 -8 5 -2 10 15 14 22 6 35 0 70 -31 l42 -39 9 52 c8 50 16
58 54 62 7 0 11 -3 7 -8z m-815 -17 c42 -17 43 -18 31 -48 -7 -17 -9 -16 -24
8 -22 33 -60 34 -81 4 -34 -48 -6 -94 51 -85 37 6 44 -6 12 -23 -44 -24 -110
14 -124 72 -6 22 -1 33 23 58 35 34 55 37 112 14z m182 -102 c9 -35 22 -70 29
-78 17 -21 6 -26 -35 -19 -32 6 -35 10 -30 32 6 23 4 24 -27 21 -25 -2 -34 -8
-33 -20 2 -20 -1 -21 -32 -12 -20 5 -18 10 30 75 29 40 57 68 66 66 9 -1 22
-27 32 -65z m398 48 c0 -17 -3 -18 -19 -9 -24 16 -51 5 -51 -21 0 -21 24 -28
35 -10 12 20 25 9 25 -22 0 -25 -3 -29 -12 -20 -20 20 -38 14 -38 -13 0 -30
33 -35 62 -8 17 15 18 15 18 -10 0 -22 -5 -27 -24 -27 -13 0 -43 -3 -67 -6
l-44 -6 -1 66 c-1 36 -7 72 -13 80 -10 12 -7 15 21 19 87 10 108 8 108 -13z
m-205 -5 c39 -16 59 -52 49 -90 -12 -47 -50 -62 -139 -57 l-30 2 0 80 0 80 43
0 c23 0 58 -7 77 -15z m-143 -288 l128 -49 52 22 c84 36 240 91 245 86 6 -6
-16 -17 -169 -84 l-134 -59 -45 21 c-24 12 -89 41 -144 65 -186 81 -140 80 67
-2z"/>
<path d="M2720 4096 c0 -29 11 -39 35 -30 24 10 15 48 -12 52 -19 3 -23 -1
-23 -22z"/>
<path d="M2960 4070 c0 -11 7 -20 15 -20 17 0 18 2 9 24 -9 23 -24 20 -24 -4z"/>
<path d="M3638 3954 l-26 -65 21 -8 c12 -4 29 -6 39 -3 48 12 65 99 26 126
-12 9 -25 16 -28 16 -3 0 -17 -30 -32 -66z"/>
<path d="M1990 3779 c0 -12 5 -19 12 -17 18 6 20 25 3 31 -10 5 -15 0 -15 -14z"/>
<path d="M2764 3855 c-212 -46 -426 -193 -553 -381 -70 -104 -96 -190 -96
-319 0 -79 5 -116 24 -174 24 -72 98 -199 138 -234 24 -21 25 -20 76 73 33 60
34 67 21 85 -60 78 -94 188 -94 300 0 294 219 550 537 626 130 31 304 24 425
-18 397 -138 592 -563 403 -877 l-35 -58 42 -74 c23 -41 45 -74 50 -74 15 0
92 106 120 167 43 90 58 156 58 253 0 147 -32 239 -129 368 -129 170 -323 295
-524 338 -87 18 -378 18 -463 -1z"/>
<path d="M2770 3438 c-118 -205 -278 -484 -357 -620 -79 -136 -143 -250 -143
-253 0 -3 55 -5 123 -5 l122 0 31 58 c16 31 75 138 130 237 207 373 299 535
305 535 3 0 31 -45 63 -100 32 -55 61 -100 64 -100 4 0 33 45 66 100 39 67 56
106 51 118 -6 17 -223 381 -235 395 -3 4 -102 -160 -220 -365z"/>
<path d="M3162 3163 c-136 -243 -136 -243 -144 -243 -4 0 -32 45 -63 100 -32
55 -60 100 -64 100 -3 0 -26 -37 -50 -83 l-43 -82 91 -145 c50 -80 91 -148 91
-153 0 -16 -169 16 -249 48 l-60 23 -41 -70 c-22 -39 -37 -74 -33 -78 4 -4 37
-19 73 -33 147 -57 350 -72 515 -38 95 20 201 56 210 72 5 7 -41 95 -70 137
-1 1 -36 -9 -78 -23 -70 -23 -206 -49 -215 -40 -7 6 185 330 194 327 5 -2 63
-96 130 -210 l120 -207 127 -3 c70 -1 127 -1 127 1 0 6 -450 760 -460 770 -4
5 -53 -72 -108 -170z"/>
<path d="M2401 2246 c-8 -10 -9 -16 -1 -21 5 -3 13 1 16 10 9 22 -1 29 -15 11z"/>
<path d="M2757 2123 c-12 -11 -8 -23 8 -23 8 0 15 7 15 15 0 16 -12 20 -23 8z"/>
<path d="M2950 2099 c0 -52 2 -59 20 -59 11 0 27 12 36 26 23 34 9 75 -28 85
l-28 7 0 -59z"/>
<path d="M1523 3900 c6 -315 14 -404 58 -625 89 -445 305 -869 588 -1154 197
-198 484 -392 750 -506 l85 -36 150 74 c492 240 811 543 1035 979 105 206 176
412 225 655 34 167 44 284 51 617 l6 289 -47 -7 c-26 -3 -133 -7 -238 -7 -166
-1 -181 -3 -116 -11 41 -5 141 -7 223 -6 l147 3 0 -265 c0 -362 -26 -562 -106
-828 -205 -676 -579 -1106 -1199 -1378 l-130 -56 -50 17 c-78 27 -286 128
-382 186 -280 169 -508 397 -675 674 -123 204 -233 486 -288 742 -43 200 -52
291 -57 603 l-5 305 213 1 c118 1 233 5 257 10 29 6 -47 9 -228 9 l-272 0 5
-285z"/>
<path d="M3933 4183 c9 -2 25 -2 35 0 9 3 1 5 -18 5 -19 0 -27 -2 -17 -5z"/>
</g>
</svg>
